<svg width="70" height="70" viewBox="0 0 70 70" fill="none" xmlns="http://www.w3.org/2000/svg">
<g clip-path="url(#clip0)">
<path d="M24.413 37.1561C24.9851 37.1065 25.4085 36.6027 25.3591 36.0306L24.2942 23.746C24.235 23.0645 24.5537 22.4532 25.1471 22.1104C25.7393 21.7681 26.4279 21.7977 26.989 22.1901L52.12 39.7558C52.3014 39.8827 52.5091 39.9435 52.7146 39.9435C53.0426 39.9435 53.3654 39.7887 53.5677 39.4994C53.8966 39.0288 53.7817 38.3807 53.3111 38.0517L28.1803 20.486C26.9577 19.6315 25.3966 19.5644 24.1067 20.3104C22.8158 21.056 22.0939 22.4413 22.2228 23.9257L23.2875 36.2104C23.3371 36.7823 23.8422 37.2056 24.413 37.1561Z" fill="#01BFFF"/>
<path d="M62.9163 44.7657L57.0704 40.6796C56.5998 40.3507 55.9519 40.4656 55.6227 40.9362C55.2938 41.4068 55.4087 42.055 55.8793 42.3839L61.7252 46.4699C62.7118 47.1598 62.7782 48.199 62.5113 48.9417C62.2443 49.684 61.5335 50.4433 60.3314 50.3466L43.4277 48.9923C42.5704 48.9233 41.7254 49.1147 40.9862 49.5436C40.2413 49.9727 39.653 50.6095 39.2853 51.3844L32.0066 66.6999C31.4902 67.7871 30.4762 68.0244 29.6997 67.8843C28.9233 67.7441 28.0567 67.1671 27.9532 65.9682L25.7381 40.4117C25.6885 39.8398 25.1845 39.4167 24.6126 39.4658C24.0405 39.5154 23.617 40.0193 23.6665 40.5913L25.8816 66.1476C26.0475 68.0677 27.4334 69.588 29.3302 69.9305C29.5903 69.9775 29.8491 70.0004 30.1043 70.0004C31.7102 70.0004 33.171 69.0946 33.8846 67.5925L41.1636 52.2763C41.3495 51.8846 41.647 51.5626 42.0269 51.3437C42.4013 51.1267 42.8277 51.0301 43.2615 51.065L60.1652 52.4193C62.0889 52.5742 63.8159 51.4588 64.4678 49.6452C65.12 47.8311 64.4963 45.8703 62.9163 44.7657Z" fill="#01BFFF"/>
<path d="M29.016 28.8118C28.5188 29.0989 28.3485 29.7347 28.6355 30.2319L38.6058 47.501C38.7983 47.8345 39.1477 48.0209 39.507 48.0209C39.6834 48.0209 39.8623 47.976 40.0259 47.8815C40.5231 47.5944 40.6934 46.9586 40.4064 46.4614L30.4361 29.1923C30.1491 28.6951 29.5132 28.5247 29.016 28.8118Z" fill="#01BFFF"/>
<path d="M23.1187 9.1298C23.6928 9.1298 24.1583 8.66434 24.1583 8.0902V1.0396C24.1583 0.465465 23.6928 0 23.1187 0C22.5446 0 22.0791 0.465465 22.0791 1.0396V8.0902C22.0791 8.66434 22.5446 9.1298 23.1187 9.1298Z" fill="#01BFFF"/>
<path d="M11.9729 5.22607C11.5669 4.82007 10.9086 4.82007 10.5027 5.22607C10.0967 5.63207 10.0967 6.29021 10.5027 6.69621L15.4881 11.6817C15.6911 11.8848 15.9572 11.9863 16.2232 11.9863C16.4892 11.9863 16.7553 11.8848 16.9583 11.6817C17.3643 11.2757 17.3643 10.6176 16.9583 10.2116L11.9729 5.22607Z" fill="#01BFFF"/>
<path d="M14.406 17.8433C14.406 17.2692 13.9406 16.8037 13.3664 16.8037H6.31597C5.74183 16.8037 5.27637 17.2692 5.27637 17.8433C5.27637 18.4175 5.74183 18.8829 6.31597 18.8829H13.3664C13.9406 18.8829 14.406 18.4175 14.406 17.8433Z" fill="#01BFFF"/>
<path d="M31.8323 17.8433C31.8323 18.4175 32.2977 18.8829 32.8719 18.8829H39.9225C40.4968 18.8829 40.9621 18.4175 40.9621 17.8433C40.9621 17.2692 40.4968 16.8037 39.9225 16.8037H32.8719C32.2977 16.8037 31.8323 17.269 31.8323 17.8433Z" fill="#01BFFF"/>
<path d="M15.4881 24.0046L10.5027 28.9901C10.0967 29.3961 10.0967 30.0544 10.5027 30.4602C10.7057 30.6633 10.9718 30.7648 11.2378 30.7648C11.5038 30.7648 11.77 30.6633 11.9729 30.4602L16.9583 25.4747C17.3643 25.0687 17.3643 24.4104 16.9583 24.0046C16.5524 23.5986 15.8941 23.5986 15.4881 24.0046Z" fill="#01BFFF"/>
<path d="M30.0164 11.9864C30.2824 11.9864 30.5485 11.8849 30.7514 11.6818L35.737 6.69631C36.143 6.29031 36.143 5.63203 35.737 5.22617C35.3308 4.82017 34.6727 4.82031 34.2667 5.22617L29.2813 10.2117C28.8753 10.6177 28.8753 11.276 29.2813 11.6818C29.4842 11.8849 29.7504 11.9864 30.0164 11.9864Z" fill="#01BFFF"/>
</g>
<defs>
<clipPath id="clip0">
<rect width="70" height="70" fill="white"/>
</clipPath>
</defs>
</svg>
