<svg width="460" height="622" viewBox="0 0 460 622" fill="none" xmlns="http://www.w3.org/2000/svg">
<path fill-rule="evenodd" clip-rule="evenodd" d="M464.619 429.71C442.446 464.632 421.446 500.807 385.558 521.388C339.957 547.538 281.059 588.723 236.708 560.407C190.203 530.714 227.536 451.141 200.347 403.135C174.136 356.858 93.8646 349.04 87.1256 296.304C80.5893 245.156 130.646 203.218 170.648 170.729C206.141 141.902 251.982 135.133 296.805 126.005C340.67 117.073 385.698 102.617 427.615 118.402C470.523 134.56 509.056 168.335 524.158 211.619C538.329 252.236 514.76 294.257 503.438 335.73C494.287 369.25 483.241 400.381 464.619 429.71Z" fill="url(#paint0_linear)" fill-opacity="0.6"/>
<defs>
<linearGradient id="paint0_linear" x1="153.072" y1="487.517" x2="468.329" y2="129.666" gradientUnits="userSpaceOnUse">
<stop stop-color="#0072FF"/>
<stop offset="1" stop-color="#00C6FF"/>
</linearGradient>
</defs>
</svg>
