<svg width="312" height="356" viewBox="0 0 312 356" fill="none" xmlns="http://www.w3.org/2000/svg">
<path fill-rule="evenodd" clip-rule="evenodd" d="M100.029 0.111718C138.524 2.13524 163.997 38.1266 195.163 60.8516C226.293 83.5499 263.142 99.1627 281.994 132.793C303.489 171.138 321.604 217.936 306.331 259.166C291.164 300.11 245.455 319.584 205.954 338.064C172.711 353.617 136.688 357.189 100.029 355.685C64.8158 354.241 30.2486 348.111 0.224289 329.625C-31.7029 309.967 -62.6843 284.449 -73.8661 248.618C-84.9957 212.955 -71.4927 175.461 -58.8579 140.305C-46.6062 106.214 -29.7895 74.4022 -2.64757 50.4536C26.664 24.5907 61.0212 -1.93871 100.029 0.111718Z" fill="url(#paint0_linear)" fill-opacity="0.5"/>
<defs>
<linearGradient id="paint0_linear" x1="312" y1="178" x2="-83.7353" y2="178" gradientUnits="userSpaceOnUse">
<stop stop-color="#00C6FF"/>
<stop offset="1" stop-color="#0072FF"/>
</linearGradient>
</defs>
</svg>
