<svg width="113" height="46" viewBox="0 0 113 46" fill="none" xmlns="http://www.w3.org/2000/svg">
<g clip-path="url(#clip0)">
<path d="M32.1614 23.6941V23.6935V23.6941ZM107.172 30.4949L107.21 30.4954C109.469 30.4954 111.058 28.9306 111.076 26.6912C111.084 25.5823 110.764 24.5671 110.174 23.8338C109.55 23.0575 108.676 22.6437 107.647 22.6355H107.626C106.238 22.6355 104.948 23.6892 103.684 25.8572L103.583 26.0303L103.519 25.8417C103.199 24.9126 102.915 24.1385 102.745 23.6752C102.626 23.3521 102.574 23.207 102.561 23.16C102.5 22.9255 102.3 22.7798 102.037 22.7798C101.875 22.7798 101.704 22.8347 101.541 22.938C101.38 23.0405 101.29 23.1657 101.258 23.333L101.25 23.3582C99.9848 27.3043 98.9417 29.22 98.0578 29.22C97.9293 29.2189 97.8287 29.1771 97.7538 29.0935C97.5223 28.8377 97.5792 28.2292 97.6579 27.3868C97.7156 26.768 97.7814 26.0674 97.7541 25.324C97.7022 23.8947 96.9199 23.0364 95.6628 23.0271C94.0649 23.0266 93.0295 24.7284 92.5526 25.7427L92.4102 26.045L92.3787 25.7115C92.2596 24.4564 91.8383 22.9572 90.5083 22.9473C88.9569 22.9473 87.775 24.7677 87.0539 26.2957L86.8607 26.7051L86.8798 26.253C86.9653 24.2153 87.0356 23.0121 87.0889 22.6784C87.1414 22.3435 87.1138 22.1189 87.0042 21.9901C86.9003 21.8696 86.7046 21.825 86.4176 21.8431C85.9209 21.8745 85.667 22.1768 85.2846 23.1901C84.6565 24.8541 83.0589 28.7256 81.7832 28.7256C81.5301 28.7237 81.3298 28.6376 81.183 28.4689C80.6481 27.8558 80.8621 26.1978 81.1581 23.9037L81.1805 23.7302C81.3207 22.6439 81.0818 22.4121 80.4917 22.3036C80.4326 22.2925 80.3726 22.2867 80.3124 22.2861C79.8412 22.2861 79.6209 22.7374 79.1808 23.9915C78.3977 26.223 77.3905 28.5698 76.2129 28.5698C76.1698 28.5698 76.1274 28.5665 76.0839 28.5597C75.4599 28.4533 75.4736 27.5278 75.4908 26.355C75.4995 25.7208 75.5102 25.0017 75.4126 24.3525C75.2366 23.1876 74.5505 22.4603 73.6209 22.4529C71.7666 22.4529 70.5161 24.8276 69.9345 26.2435L69.8027 26.5638L69.7587 26.2199C69.6445 25.3111 69.5694 24.3978 69.5338 23.4825L69.5321 23.4484L69.5532 23.4216C73.0237 19.0529 74.5811 15.9003 74.6019 13.1992C74.6153 11.4737 73.8191 10.4372 72.4724 10.4265C71.4876 10.4265 69.1462 11.2468 68.3325 18.8443C68.1804 20.2706 68.0983 21.7035 68.0865 23.1378L68.0859 23.1663L68.0698 23.1892C66.482 25.4874 63.0932 29.4406 59.7755 29.4406C56.7778 29.4406 54.3862 27.0153 54.3862 22.7344C54.3862 16.9955 58.4482 13.472 61.5051 13.472H61.5306C62.1948 13.4769 62.7644 13.6625 63.1777 14.0085C63.6068 14.3677 63.8317 14.8712 63.8271 15.4643C63.8211 16.2567 63.5628 16.664 63.3132 17.0573C63.2496 17.1587 63.1853 17.2593 63.1268 17.3659C63.0678 17.4736 63.0139 17.6296 63.0924 17.7633C63.1727 17.9002 63.378 17.9863 63.6281 17.9883C64.3557 17.9883 65.4562 16.9348 65.4682 15.3479C65.4808 13.6868 64.0816 11.9752 61.5852 11.9752C57.8075 11.9752 52.7194 16.1255 52.7194 22.8517C52.7194 27.6096 55.7025 30.898 59.7435 30.898C62.611 30.898 65.4477 28.8448 67.9599 25.4153L68.1138 25.2075L68.1247 25.4655C68.178 26.721 68.2691 27.7099 68.3355 28.4323C68.3784 28.8967 68.4095 29.2321 68.4084 29.4171C68.4052 29.8225 68.471 30.1045 68.6113 30.2773C68.7509 30.4503 68.9729 30.532 69.3096 30.5342C69.8738 30.5342 69.987 30.1496 70.2103 29.2006L70.2745 28.9298C70.5522 27.7799 71.5778 24.0264 73.1202 24.0264C73.3722 24.0289 73.5665 24.1033 73.7046 24.2495C74.0451 24.6108 74.008 25.3524 73.9648 26.2115C73.9374 26.7475 73.9101 27.301 73.9637 27.8403C74.1088 29.296 74.7375 30.0081 75.8852 30.0163C77.0638 30.0168 78.2938 28.7472 78.943 27.5675L79.0655 27.3453L79.1133 27.5951C79.233 28.2265 79.7687 30.2989 81.4462 30.2989C82.9665 30.2989 84.2708 28.698 85.7004 25.403L85.8876 24.9727L85.8761 25.442C85.8458 26.6906 85.7783 28.2153 85.7777 29.3942C85.7772 30.306 85.8693 30.6539 86.2908 30.6539L86.3864 30.6583C86.7907 30.6583 87.0651 30.417 87.202 29.9397C88.2779 26.1904 89.2075 24.4444 90.1286 24.4444C91.0306 24.4512 91.1151 26.1005 91.1875 29.0148L91.1924 29.2192C91.2143 30.2385 91.2512 30.6895 91.8843 30.6941C92.3648 30.6941 92.4842 30.3167 92.7327 29.3873C92.7802 29.2102 92.8316 29.0159 92.8926 28.8059C93.7612 25.7925 94.4812 24.563 95.3777 24.563C96.1453 24.5687 96.1879 25.36 96.2021 25.62C96.2316 26.1768 96.1742 26.7598 96.119 27.3226C96.0674 27.8457 96.0143 28.3869 96.0343 28.8896C96.0813 30.0682 96.7264 30.7223 97.8514 30.7308C99.3116 30.7308 100.63 29.023 101.784 25.6561L101.864 25.4215L101.956 25.6525C102.165 26.1817 102.438 26.8981 102.69 27.7528L102.7 27.7853L102.686 27.8162C101.568 30.2981 100.779 33.0626 100.768 34.5396C100.753 36.485 101.633 37.7491 103.011 37.7598H103.034C103.784 37.7598 105.53 37.4588 105.564 34.6752C105.578 33.5343 105.308 31.9211 104.763 29.8796L104.701 29.6459L104.902 29.7798C105.599 30.2415 106.384 30.4883 107.172 30.4949ZM69.5379 21.0542C69.569 20.3567 69.6278 19.6775 69.7112 19.0351C70.2518 14.8963 71.3796 12.0061 72.4551 12.0061H72.4601C72.9728 12.0099 73.2292 12.3978 73.224 13.1582C73.2093 15.027 72.0252 17.7024 69.7051 21.11L69.5237 21.3768L69.5379 21.0542ZM103.834 35.9336C103.663 36.1616 103.424 36.2772 103.126 36.2772C102.783 36.2742 102.526 36.155 102.35 35.9208C101.86 35.2651 101.998 33.7235 102.799 30.9254C102.895 30.5908 102.998 30.2549 103.108 29.9261L103.201 29.647L103.283 29.9293C104.216 33.1593 104.401 35.1792 103.834 35.9336ZM104.124 27.6585L104.107 27.6276L104.073 27.5202L104.089 27.4882C105.153 25.2961 106.372 24.0396 107.433 24.0396H107.444C108.641 24.0486 109.469 25.1266 109.458 26.6597C109.45 27.6831 108.999 28.2724 108.622 28.5865C108.192 28.9451 107.62 29.1501 107.051 29.1501C105.649 29.1394 104.687 28.3328 104.124 27.6585ZM107.433 24.1317V24.1303V24.1317ZM36.2732 30.1324C37.9153 30.0012 39.2181 27.7678 39.7019 26.8133L39.8265 26.5674L39.8738 26.839C40.1061 28.1811 40.8362 30.4361 43.1199 30.4541H43.139C44.1269 30.4541 45.2475 29.8498 46.3802 28.707L46.4633 28.6231L46.5237 28.7239C47.2863 29.9993 48.3091 30.6769 49.3981 30.6211C51.0012 30.5378 51.9743 29.4018 52.0598 28.6127C52.0817 28.4115 52.0287 28.2221 51.9136 28.0945C51.7695 27.9337 51.5602 27.9152 51.4065 28.0625L51.333 28.1319C50.9599 28.4902 50.2646 29.158 49.5069 29.1974C48.5792 29.2427 47.8931 28.6881 47.4498 27.5434L47.4315 27.4953L47.4626 27.4549C50.0136 24.1183 51.8037 19.0272 51.6269 15.6125C51.5454 14.032 51.0859 12.148 49.3598 12.148L49.2311 12.1512C48.5699 12.1854 47.9686 12.5006 47.444 13.0874C45.8426 14.8791 45.0045 19.289 45.3087 24.3225C45.3716 25.3682 45.5534 26.3457 45.8483 27.2266L45.865 27.2761L45.8314 27.316C44.8848 28.4222 43.9508 29.0314 43.2013 29.0314C41.3982 29.0314 41.4588 26.0078 41.6012 23.5008C41.6321 22.9602 41.6778 22.6158 41.5179 22.4201C41.4036 22.2799 41.2123 22.2107 40.9335 22.2085L40.901 22.2082C40.2592 22.2082 40.125 22.3403 39.7967 23.2926C39.1136 25.2709 37.7653 28.5911 36.409 28.5911C36.0332 28.5876 35.7462 28.4594 35.5496 28.209C34.8917 27.3693 35.3914 25.275 35.7926 23.5916C35.8648 23.289 35.9339 22.9984 35.9933 22.7295C36.081 22.3304 36.0542 22.0393 35.9132 21.863C35.7716 21.6873 35.4892 21.6162 35.1167 21.6457C34.5358 21.6922 34.1644 21.9355 33.9848 23.04L33.9487 23.2696L33.8137 23.1061C33.56 22.7317 33.0656 22.2856 32.1475 22.2856C32.0671 22.2856 31.9837 22.2889 31.8976 22.2957C30.918 22.3761 29.8025 23.0586 28.9861 24.0773C28.033 25.2666 27.5776 26.7718 27.7044 28.3164C27.711 28.3981 27.7227 28.4766 27.7345 28.5545L27.741 28.5974L27.7115 28.6299C27.1413 29.2509 26.5602 29.5664 25.9846 29.5664C25.096 29.5598 24.5862 28.8994 24.5862 27.7993C24.5862 25.9477 25.8411 20.3654 25.8411 18.3447C25.8411 16.1941 24.8828 15.0234 23.2187 15.0106H23.1936C20.7637 15.0106 18.87 17.7677 17.0578 23.4404C16.8857 23.985 16.7185 24.5311 16.5565 25.0788L16.302 25.9319L16.3772 25.0452C16.5411 23.1436 16.6557 21.2381 16.7208 19.3306C16.811 16.5891 16.4406 14.8247 15.5875 13.9369C15.1275 13.458 14.5191 13.2222 13.7264 13.2161H13.7062C10.7329 13.2161 9.30851 18.2307 8.27121 21.769C7.95824 22.8372 7.34133 25.2466 6.92941 26.8937L7.1735 26.4971C7.35636 24.4231 7.88636 19.2278 7.85164 16.4092C7.81392 13.3856 6.80751 12.0302 4.58667 12.0132H4.55934C3.37307 12.0132 2.55006 12.6028 2.06872 13.0972C1.29573 13.891 0.81412 15.051 0.840906 16.0528C0.857306 16.6618 1.23095 17.2038 1.51413 17.2038C1.69863 17.2038 1.80085 16.9575 1.84513 16.8107C2.5323 14.5396 3.42145 13.4354 4.56234 13.4354C5.03549 13.4389 5.38781 13.5783 5.65131 13.8618C6.54292 14.8181 6.38056 17.4006 6.08673 22.0891C5.99161 23.6001 5.88446 25.3119 5.79399 27.2594C5.7782 27.5808 5.75943 27.9019 5.73768 28.2229C5.65103 29.5751 5.58215 30.6438 6.0952 30.7234C6.76268 30.8275 7.19701 30.5564 7.4195 29.896C7.74914 28.9158 8.48851 26.2369 9.91914 21.3418C11.2918 16.6443 12.3288 14.9351 13.6556 14.9351C15.1885 14.9351 15.3027 17.5671 15.0217 23.1212C14.9619 24.2987 14.8818 25.6323 14.8203 27.0834C14.8118 27.2873 14.8022 27.4852 14.7924 27.6754C14.7334 28.8773 14.6869 29.8249 15.0302 30.1885C15.1374 30.3016 15.2828 30.3577 15.4755 30.3587C16.1399 30.3587 16.3397 29.7763 16.6708 28.8106C16.7292 28.6403 16.7913 28.4583 16.8604 28.268C19.1373 21.9871 20.8208 16.5377 23.0804 16.5377C23.758 16.5377 24.2856 17.0882 24.2856 18.1618C24.2856 20.6401 23.0736 25.4286 23.0736 27.8569C23.0736 28.7269 23.324 29.5076 23.7968 30.0564C24.2823 30.6201 24.9615 30.9202 25.761 30.927H25.7785C26.5345 30.927 27.322 30.5596 28.1202 29.8353L28.1951 29.7675L28.2552 29.8487C28.7808 30.555 29.6287 30.9347 30.5444 30.8641C31.9487 30.7548 33.1271 29.5043 33.5655 28.3252L33.6513 28.0945L33.7369 28.3252C34.0627 29.2001 34.7674 30.2546 36.2732 30.1324ZM49.2139 13.721L49.2379 13.7204C49.3984 13.7204 49.5394 13.8008 49.6564 13.9599C50.214 14.7137 50.2225 17.4654 49.2633 20.5961C48.7153 22.3854 47.9781 24.0756 47.1324 25.4836L46.9974 25.7077L46.963 25.4483C46.8635 24.6912 46.8143 23.9029 46.7798 23.2321C46.5352 18.4999 47.9666 13.7858 49.2139 13.721ZM33.6317 24.7808C33.1402 26.7584 32.1977 29.1457 30.4984 29.2824L30.3601 29.2881C29.6552 29.2881 29.26 28.8267 29.1853 27.916C29.0919 26.7767 29.583 25.4426 30.4364 24.5163C30.9795 23.9264 31.5923 23.6017 32.1617 23.6017H32.1732C32.8917 23.6072 33.3955 24.1842 33.627 24.7224L33.6393 24.7502L33.6317 24.7808ZM41.5132 17.5307C40.8859 17.5307 40.3794 18.0249 40.3745 18.6325C40.3696 19.2445 40.8731 19.7463 41.4963 19.751L41.5053 19.842V19.751C42.1236 19.751 42.6298 19.2571 42.6347 18.6497C42.6396 18.0375 42.1364 17.5356 41.5132 17.5307ZM80.9534 17.5307C80.3261 17.5307 79.8199 18.0249 79.8147 18.6325C79.8097 19.2445 80.313 19.7463 80.9364 19.751L80.9452 19.842V19.751C81.564 19.751 82.0702 19.2571 82.0751 18.6497C82.0795 18.0375 81.5766 17.5356 80.9534 17.5307Z" fill="white"/>
<path d="M111.665 29.2419C111.461 29.2423 111.265 29.3236 111.12 29.4681C110.976 29.6126 110.895 29.8085 110.895 30.0127C110.895 30.2168 110.976 30.4124 111.121 30.5566C111.265 30.7008 111.461 30.7819 111.665 30.7822C111.869 30.7819 112.065 30.7009 112.209 30.5566C112.354 30.4124 112.435 30.2168 112.435 30.0127C112.435 29.8084 112.354 29.6125 112.21 29.468C112.065 29.3234 111.869 29.2422 111.665 29.2419ZM111.665 30.6709C111.3 30.6709 111.006 30.3776 111.006 30.013C111.006 29.6484 111.3 29.3543 111.665 29.3543C112.029 29.3543 112.324 29.6484 112.324 30.013C112.324 30.3776 112.029 30.6709 111.665 30.6709ZM112.006 29.8116C112.006 29.6525 111.928 29.5656 111.727 29.5656H111.385V30.4533H111.497V30.0647H111.657L111.922 30.4533H112.048L111.783 30.0647C111.903 30.0436 112.006 29.9753 112.006 29.8116ZM111.64 29.9646H111.498V29.6642H111.696C111.792 29.6642 111.896 29.6973 111.896 29.811C111.895 29.9589 111.762 29.9646 111.64 29.9646Z" fill="#020202"/>
</g>
<defs>
<clipPath id="clip0">
<rect width="112" height="46" fill="white" transform="translate(0.636719)"/>
</clipPath>
</defs>
</svg>
