<svg width="60" height="60" viewBox="0 0 60 60" fill="none" xmlns="http://www.w3.org/2000/svg">
<g clip-path="url(#clip0)">
<path fill-rule="evenodd" clip-rule="evenodd" d="M0.671875 6.69062L35.2585 0.00997925L35.1385 59.99L0.671875 52.8377V6.69062ZM12.9354 37.8384C10.3198 34.7768 9.59083 29.9657 10.8429 25.9693C12.5838 20.4121 17.0004 18.534 20.6966 19.8204C22.8063 20.5579 24.6844 22.3331 25.6878 25.0517C26.1681 26.3552 26.4254 27.8474 26.4425 29.3654C26.4768 32.0925 25.5335 35.2999 23.6639 37.5382C20.791 40.9686 15.9199 41.3202 12.944 37.8384H12.9354ZM15.6283 34.9311C14.3419 33.0187 13.9903 30.0171 14.5992 27.5215C15.4482 24.0569 17.6179 22.882 19.4274 23.6881C20.4651 24.1512 21.3827 25.2575 21.8715 26.9555C22.1031 27.7702 22.2317 28.6964 22.2403 29.6484C22.2575 31.3464 21.7944 33.3532 20.8767 34.751C19.4703 36.895 17.0862 37.1094 15.6283 34.9397V34.9311ZM37.514 12.6509H57.5902C58.7137 12.6509 59.6313 13.5685 59.6313 14.692V15.4295L43.8516 26.0722C43.6458 26.2094 43.1398 26.6039 42.7196 26.8698C42.1021 27.2728 42.0592 27.1957 41.4075 26.8269C40.4041 26.2695 38.6718 25.086 37.5054 24.2798V12.6509H37.514ZM59.6399 20.1548V41.6289C59.6399 43.3441 58.2334 44.7592 56.5097 44.7592H37.514V28.8765C38.6546 29.6312 40.1725 30.626 41.1073 31.2006C41.862 31.6637 41.9992 31.8781 42.8397 31.3893C43.2256 31.1663 43.6029 30.8747 43.8602 30.7032L59.6399 20.1634V20.1548Z" fill="white"/>
</g>
<defs>
<clipPath id="clip0">
<rect width="58.968" height="60" fill="white" transform="translate(0.671875)"/>
</clipPath>
</defs>
</svg>
