<svg width="658" height="571" viewBox="0 0 658 571" fill="none" xmlns="http://www.w3.org/2000/svg">
<g clip-path="url(#clip0)">
<path d="M551.22 344.702C551.377 335.882 560.612 312.818 569.976 301.513C579.34 290.208 593.875 282.099 604.077 285.777C613.555 289.2 612.304 301.669 600.596 309.75C588.888 317.831 571.326 327.929 565.998 342.146L555.028 359.529L551.22 344.702Z" fill="#27DEBF"/>
<path opacity="0.1" d="M551.22 344.702C551.377 335.882 560.612 312.818 569.976 301.513C579.34 290.208 593.875 282.099 604.077 285.777C613.555 289.2 612.304 301.669 600.596 309.75C588.888 317.831 571.326 327.929 565.998 342.146L555.028 359.529L551.22 344.702Z" fill="black"/>
<path d="M552.897 351.86C553.035 351.851 553.166 351.798 553.271 351.708C553.376 351.619 553.449 351.497 553.48 351.363C559.916 321.339 584.739 297.281 599.403 292.125C599.484 292.098 599.558 292.055 599.622 291.999C599.686 291.943 599.738 291.874 599.775 291.797C599.813 291.72 599.834 291.637 599.838 291.552C599.843 291.467 599.83 291.382 599.801 291.302C599.772 291.222 599.728 291.149 599.671 291.087C599.614 291.024 599.545 290.974 599.469 290.938C599.392 290.902 599.309 290.882 599.225 290.879C599.14 290.875 599.056 290.889 598.977 290.918C584.015 296.173 558.751 320.615 552.215 351.093C552.185 351.26 552.22 351.432 552.312 351.575C552.404 351.717 552.548 351.819 552.712 351.86H552.897Z" fill="white"/>
<path d="M557.046 371.217C558.552 366.289 564.761 358.208 574.679 351.618C585.648 344.333 599.431 341.137 602.699 335.357C606.621 328.44 600.838 321.723 589.684 322.916C578.53 324.109 558.666 338.95 555.142 361.773L557.046 371.217Z" fill="#27DEBF"/>
<path d="M554.986 365.977C555.109 365.968 555.228 365.924 555.328 365.852C555.429 365.779 555.507 365.68 555.554 365.565C565.244 339.93 585.094 331.21 594.231 330.187C594.315 330.178 594.396 330.153 594.471 330.112C594.545 330.072 594.61 330.017 594.663 329.951C594.716 329.885 594.755 329.809 594.779 329.728C594.802 329.646 594.809 329.561 594.799 329.477C594.792 329.392 594.768 329.31 594.728 329.235C594.688 329.159 594.633 329.093 594.566 329.04C594.5 328.987 594.423 328.948 594.341 328.925C594.259 328.903 594.173 328.897 594.088 328.909C583.986 330.031 564.25 338.936 554.304 365.111C554.243 365.269 554.249 365.444 554.318 365.599C554.387 365.753 554.515 365.874 554.673 365.934C554.769 365.985 554.88 366 554.986 365.977Z" fill="white"/>
<path d="M120.179 428.126L130.935 421.976C130.935 421.976 136.093 393.572 132.242 369.144C126.815 334.803 103.427 322.958 94.9299 326.381C86.433 329.804 84.4295 339.958 99.7751 359.799C108.826 371.516 120.478 396.27 120.179 428.126Z" fill="#27DEBF"/>
<g opacity="0.1">
<path opacity="0.1" d="M120.179 428.126L130.935 421.976C130.935 421.976 136.093 393.572 132.242 369.144C126.815 334.803 103.427 322.958 94.9299 326.381C86.433 329.804 84.4295 339.958 99.7751 359.799C108.826 371.516 120.478 396.27 120.179 428.126Z" fill="black"/>
</g>
<path d="M124.072 414.492H123.973C123.872 414.48 123.775 414.447 123.687 414.397C123.599 414.346 123.522 414.278 123.461 414.198C123.4 414.117 123.356 414.024 123.332 413.926C123.307 413.828 123.303 413.725 123.319 413.625C127.766 381.486 114.794 346.264 100.301 332.062C100.228 331.992 100.171 331.908 100.132 331.815C100.093 331.723 100.073 331.623 100.073 331.522C100.073 331.422 100.093 331.322 100.132 331.229C100.171 331.137 100.228 331.053 100.301 330.983C100.444 330.84 100.638 330.761 100.841 330.761C101.043 330.761 101.237 330.84 101.38 330.983C116.186 345.44 129.358 381.23 124.854 413.853C124.82 414.034 124.723 414.198 124.58 414.315C124.437 414.432 124.257 414.495 124.072 414.492Z" fill="white"/>
<path d="M90.3402 445.353C88.6493 446.333 85.1397 444.203 83.8041 443.294C81.5031 441.732 79.6435 439.605 78.4047 437.116C76.995 434.293 76.4984 431.101 76.9838 427.984C77.253 426.344 77.6376 424.726 78.1347 423.141L79.5556 418.426C80.104 416.907 80.3361 415.293 80.2377 413.682C79.8256 410.458 76.9696 408.2 74.3694 406.254C71.5276 404.096 68.5011 401.255 68.5153 397.378C68.7275 394.373 69.9263 391.523 71.9254 389.268C73.7868 386.925 75.9892 384.852 77.609 382.366C78.9434 380.661 79.6552 378.552 79.6267 376.387C79.4545 375.056 79.0095 373.775 78.3195 372.623C76.7397 370.223 75.3615 367.696 74.1989 365.068C73.2469 362.355 73.389 358.989 75.5061 357.044C76.453 356.337 77.5313 355.826 78.6779 355.541C79.8245 355.256 81.0165 355.202 82.1843 355.382C84.383 355.656 86.4963 356.402 88.3794 357.569C94.546 360.992 98.0556 368.278 104.592 370.919C107.188 371.723 109.831 372.368 112.506 372.851C113.844 373.099 115.115 373.625 116.238 374.392C117.361 375.16 118.311 376.154 119.028 377.31C121.429 382.096 116.968 388.004 118.659 393.089C120.079 397.591 124.527 399.309 126.985 403.357C127.981 405.151 128.384 407.214 128.136 409.251C127.917 412.688 127.074 416.057 125.649 419.193C124.048 422.31 122.22 425.305 120.179 428.154C120.079 428.225 90.5959 445.211 90.3402 445.353Z" fill="#27DEBF"/>
<path d="M107.803 436.036C107.702 436.033 107.603 436.009 107.511 435.967C107.42 435.925 107.337 435.866 107.268 435.792C107.2 435.718 107.146 435.631 107.111 435.537C107.076 435.442 107.06 435.342 107.064 435.241C108.329 404.82 93.9776 371.217 83.5482 361.461C83.4745 361.392 83.4151 361.309 83.3735 361.217C83.3318 361.125 83.3086 361.026 83.3053 360.925C83.302 360.824 83.3187 360.723 83.3542 360.629C83.3898 360.534 83.4437 360.448 83.5127 360.374C83.5817 360.3 83.6646 360.241 83.7566 360.199C83.8486 360.158 83.9479 360.135 84.0488 360.131C84.1498 360.128 84.2504 360.145 84.3449 360.18C84.4394 360.216 84.526 360.27 84.5997 360.339C95.2421 370.28 109.877 404.451 108.599 435.312C108.587 435.513 108.498 435.702 108.349 435.837C108.2 435.973 108.004 436.044 107.803 436.036Z" fill="white"/>
<path d="M103.242 400.105H103.014C95.8014 398.115 88.3924 396.92 80.9195 396.54C80.8187 396.536 80.7196 396.513 80.6279 396.471C80.5362 396.429 80.4537 396.369 80.3851 396.295C80.3165 396.222 80.2631 396.135 80.228 396.04C80.1929 395.946 80.1768 395.845 80.1806 395.745C80.1823 395.643 80.2046 395.543 80.2459 395.451C80.2872 395.358 80.3468 395.275 80.4211 395.206C80.4954 395.137 80.5829 395.084 80.6783 395.05C80.7737 395.015 80.8751 395 80.9763 395.006C88.5831 395.404 96.1245 396.623 103.469 398.642C103.638 398.701 103.782 398.817 103.875 398.97C103.967 399.124 104.003 399.305 103.976 399.482C103.949 399.659 103.861 399.822 103.727 399.941C103.593 400.059 103.421 400.128 103.242 400.133V400.105Z" fill="white"/>
<path d="M94.0914 434.062L249.153 523.536C251.06 524.503 253.168 525.007 255.306 525.007C257.444 525.007 259.551 524.503 261.458 523.536L555.056 354.09C558.452 352.13 558.452 348.948 555.056 346.988L399.981 257.515C398.074 256.548 395.966 256.044 393.828 256.044C391.69 256.044 389.582 256.548 387.676 257.515L94.0914 426.961C90.6955 428.935 90.6955 432.102 94.0914 434.062Z" fill="#0072FF"/>
<path d="M177.895 475.632C180.538 476.97 183.459 477.667 186.421 477.667C189.383 477.667 192.304 476.97 194.946 475.632C199.664 472.905 199.664 468.531 194.946 465.776C192.304 464.438 189.383 463.741 186.421 463.741C183.459 463.741 180.538 464.438 177.895 465.776C173.178 468.503 173.178 472.962 177.895 475.632Z" fill="#0257C0"/>
<path d="M249.153 523.55L94.0914 434.076C91.0507 432.33 90.7381 429.603 93.1252 427.643C91.6098 428.842 90.3645 430.347 89.4709 432.061C88.5772 433.774 88.0552 435.656 87.939 437.584V443.365C88.0534 445.499 88.6702 447.576 89.7393 449.427C90.8084 451.278 92.2995 452.85 94.0914 454.016L249.153 543.49C251.051 544.477 253.168 544.965 255.306 544.911V525.013C253.164 525.056 251.046 524.552 249.153 523.55Z" fill="#358EFD"/>
<path d="M555.056 374.072C556.847 372.904 558.337 371.331 559.406 369.481C560.474 367.63 561.092 365.554 561.209 363.42V357.64C561.089 355.711 560.564 353.829 559.668 352.116C558.772 350.403 557.525 348.898 556.008 347.699C558.41 349.658 558.097 352.385 555.056 354.146L261.458 523.55C259.562 524.54 257.444 525.029 255.305 524.971V544.967C257.444 545.026 259.562 544.537 261.458 543.547L555.056 374.072Z" fill="#0257C0"/>
<path d="M274.715 505.002L128.363 420.528C126.317 419.349 126.317 417.446 128.363 416.267L369.09 277.27C370.235 276.689 371.501 276.386 372.785 276.386C374.069 276.386 375.334 276.689 376.479 277.27L522.902 361.73C524.948 362.895 524.948 364.812 522.902 365.991L282.089 505.002C280.947 505.583 279.684 505.886 278.402 505.886C277.12 505.886 275.857 505.583 274.715 505.002Z" fill="#FAFAFA"/>
<path d="M236.649 391.342L323.224 441.291L268.577 472.834C267.621 473.311 266.568 473.559 265.501 473.559C264.433 473.559 263.38 473.311 262.424 472.834L182.002 426.421C181.631 426.296 181.309 426.057 181.08 425.738C180.852 425.42 180.729 425.038 180.729 424.646C180.729 424.254 180.852 423.873 181.08 423.554C181.309 423.236 181.631 422.997 182.002 422.871L236.649 391.342Z" fill="#E6E6E6"/>
<path d="M323.153 441.291L312.951 400.758C312.719 399.791 312.181 398.924 311.416 398.287C310.643 397.63 309.685 397.229 308.674 397.136L236.592 391.342L323.153 441.291Z" fill="#E0E0E0"/>
<path d="M323.153 441.291L245.672 438.096C244.744 438.058 243.86 437.692 243.178 437.062C242.495 436.432 242.06 435.58 241.949 434.659L236.578 391.328L323.153 441.291Z" fill="#E0E0E0"/>
<path d="M323.153 441.291L245.672 438.096C244.744 438.058 243.86 437.692 243.178 437.062C242.495 436.432 242.06 435.58 241.949 434.659L236.578 391.328L246.141 433.934C246.227 434.314 246.432 434.656 246.726 434.912C247.019 435.167 247.387 435.322 247.775 435.355L323.153 441.291Z" fill="#FAFAFA"/>
<path d="M253.97 437.954L265.507 474.595L268.591 472.82L253.97 437.954Z" fill="#FAFAFA"/>
<path d="M178.933 424.632L182.016 422.857L242.418 431.293L178.933 424.632Z" fill="#FAFAFA"/>
<path d="M285.897 373.121L354.768 412.887C355.721 413.37 356.775 413.621 357.844 413.621C358.913 413.621 359.967 413.37 360.92 412.887L458.663 356.504C459.034 356.378 459.357 356.139 459.585 355.821C459.813 355.502 459.936 355.12 459.936 354.729C459.936 354.337 459.813 353.955 459.585 353.637C459.357 353.318 459.034 353.079 458.663 352.953L389.793 313.187C388.839 312.704 387.785 312.453 386.716 312.453C385.648 312.453 384.594 312.704 383.64 313.187L285.897 369.57C285.526 369.696 285.204 369.935 284.975 370.253C284.747 370.572 284.624 370.954 284.624 371.345C284.624 371.737 284.747 372.119 284.975 372.437C285.204 372.756 285.526 372.995 285.897 373.121Z" fill="#E6E6E6"/>
<path d="M340.659 367.866C339.838 366.592 339.352 365.131 339.245 363.619C339.138 362.108 339.414 360.594 340.048 359.217C341.326 356.376 344.111 353.649 348.388 351.192C353.077 348.437 358.254 346.609 363.634 345.81C368.883 345.054 374.225 345.246 379.406 346.378C384.75 347.54 389.876 349.539 394.596 352.3C399.161 354.923 402.268 357.631 403.917 360.424C404.722 361.613 405.203 362.992 405.312 364.424C405.422 365.856 405.156 367.292 404.542 368.59C403.291 371.246 400.663 373.731 396.684 376.032C392.87 378.336 388.578 379.735 384.138 380.122C380.442 380.482 376.723 379.72 373.467 377.935C372.883 377.682 372.36 377.308 371.931 376.838C371.503 376.368 371.179 375.813 370.98 375.208C370.886 374.685 370.932 374.147 371.114 373.648C371.296 373.149 371.608 372.707 372.018 372.368C369.729 372.554 367.425 372.396 365.183 371.899C362.986 371.426 360.876 370.611 358.931 369.485C355.654 367.591 353.939 365.537 353.788 363.321C353.636 361.106 355.204 359.07 358.491 357.214C362.457 354.89 366.995 353.724 371.591 353.848C376.285 353.952 380.874 355.258 384.919 357.64C386.593 358.573 388.085 359.8 389.324 361.262C390.308 362.344 390.951 363.693 391.171 365.139L378.383 372.552C377.346 373.149 376.778 373.674 376.692 374.129C376.607 374.583 376.976 375.066 377.786 375.549C379.556 376.408 381.581 376.58 383.47 376.032C386.253 375.381 388.915 374.293 391.356 372.808C394.567 370.962 396.599 368.974 397.452 366.886C397.879 365.873 398.042 364.768 397.925 363.675C397.808 362.582 397.415 361.537 396.784 360.637C395.069 358.189 392.787 356.191 390.134 354.814C384.682 351.59 378.517 349.76 372.188 349.488C365.768 349.307 359.43 350.974 353.93 354.288C350.434 356.305 348.189 358.436 347.195 360.679C346.696 361.724 346.476 362.88 346.556 364.034C346.635 365.189 347.012 366.303 347.649 367.269C349.371 369.801 351.695 371.866 354.413 373.277C356.219 374.31 358.122 375.161 360.096 375.819C361.937 376.455 363.844 376.884 365.78 377.097C365.986 377.114 366.189 377.166 366.377 377.253C366.476 377.253 366.476 377.438 366.377 377.623L364.501 380.25C364.424 380.352 364.333 380.443 364.231 380.52C363.955 380.614 363.655 380.614 363.379 380.52C361.035 380.224 358.73 379.682 356.501 378.901C354.172 378.128 351.925 377.124 349.795 375.904C345.39 373.547 342.349 370.777 340.659 367.866ZM370.284 369.101C372.243 369.35 374.231 368.977 375.968 368.036L383.399 363.776C382.519 362.284 381.219 361.084 379.662 360.324C377.29 358.934 374.597 358.185 371.847 358.151C369.108 358.104 366.409 358.811 364.046 360.197C361.972 361.39 360.963 362.568 361.02 363.733C361.02 364.898 362.185 366.105 364.359 367.355C366.182 368.365 368.204 368.966 370.284 369.116V369.101Z" fill="#FAFAFA"/>
<path d="M465.612 309.495C466.196 309.796 466.844 309.953 467.501 309.953C468.159 309.953 468.807 309.796 469.391 309.495C469.617 309.416 469.812 309.269 469.951 309.075C470.089 308.88 470.164 308.647 470.164 308.408C470.164 308.169 470.089 307.936 469.951 307.742C469.812 307.547 469.617 307.4 469.391 307.322C468.804 307.031 468.157 306.88 467.501 306.88C466.846 306.88 466.199 307.031 465.612 307.322C465.386 307.4 465.19 307.547 465.052 307.742C464.913 307.936 464.839 308.169 464.839 308.408C464.839 308.647 464.913 308.88 465.052 309.075C465.19 309.269 465.386 309.416 465.612 309.495Z" fill="#0257C0"/>
<path d="M471.636 326.594C472.804 327.189 474.097 327.499 475.408 327.499C476.719 327.499 478.012 327.189 479.181 326.594C481.269 325.401 481.269 323.441 479.181 322.248C478.012 321.653 476.719 321.343 475.408 321.343C474.097 321.343 472.804 321.653 471.636 322.248C469.504 323.441 469.504 325.401 471.636 326.594Z" fill="#0257C0"/>
<path d="M466.322 319.024C467.743 318.215 467.644 316.88 466.152 316.028L441.343 301.698C440.545 301.271 439.658 301.04 438.753 301.026C437.849 301.011 436.954 301.212 436.143 301.612C434.722 302.408 434.835 303.757 436.313 304.609L461.122 318.925C461.921 319.346 462.807 319.575 463.71 319.592C464.613 319.609 465.508 319.415 466.322 319.024Z" fill="#0257C0"/>
<path d="M144.661 138.415C144.74 136.89 145.179 135.405 145.942 134.081C146.705 132.758 147.771 131.635 149.052 130.802L373.879 1.06517C375.241 0.371797 376.748 0.0103455 378.277 0.0103455C379.806 0.0103455 381.312 0.371797 382.675 1.06517L387.619 3.90561C388.899 4.73647 389.963 5.85791 390.726 7.1784C391.489 8.4989 391.929 9.98102 392.01 11.5038V183.777C391.922 185.3 391.48 186.781 390.717 188.103C389.955 189.425 388.894 190.55 387.619 191.389L162.792 321.126C161.43 321.813 159.926 322.171 158.401 322.171C156.876 322.171 155.372 321.813 154.011 321.126L149.052 318.286C147.777 317.447 146.716 316.322 145.954 315C145.191 313.678 144.749 312.197 144.661 310.673V138.415Z" fill="#27DEBF"/>
<path opacity="0.4" d="M145.94 134.083L158.415 141.269L390.731 7.20052C389.991 5.86417 388.925 4.73585 387.633 3.91981L382.66 1.07937C381.301 0.386122 379.796 0.0246887 378.27 0.0246887C376.743 0.0246887 375.239 0.386122 373.879 1.07937L149.066 130.802C147.756 131.605 146.678 132.736 145.94 134.083Z" fill="white"/>
<path opacity="0.1" d="M144.661 138.401V310.645C144.743 312.171 145.184 313.657 145.95 314.98C146.715 316.303 147.783 317.426 149.066 318.257L154.011 321.098C154.393 321.32 154.798 321.501 155.218 321.638C155.806 321.831 156.41 321.969 157.023 322.049C158.178 322.199 159.349 322.156 160.49 321.922C160.778 321.863 161.063 321.787 161.342 321.694C161.524 321.646 161.7 321.579 161.868 321.496C161.536 321.638 161.178 321.711 160.817 321.711C160.455 321.711 160.098 321.638 159.765 321.496C159.305 321.188 158.936 320.761 158.699 320.261C158.461 319.761 158.363 319.206 158.415 318.655V146.311C158.372 145.53 158.567 144.754 158.976 144.087C159.385 143.419 159.987 142.892 160.703 142.576L158.415 141.241L145.94 134.055C145.153 135.372 144.713 136.867 144.661 138.401Z" fill="black"/>
<path opacity="0.2" d="M158.415 141.269L262.538 180.155C266.139 181.494 270.089 181.568 273.738 180.365C277.387 179.162 280.518 176.754 282.615 173.537L299.339 147.973L391.555 6.74606L302.664 148.896L392.01 183.848C391.919 185.408 391.43 186.919 390.589 188.236L302.423 149.294L282.985 180.397C280.829 183.848 277.499 186.407 273.607 187.602C269.715 188.797 265.522 188.548 261.799 186.901L247.974 180.794L159.751 321.481C159.291 321.174 158.922 320.747 158.684 320.247C158.447 319.747 158.349 319.192 158.401 318.641V315.8L247.534 180.681L158.415 141.269Z" fill="black"/>
<path d="M184.176 101.049L168.802 92.2008L168.66 92.1156C161.84 88.2668 152.49 88.8491 142.132 94.814C121.287 106.843 104.393 136.1 104.393 160.144C104.393 172.145 108.656 180.595 115.405 184.544L129.387 192.511L132.726 186.93C136.53 186.065 140.18 184.628 143.553 182.669C164.397 170.64 181.292 141.383 181.292 117.339C181.29 114.093 180.894 110.86 180.112 107.71L184.176 101.049Z" fill="#0257C0"/>
<path d="M156.71 103.207C135.851 115.237 118.957 144.493 118.957 168.538C118.957 192.582 135.851 202.353 156.696 190.324C177.54 178.295 194.449 149.024 194.449 124.994C194.449 100.964 177.555 91.164 156.71 103.207Z" fill="#0072FF"/>
<path d="M144.974 149.635C144.839 149.496 144.742 149.326 144.69 149.14C144.638 148.954 144.633 148.758 144.675 148.569C144.747 148.057 144.942 147.57 145.244 147.149L156.909 129.837C157.208 129.425 157.492 129.013 157.804 128.615C158.064 128.244 158.398 127.929 158.785 127.692L163.047 125.278C163.189 125.173 163.358 125.112 163.534 125.103C163.71 125.093 163.884 125.136 164.036 125.225C164.188 125.315 164.31 125.447 164.386 125.605C164.463 125.764 164.492 125.941 164.468 126.116V166.081C164.446 166.584 164.294 167.073 164.028 167.501C163.793 167.943 163.445 168.316 163.019 168.58L158.671 171.08C158.526 171.189 158.354 171.257 158.174 171.274C157.993 171.292 157.811 171.259 157.648 171.179C157.499 171.076 157.381 170.934 157.306 170.769C157.231 170.604 157.202 170.422 157.222 170.242V139.693L149.62 150.955C149.369 151.367 149.004 151.698 148.569 151.907C148.411 151.986 148.235 152.02 148.059 152.005C147.884 151.99 147.716 151.927 147.574 151.822L144.974 149.635Z" fill="#FAFAFA"/>
<path d="M493.106 287.382V284.84H493.731C494.674 283.113 496.108 281.704 497.852 280.792C501.406 278.993 505.334 278.055 509.318 278.055C513.303 278.055 517.231 278.993 520.785 280.792C522.529 281.704 523.963 283.113 524.906 284.84H525.531V287.297C525.531 289.725 523.996 292.168 520.785 294.028C517.239 295.814 513.323 296.743 509.352 296.74C505.382 296.738 501.467 295.804 497.923 294.014C494.669 292.196 493.092 289.754 493.106 287.382Z" fill="#263238"/>
<path d="M520.785 278.221C517.232 276.415 513.303 275.474 509.318 275.474C505.333 275.474 501.404 276.415 497.851 278.221C491.514 281.871 491.514 287.794 497.851 291.458C501.406 293.257 505.334 294.195 509.318 294.195C513.302 294.195 517.23 293.257 520.785 291.458C527.122 287.794 527.122 281.871 520.785 278.221Z" fill="#455A64"/>
<path d="M513.552 187.498V283.76C513.519 284.127 513.388 284.479 513.173 284.778C512.958 285.078 512.667 285.315 512.33 285.465C511.416 285.933 510.403 286.177 509.375 286.177C508.347 286.177 507.334 285.933 506.42 285.465C506.083 285.315 505.792 285.078 505.577 284.778C505.362 284.479 505.231 284.127 505.198 283.76V187.498H513.552Z" fill="#37474F"/>
<path d="M505.155 197.979V200.99L513.495 205.79V202.793L505.155 197.979Z" fill="#263238"/>
<path d="M558.438 162.005L557.728 163.425L550.083 178.735L546.46 186.077L534.184 210.69L532.834 213.402H532.592C532.098 213.419 531.609 213.306 531.171 213.076L476.453 181.462C476.045 181.204 475.704 180.853 475.457 180.439C475.21 180.024 475.065 179.557 475.032 179.076V157.943C475.032 147.405 481.98 134.85 490.548 129.908C494.612 127.564 498.292 127.38 501.063 128.928L558.438 162.005Z" fill="#455A64"/>
<path d="M548.109 163.127C544.642 164.405 532.067 174.787 532.067 191.148C532.067 204.895 532.067 212.025 532.067 213.317H532.578H532.82L534.17 210.605L546.46 186.077L550.084 178.806L550.922 177.144L548.109 163.127Z" fill="#37474F"/>
<path d="M562.942 196.019C562.805 196.251 562.609 196.442 562.374 196.573L562.232 196.658L533.97 213.062C533.619 213.248 533.231 213.355 532.834 213.374H532.592V191.148C532.662 187.126 533.497 183.155 535.05 179.445L536.471 180.24L546.488 186.021L562.033 195.011L562.829 195.465C562.915 195.525 562.975 195.616 562.996 195.719C563.017 195.822 562.998 195.93 562.942 196.019Z" fill="#37474F"/>
<path d="M558.439 162.005C555.696 160.584 552.073 160.826 548.109 163.127C543.243 166.183 539.311 170.516 536.742 175.653C536.09 176.884 535.507 178.15 534.994 179.445C533.44 183.155 532.606 187.126 532.536 191.148V213.36H532.777C533.175 213.341 533.563 213.234 533.914 213.047L562.161 196.729L562.303 196.644C562.526 196.497 562.719 196.309 562.872 196.09C563.27 195.592 563.499 194.98 563.525 194.343V173.295C563.596 167.615 561.607 163.68 558.439 162.005ZM561.593 195.238L534.596 210.86C534.369 210.988 534.184 210.86 534.184 210.619V191.148C534.256 187.404 535.022 183.705 536.443 180.24C536.459 180.165 536.488 180.093 536.528 180.027C537.073 178.656 537.699 177.318 538.404 176.022C540.797 171.304 544.426 167.324 548.904 164.504C550.639 163.404 552.634 162.782 554.687 162.701C555.747 162.689 556.792 162.943 557.728 163.439C560.428 164.859 561.991 168.367 561.991 173.239V194.542C561.983 194.681 561.943 194.816 561.874 194.937C561.805 195.058 561.709 195.161 561.593 195.238Z" fill="#455A64"/>
<path d="M562.005 173.295V195.067L536.429 180.297C536.445 180.222 536.473 180.15 536.514 180.084C539.256 173.239 543.874 167.43 548.89 164.561C550.625 163.461 552.62 162.838 554.673 162.757C559.206 162.701 562.005 166.748 562.005 173.295Z" fill="#263238"/>
<path d="M515.201 184.089L517.46 182.783C517.942 182.565 518.473 182.478 518.999 182.53C519.525 182.582 520.028 182.772 520.458 183.081C521.699 183.891 522.731 184.981 523.472 186.264C524.213 187.547 524.64 188.987 524.721 190.466C524.772 190.985 524.687 191.509 524.472 191.985C524.258 192.461 523.922 192.873 523.499 193.179L521.41 194.386L521.026 193.747C520.598 193.652 520.186 193.495 519.804 193.278C518.563 192.468 517.531 191.377 516.79 190.094C516.05 188.811 515.622 187.372 515.542 185.893C515.545 185.525 515.588 185.158 515.669 184.799L515.201 184.089Z" fill="#E0E0E0"/>
<path d="M518.312 184.331C519.552 185.138 520.584 186.226 521.325 187.507C522.065 188.788 522.493 190.225 522.575 191.702C522.575 194.428 520.657 195.522 518.312 194.173C517.072 193.362 516.04 192.271 515.3 190.988C514.559 189.705 514.131 188.266 514.049 186.788C514.035 184.075 515.953 182.967 518.312 184.331Z" fill="#FAFAFA"/>
<path d="M518.312 190.423C517.985 190.423 517.67 190.293 517.438 190.061C517.206 189.83 517.076 189.515 517.076 189.188V154.236C517.076 153.908 517.206 153.594 517.438 153.362C517.67 153.131 517.985 153 518.312 153C518.64 153 518.955 153.131 519.186 153.362C519.418 153.594 519.549 153.908 519.549 154.236V189.188C519.549 189.515 519.418 189.83 519.186 190.061C518.955 190.293 518.64 190.423 518.312 190.423Z" fill="#EBEBEB"/>
<path d="M517.076 157.687L504.686 150.543L508.565 158L504.686 160.982L517.076 168.126V157.687Z" fill="#0072FF"/>
<path d="M555.554 180.395C555.545 180.205 555.492 180.02 555.398 179.855C555.304 179.689 555.173 179.548 555.014 179.443L526.994 163.281C526.824 163.197 526.637 163.154 526.447 163.154C526.257 163.154 526.07 163.197 525.9 163.281L525.275 163.636C525.116 163.741 524.985 163.882 524.891 164.047C524.797 164.213 524.744 164.398 524.735 164.588V186.076C524.747 186.265 524.802 186.449 524.895 186.614C524.989 186.779 525.119 186.92 525.275 187.027L553.338 203.118C553.508 203.202 553.695 203.246 553.885 203.246C554.074 203.246 554.261 203.202 554.432 203.118L555.057 202.763C555.215 202.659 555.347 202.518 555.441 202.352C555.535 202.187 555.588 202.002 555.597 201.812L555.554 180.395Z" fill="#F0F0F0"/>
<path d="M555.398 179.828L553.849 180.723L524.92 164.021C525.013 163.855 525.145 163.714 525.304 163.61L525.929 163.254C526.097 163.164 526.285 163.116 526.476 163.116C526.667 163.116 526.855 163.164 527.023 163.254L555.043 179.417C555.191 179.525 555.313 179.666 555.398 179.828Z" fill="#FAFAFA"/>
<path d="M555.554 180.397V201.856C555.546 202.046 555.492 202.231 555.398 202.396C555.305 202.562 555.173 202.703 555.014 202.808L554.389 203.163L554.247 203.234H554.02C553.874 203.262 553.725 203.262 553.579 203.234H553.48H553.409C553.451 203.255 553.497 203.266 553.544 203.266C553.591 203.266 553.637 203.255 553.679 203.234C553.737 203.195 553.783 203.142 553.813 203.08C553.843 203.017 553.856 202.948 553.849 202.879V181.348C553.853 181.251 553.826 181.155 553.773 181.073C553.719 180.992 553.642 180.929 553.551 180.894L553.849 180.723L555.398 179.828C555.5 180.001 555.554 180.197 555.554 180.397Z" fill="#E0E0E0"/>
<path d="M553.849 180.723L540.862 185.566C540.413 185.731 539.922 185.74 539.468 185.59C539.014 185.441 538.624 185.142 538.361 184.742L536.287 181.561L524.792 163.95L535.861 181.675L524.735 186.077C524.745 186.269 524.804 186.454 524.905 186.617L535.903 181.76L538.319 185.637C538.587 186.068 539.003 186.388 539.488 186.537C539.974 186.686 540.498 186.654 540.962 186.447L542.681 185.694L553.679 203.12C553.736 203.082 553.783 203.029 553.813 202.966C553.843 202.904 553.855 202.834 553.849 202.765V202.41L542.738 185.566L553.849 180.723Z" fill="#E0E0E0"/>
<path d="M577.237 183.833L571.553 190.324L571.439 190.466L566.125 196.615C565.809 196.963 565.445 197.264 565.045 197.51L535.207 214.695C535.106 214.754 534.995 214.792 534.88 214.808H534.866L545.608 202.41L546.233 201.7C554.154 193.06 563.24 185.565 573.23 179.431C577.137 177.173 579.638 176.363 580.59 176.832C581.755 177.471 580.675 179.871 577.237 183.833Z" fill="#37474F"/>
</g>
<defs>
<clipPath id="clip0">
<rect width="658" height="571" fill="white"/>
</clipPath>
</defs>
</svg>
