<svg width="111" height="28" viewBox="0 0 111 28" fill="none" xmlns="http://www.w3.org/2000/svg">
<path d="M31.5235 13.6941V13.6935V13.6941ZM106.534 20.4949L106.572 20.4954C108.831 20.4954 110.42 18.9306 110.438 16.6912C110.446 15.5823 110.126 14.5671 109.536 13.8338C108.912 13.0575 108.038 12.6437 107.009 12.6355H106.988C105.6 12.6355 104.31 13.6892 103.046 15.8572L102.945 16.0303L102.881 15.8417C102.562 14.9126 102.277 14.1385 102.107 13.6752C101.988 13.3521 101.936 13.207 101.923 13.16C101.862 12.9255 101.662 12.7798 101.399 12.7798C101.237 12.7798 101.066 12.8347 100.903 12.938C100.742 13.0405 100.653 13.1657 100.62 13.333L100.612 13.3582C99.3468 17.3043 98.3038 19.22 97.4198 19.22C97.2914 19.2189 97.1908 19.1771 97.1159 19.0935C96.8844 18.8377 96.9412 18.2292 97.02 17.3868C97.0776 16.768 97.1435 16.0674 97.1162 15.324C97.0642 13.8947 96.2819 13.0364 95.0249 13.0271C93.427 13.0266 92.3916 14.7284 91.9146 15.7427L91.7722 16.045L91.7408 15.7115C91.6216 14.4564 91.2004 12.9572 89.8704 12.9473C88.3189 12.9473 87.137 14.7677 86.416 16.2957L86.2227 16.7051L86.2419 16.253C86.3274 14.2153 86.3977 13.0121 86.451 12.6784C86.5034 12.3435 86.4758 12.1189 86.3662 11.9901C86.2624 11.8696 86.0666 11.825 85.7796 11.8431C85.283 11.8745 85.0291 12.1768 84.6467 13.1901C84.0186 14.8541 82.4209 18.7256 81.1453 18.7256C80.8922 18.7237 80.6918 18.6376 80.545 18.4689C80.0101 17.8558 80.2241 16.1978 80.5202 13.9037L80.5426 13.7302C80.6828 12.6439 80.4439 12.4121 79.8538 12.3036C79.7946 12.2925 79.7346 12.2867 79.6745 12.2861C79.2032 12.2861 78.9829 12.7374 78.5429 13.9915C77.7598 16.223 76.7525 18.5698 75.575 18.5698C75.5318 18.5698 75.4894 18.5665 75.446 18.5597C74.822 18.4533 74.8356 17.5278 74.8529 16.355C74.8616 15.7208 74.8723 15.0017 74.7747 14.3525C74.5987 13.1876 73.9126 12.4603 72.983 12.4529C71.1287 12.4529 69.8782 14.8276 69.2965 16.2435L69.1648 16.5638L69.1208 16.2199C69.0065 15.3111 68.9315 14.3978 68.8958 13.4825L68.8942 13.4484L68.9152 13.4216C72.3857 9.05289 73.9432 5.90027 73.964 3.1992C73.9774 1.47365 73.1812 0.437174 71.8344 0.426514C70.8496 0.426514 68.5082 1.24679 67.6945 8.84434C67.5425 10.2706 67.4604 11.7035 67.4485 13.1378L67.448 13.1663L67.4319 13.1892C65.8441 15.4874 62.4553 19.4406 59.1375 19.4406C56.1399 19.4406 53.7482 17.0153 53.7482 12.7344C53.7482 6.99552 57.8102 3.47199 60.8672 3.47199H60.8926C61.5568 3.47691 62.1264 3.6625 62.5397 4.00854C62.9689 4.3677 63.1938 4.87117 63.1892 5.46431C63.1832 6.2567 62.9249 6.66396 62.6753 7.05729C62.6116 7.1587 62.5474 7.25928 62.4889 7.36588C62.4298 7.47357 62.376 7.62965 62.4544 7.76331C62.5348 7.90025 62.7401 7.98635 62.9902 7.98826C63.7178 7.98826 64.8182 6.93484 64.8303 5.34787C64.8428 3.68683 63.4436 1.97522 60.9473 1.97522C57.1695 1.97522 52.0814 6.1255 52.0814 12.8517C52.0814 17.6096 55.0646 20.898 59.1056 20.898C61.9731 20.898 64.8098 18.8448 67.322 15.4153L67.4759 15.2075L67.4868 15.4655C67.5401 16.721 67.6311 17.7099 67.6975 18.4323C67.7404 18.8967 67.7716 19.2321 67.7705 19.4171C67.7672 19.8225 67.8331 20.1045 67.9733 20.2773C68.113 20.4503 68.3349 20.532 68.6717 20.5342C69.2359 20.5342 69.349 20.1496 69.5723 19.2006L69.6366 18.9298C69.9143 17.7799 70.9398 14.0264 72.4822 14.0264C72.7342 14.0289 72.9286 14.1033 73.0666 14.2495C73.4072 14.6108 73.37 15.3524 73.3268 16.2115C73.2995 16.7475 73.2722 17.301 73.3257 17.8403C73.4709 19.296 74.0995 20.0081 75.2473 20.0163C76.4259 20.0168 77.6559 18.7472 78.3051 17.5675L78.4275 17.3453L78.4753 17.5951C78.5951 18.2265 79.1308 20.2989 80.8083 20.2989C82.3285 20.2989 83.6329 18.698 85.0624 15.403L85.2496 14.9727L85.2382 15.442C85.2078 16.6906 85.1403 18.2153 85.1398 19.3942C85.1392 20.306 85.2313 20.6539 85.6528 20.6539L85.7485 20.6583C86.1527 20.6583 86.4272 20.417 86.5641 19.9397C87.64 16.1904 88.5696 14.4444 89.4907 14.4444C90.3927 14.4512 90.4772 16.1005 90.5496 19.0148L90.5545 19.2192C90.5764 20.2385 90.6133 20.6895 91.2463 20.6941C91.7268 20.6941 91.8463 20.3167 92.0947 19.3873C92.1423 19.2102 92.1937 19.0159 92.2546 18.8059C93.1233 15.7925 93.8433 14.563 94.7398 14.563C95.5073 14.5687 95.55 15.36 95.5642 15.62C95.5937 16.1768 95.5363 16.7598 95.4811 17.3226C95.4294 17.8457 95.3764 18.3869 95.3963 18.8896C95.4434 20.0682 96.0884 20.7223 97.2135 20.7308C98.6736 20.7308 99.9916 19.023 101.146 15.6561L101.226 15.4215L101.318 15.6525C101.527 16.1817 101.8 16.8981 102.052 17.7528L102.062 17.7853L102.048 17.8162C100.93 20.2981 100.141 23.0626 100.13 24.5396C100.115 26.485 100.995 27.7491 102.373 27.7598H102.396C103.146 27.7598 104.892 27.4588 104.926 24.6752C104.94 23.5343 104.67 21.9211 104.125 19.8796L104.063 19.6459L104.264 19.7798C104.961 20.2415 105.746 20.4883 106.534 20.4949ZM68.8999 11.0542C68.9311 10.3567 68.9899 9.67745 69.0732 9.03512C69.6139 4.89632 70.7416 2.0061 71.8172 2.0061H71.8221C72.3349 2.00993 72.5913 2.39779 72.5861 3.1582C72.5713 5.02697 71.3873 7.70235 69.0672 11.11L68.8857 11.3768L68.8999 11.0542ZM103.196 25.9336C103.025 26.1616 102.786 26.2772 102.488 26.2772C102.145 26.2742 101.888 26.155 101.713 25.9208C101.222 25.2651 101.36 23.7235 102.161 20.9254C102.257 20.5908 102.36 20.2549 102.47 19.9261L102.563 19.647L102.645 19.9293C103.578 23.1593 103.763 25.1792 103.196 25.9336ZM103.486 17.6585L103.469 17.6276L103.435 17.5202L103.451 17.4882C104.515 15.2961 105.734 14.0396 106.795 14.0396H106.806C108.003 14.0486 108.832 15.1266 108.82 16.6597C108.812 17.6831 108.361 18.2724 107.984 18.5865C107.554 18.9451 106.982 19.1501 106.413 19.1501C105.011 19.1394 104.049 18.3328 103.486 17.6585ZM106.795 14.1317V14.1303V14.1317ZM35.6352 20.1324C37.2774 20.0012 38.5801 17.7678 39.0639 16.8133L39.1886 16.5674L39.2358 16.839C39.4682 18.1811 40.1982 20.4361 42.482 20.4541H42.5011C43.4889 20.4541 44.6096 19.8498 45.7423 18.707L45.8254 18.6231L45.8858 18.7239C46.6484 19.9993 47.6712 20.6769 48.7602 20.6211C50.3633 20.5378 51.3363 19.4018 51.4219 18.6127C51.4437 18.4115 51.3907 18.2221 51.2756 18.0945C51.1316 17.9337 50.9222 17.9152 50.7686 18.0625L50.6951 18.1319C50.322 18.4902 49.6266 19.158 48.8689 19.1974C47.9412 19.2427 47.2552 18.6881 46.8118 17.5434L46.7935 17.4953L46.8247 17.4549C49.3757 14.1183 51.1658 9.0272 50.9889 5.61245C50.9075 4.03204 50.448 2.14796 48.7219 2.14796L48.5931 2.15124C47.932 2.18541 47.3306 2.50056 46.8061 3.08741C45.2046 4.8791 44.3666 9.28905 44.6708 14.3225C44.7337 15.3682 44.9154 16.3457 45.2104 17.2266L45.227 17.2761L45.1934 17.316C44.2469 18.4222 43.3129 19.0314 42.5634 19.0314C40.7602 19.0314 40.8209 16.0078 40.9633 13.5008C40.9942 12.9602 41.0398 12.6158 40.8799 12.4201C40.7657 12.2799 40.5744 12.2107 40.2956 12.2085L40.263 12.2082C39.6212 12.2082 39.487 12.3403 39.1588 13.2926C38.4757 15.2709 37.1273 18.5911 35.7711 18.5911C35.3952 18.5876 35.1082 18.4594 34.9117 18.209C34.2538 17.3693 34.7534 15.275 35.1547 13.5916C35.2269 13.289 35.296 12.9984 35.3553 12.7295C35.4431 12.3304 35.4163 12.0393 35.2752 11.863C35.1336 11.6873 34.8513 11.6162 34.4787 11.6457C33.8979 11.6922 33.5264 11.9355 33.3469 13.04L33.3108 13.2696L33.1758 13.1061C32.9221 12.7317 32.4276 12.2856 31.5095 12.2856C31.4292 12.2856 31.3458 12.2889 31.2597 12.2957C30.2801 12.3761 29.1646 13.0586 28.3481 14.0773C27.395 15.2666 26.9396 16.7718 27.0665 18.3164C27.073 18.3981 27.0848 18.4766 27.0965 18.5545L27.1031 18.5974L27.0736 18.6299C26.5034 19.2509 25.9223 19.5664 25.3467 19.5664C24.4581 19.5598 23.9483 18.8994 23.9483 17.7993C23.9483 15.9477 25.2032 10.3654 25.2032 8.34469C25.2032 6.1941 24.2449 5.02342 22.5808 5.01057H22.5557C20.1257 5.01057 18.2321 7.76768 16.4199 13.4404C16.2477 13.985 16.0806 14.5311 15.9186 15.0788L15.6641 15.9319L15.7393 15.0452C15.9032 13.1436 16.0177 11.2381 16.0828 9.3306C16.173 6.58907 15.8027 4.82471 14.9496 3.93692C14.4896 3.45805 13.8811 3.22216 13.0885 3.21615H13.0682C10.0949 3.21615 8.67057 8.23071 7.63327 11.769C7.3203 12.8372 6.70339 15.2466 6.29148 16.8937L6.53556 16.4971C6.71842 14.4231 7.24842 9.22782 7.2137 6.40922C7.17598 3.38561 6.16957 2.03016 3.94873 2.01321H3.9214C2.73513 2.01321 1.91212 2.60279 1.43078 3.09725C0.657794 3.891 0.17618 5.05103 0.202967 6.05279C0.219367 6.66178 0.593014 7.20379 0.876188 7.20379C1.06069 7.20379 1.16291 6.95752 1.20719 6.81074C1.89436 4.53962 2.78351 3.43536 3.92441 3.43536C4.39755 3.43891 4.74987 3.57831 5.01337 3.86176C5.90498 4.81815 5.74262 7.40059 5.44879 12.0891C5.35367 13.6001 5.24652 15.3119 5.15605 17.2594C5.14026 17.5808 5.12149 17.9019 5.09974 18.2229C5.01309 19.5751 4.94421 20.6438 5.45726 20.7234C6.12474 20.8275 6.55907 20.5564 6.78156 19.896C7.1112 18.9158 7.85057 16.2369 9.2812 11.3418C10.6539 6.64428 11.6909 4.93513 13.0177 4.93513C14.5505 4.93513 14.6648 7.56705 14.3838 13.1212C14.3239 14.2987 14.2438 15.6323 14.1823 17.0834C14.1739 17.2873 14.1643 17.4852 14.1545 17.6754C14.0954 18.8773 14.049 19.8249 14.3923 20.1885C14.4994 20.3016 14.6448 20.3577 14.8375 20.3587C15.502 20.3587 15.7018 19.7763 16.0328 18.8106C16.0913 18.6403 16.1534 18.4583 16.2225 18.268C18.4994 11.9871 20.1828 6.53768 22.4425 6.53768C23.1201 6.53768 23.6476 7.08818 23.6476 8.16183C23.6476 10.6401 22.4357 15.4286 22.4357 17.8569C22.4357 18.7269 22.686 19.5076 23.1589 20.0564C23.6443 20.6201 24.3236 20.9202 25.1231 20.927H25.1406C25.8966 20.927 26.6841 20.5596 27.4822 19.8353L27.5571 19.7675L27.6172 19.8487C28.1429 20.555 28.9907 20.9347 29.9064 20.8641C31.3108 20.7548 32.4891 19.5043 32.9276 18.3252L33.0134 18.0945L33.0989 18.3252C33.4248 19.2001 34.1294 20.2546 35.6352 20.1324ZM48.5759 3.72099L48.6 3.72044C48.7604 3.72044 48.9015 3.8008 49.0185 3.95988C49.5761 4.71374 49.5845 7.46537 48.6254 10.5961C48.0774 12.3854 47.3402 14.0756 46.4945 15.4836L46.3595 15.7077L46.325 15.4483C46.2255 14.6912 46.1763 13.9029 46.1419 13.2321C45.8973 8.49994 47.3287 3.78577 48.5759 3.72099ZM32.9937 14.7808C32.5023 16.7584 31.5598 19.1457 29.8605 19.2824L29.7222 19.2881C29.0173 19.2881 28.622 18.8267 28.5474 17.916C28.4539 16.7767 28.9451 15.4426 29.7984 14.5163C30.3416 13.9264 30.9544 13.6017 31.5237 13.6017H31.5352C32.2538 13.6072 32.7576 14.1842 32.9891 14.7224L33.0014 14.7502L32.9937 14.7808ZM40.8753 7.5307C40.248 7.5307 39.7415 8.02489 39.7366 8.6325C39.7317 9.2445 40.2351 9.74634 40.8583 9.75098L40.8674 9.842V9.75098C41.4856 9.75098 41.9919 9.25707 41.9968 8.64972C42.0017 8.03746 41.4985 7.53562 40.8753 7.5307ZM80.3154 7.5307C79.6881 7.5307 79.1819 8.02489 79.1767 8.6325C79.1718 9.2445 79.675 9.74634 80.2985 9.75098L80.3072 9.842V9.75098C80.9261 9.75098 81.4323 9.25707 81.4372 8.64972C81.4416 8.03746 80.9386 7.53562 80.3154 7.5307Z" fill="#010101"/>
</svg>
