<svg width="70" height="70" viewBox="0 0 70 70" fill="none" xmlns="http://www.w3.org/2000/svg">
<g clip-path="url(#clip0)">
<path d="M39.4676 36.1169C40.0845 36.1169 40.5846 35.6168 40.5846 34.9999C40.5846 34.383 40.0845 33.8829 39.4676 33.8829C38.8507 33.8829 38.3506 34.383 38.3506 34.9999C38.3506 35.6168 38.8507 36.1169 39.4676 36.1169Z" fill="#01BFFF"/>
<path d="M35 36.1169C35.6169 36.1169 36.117 35.6168 36.117 34.9999C36.117 34.383 35.6169 33.8829 35 33.8829C34.3831 33.8829 33.8831 34.383 33.8831 34.9999C33.8831 35.6168 34.3831 36.1169 35 36.1169Z" fill="#01BFFF"/>
<path d="M30.5323 36.1169C31.1492 36.1169 31.6493 35.6168 31.6493 34.9999C31.6493 34.383 31.1492 33.8829 30.5323 33.8829C29.9154 33.8829 29.4153 34.383 29.4153 34.9999C29.4153 35.6168 29.9154 36.1169 30.5323 36.1169Z" fill="#01BFFF"/>
<path d="M35 0C34.383 0 33.8831 0.500117 33.8831 1.11699V16.0106C33.8831 16.6275 34.383 17.1276 35 17.1276C35.6171 17.1276 36.117 16.6275 36.117 16.0106V1.11699C36.117 0.500117 35.6171 0 35 0Z" fill="#01BFFF"/>
<path d="M26.4725 17.9963L19.0257 5.09795C18.7174 4.56365 18.034 4.38072 17.4998 4.68916C16.9655 4.9976 16.7826 5.68078 17.091 6.21508L24.5378 19.1134C24.7447 19.4717 25.1201 19.672 25.5062 19.672C25.6957 19.672 25.8879 19.6238 26.0636 19.5222C26.5979 19.2136 26.781 18.5304 26.4725 17.9963Z" fill="#01BFFF"/>
<path d="M19.1133 24.5379L6.21502 17.0911C5.68031 16.7824 4.99727 16.9657 4.6891 17.4999C4.38066 18.0342 4.56387 18.7172 5.09789 19.0258L17.9962 26.4726C18.1723 26.5742 18.3643 26.6224 18.5536 26.6224C18.9397 26.6224 19.3151 26.422 19.522 26.0638C19.8306 25.5295 19.6476 24.8463 19.1133 24.5379Z" fill="#01BFFF"/>
<path d="M52.4997 4.68907C51.965 4.3805 51.2821 4.5637 50.9738 5.09786L43.527 17.9962C43.2186 18.5305 43.4017 19.2135 43.9358 19.5221C44.1119 19.6237 44.3039 19.672 44.4934 19.672C44.8794 19.672 45.2549 19.4715 45.4617 19.1133L52.9085 6.21499C53.217 5.68069 53.034 4.99765 52.4997 4.68907Z" fill="#01BFFF"/>
<path d="M65.3115 17.4999C65.0032 16.9655 64.3197 16.7825 63.7856 17.0911L50.8873 24.5379C50.353 24.8463 50.17 25.5295 50.4785 26.0638C50.6853 26.4222 51.0608 26.6225 51.4468 26.6225C51.6363 26.6225 51.8286 26.5742 52.0044 26.4726L64.9027 19.0258C65.4369 18.7172 65.6199 18.0342 65.3115 17.4999Z" fill="#01BFFF"/>
<path d="M16.0106 33.8829H1.11699C0.49998 33.8829 0 34.383 0 34.9999C0 35.6168 0.49998 36.1169 1.11699 36.1169H16.0106C16.6276 36.1169 17.1276 35.6168 17.1276 34.9999C17.1276 34.383 16.6277 33.8829 16.0106 33.8829Z" fill="#01BFFF"/>
<path d="M19.5219 43.9362C19.2136 43.4019 18.5302 43.219 17.996 43.5274L5.09771 50.9742C4.56341 51.2826 4.38048 51.9658 4.68892 52.5001C4.89577 52.8585 5.2712 53.0588 5.6573 53.0588C5.84679 53.0588 6.03902 53.0105 6.21484 52.9089L19.1132 45.4621C19.6475 45.1535 19.8304 44.4704 19.5219 43.9362Z" fill="#01BFFF"/>
<path d="M26.063 50.4779C25.5284 50.1692 24.8453 50.3526 24.537 50.8867L17.0903 63.7851C16.7818 64.3194 16.9649 65.0024 17.499 65.311C17.6751 65.4126 17.8671 65.4608 18.0566 65.4608C18.4427 65.4608 18.8181 65.2604 19.025 64.9022L26.4718 52.0039C26.7803 51.4696 26.5973 50.7864 26.063 50.4779Z" fill="#01BFFF"/>
<path d="M35 52.8723C34.383 52.8723 33.8831 53.3724 33.8831 53.9893V68.883C33.8831 69.4999 34.383 70 35 70C35.6171 70 36.117 69.4999 36.117 68.883V53.9894C36.117 53.3724 35.6171 52.8723 35 52.8723Z" fill="#01BFFF"/>
<path d="M52.9083 63.785L45.4615 50.8867C45.1532 50.3524 44.4696 50.1693 43.9356 50.4779C43.4013 50.7864 43.2184 51.4695 43.5268 52.0038L50.9736 64.9022C51.1805 65.2605 51.5559 65.4608 51.942 65.4608C52.1315 65.4608 52.3237 65.4125 52.4995 65.3109C53.0338 65.0024 53.2168 64.3193 52.9083 63.785Z" fill="#01BFFF"/>
<path d="M64.9019 50.9741L52.0036 43.5273C51.4689 43.2188 50.7859 43.402 50.4777 43.9361C50.1693 44.4704 50.3523 45.1535 50.8865 45.462L63.7848 52.9088C63.9609 53.0104 64.1528 53.0587 64.3423 53.0587C64.7284 53.0587 65.1039 52.8582 65.3107 52.5C65.6193 51.9657 65.4361 51.2827 64.9019 50.9741Z" fill="#01BFFF"/>
<path d="M68.8824 33.8829H53.9888C53.3718 33.8829 52.8718 34.383 52.8718 34.9999C52.8718 35.6168 53.3718 36.1169 53.9888 36.1169H68.8824C69.4994 36.1169 69.9994 35.6168 69.9994 34.9999C69.9994 34.383 69.4994 33.8829 68.8824 33.8829Z" fill="#01BFFF"/>
</g>
<defs>
<clipPath id="clip0">
<rect width="70" height="70" fill="white"/>
</clipPath>
</defs>
</svg>
