<svg xmlns="http://www.w3.org/2000/svg" width="188.2" height="118.827" viewBox="0 0 188.2 118.827">
  <g id="Group_617" data-name="Group 617" transform="translate(-45.001 -323.393)">
    <g id="Group_616" data-name="Group 616">
      <path id="Path_179" data-name="Path 179" d="M183.341,375.788l6.175,18.527s3.295,12.385,4.464,13.643c1.864,2,2.469,1.535,3.074,1.564.526.023,3.277-1.678,1.029-3.834-.564-.543-1.074-.446-1.677-2.646s-7.7-28.832-7.7-28.832Z" fill="#ea463d"/>
      <path id="Path_180" data-name="Path 180" d="M193.339,377.991l-.691.188-2.66-9.825.967-.189Z" fill="#231f20"/>
      <path id="Path_181" data-name="Path 181" d="M192.323,376.978s2.227-.825,2.6.262-.268,1.882-.094,1.994a7.994,7.994,0,0,1,1.651.974c.227.321-.288,1.744-1.55,2.2s-1.344-2.047-1.344-2.047l-.988.217S191.658,377.98,192.323,376.978Z" fill="#231f20"/>
      <g id="Group_609" data-name="Group 609">
        <g id="Group_607" data-name="Group 607">
          <path id="Path_182" data-name="Path 182" d="M199.4,368.288a36.912,36.912,0,1,0,33.665,39.9A36.911,36.911,0,0,0,199.4,368.288Zm-5.72,67.537a30.867,30.867,0,1,1,33.362-28.15A30.865,30.865,0,0,1,193.682,435.825Z" fill="#b5abaa"/>
          <g id="Group_606" data-name="Group 606">
            <line id="Line_2" data-name="Line 2" x1="5.35" y2="30.71" transform="translate(197.477 374.58)" fill="none" stroke="#b5abaa" stroke-miterlimit="10" stroke-width="0.478"/>
            <line id="Line_3" data-name="Line 3" x1="2.341" y2="30.896" transform="translate(194.798 373.805)" fill="none" stroke="#b5abaa" stroke-miterlimit="10" stroke-width="0.478"/>
            <line id="Line_4" data-name="Line 4" x1="10.185" y2="29.647" transform="translate(198.828 376.638)" fill="none" stroke="#b5abaa" stroke-miterlimit="10" stroke-width="0.478"/>
            <line id="Line_5" data-name="Line 5" x1="25.848" y2="17.774" transform="translate(196.796 388.453)" fill="none" stroke="#b5abaa" stroke-miterlimit="10" stroke-width="0.478"/>
            <line id="Line_6" data-name="Line 6" x1="26.711" y2="13.72" transform="translate(198.775 393.73)" fill="none" stroke="#b5abaa" stroke-miterlimit="10" stroke-width="0.478"/>
            <line id="Line_7" data-name="Line 7" x1="24.093" y1="19.551" transform="translate(197.423 403.488)" fill="none" stroke="#b5abaa" stroke-miterlimit="10" stroke-width="0.478"/>
            <line id="Line_8" data-name="Line 8" x1="19.625" y1="23.296" transform="translate(198.091 404.375)" fill="none" stroke="#b5abaa" stroke-miterlimit="10" stroke-width="0.478"/>
            <line id="Line_9" data-name="Line 9" x1="31.261" y1="1.787" transform="translate(196.206 403.982)" fill="none" stroke="#b5abaa" stroke-miterlimit="10" stroke-width="0.478"/>
            <line id="Line_10" data-name="Line 10" x1="27.888" y1="9.341" transform="translate(197.014 408.309)" fill="none" stroke="#b5abaa" stroke-miterlimit="10" stroke-width="0.478"/>
            <line id="Line_11" data-name="Line 11" x1="27.968" y1="4.474" transform="translate(198.748 407.228)" fill="none" stroke="#b5abaa" stroke-miterlimit="10" stroke-width="0.478"/>
            <line id="Line_12" data-name="Line 12" x1="31.287" y2="2.797" transform="translate(195.644 399.867)" fill="none" stroke="#b5abaa" stroke-miterlimit="10" stroke-width="0.478"/>
            <line id="Line_13" data-name="Line 13" x1="22.815" y2="19.93" transform="translate(196.226 383.819)" fill="none" stroke="#b5abaa" stroke-miterlimit="10" stroke-width="0.478"/>
            <line id="Line_14" data-name="Line 14" x1="19.986" y2="22.916" transform="translate(194.509 379.893)" fill="none" stroke="#b5abaa" stroke-miterlimit="10" stroke-width="0.478"/>
            <line id="Line_15" data-name="Line 15" x1="18.377" y1="24.517" transform="translate(194.818 406.897)" fill="none" stroke="#b5abaa" stroke-miterlimit="10" stroke-width="0.478"/>
            <line id="Line_16" data-name="Line 16" x1="12.638" y1="27.494" transform="translate(194.846 406.588)" fill="none" stroke="#b5abaa" stroke-miterlimit="10" stroke-width="0.478"/>
            <line id="Line_17" data-name="Line 17" x1="3.488" y1="29.152" transform="translate(197.882 406.844)" fill="none" stroke="#b5abaa" stroke-miterlimit="10" stroke-width="0.478"/>
            <line id="Line_18" data-name="Line 18" y1="29.271" x2="3.805" transform="translate(195.015 406.925)" fill="none" stroke="#b5abaa" stroke-miterlimit="10" stroke-width="0.478"/>
            <line id="Line_19" data-name="Line 19" y1="27.457" x2="11.097" transform="translate(183.568 406.262)" fill="none" stroke="#b5abaa" stroke-miterlimit="10" stroke-width="0.478"/>
            <line id="Line_20" data-name="Line 20" y1="30.063" x2="3.909" transform="translate(189.42 405.55)" fill="none" stroke="#b5abaa" stroke-miterlimit="10" stroke-width="0.478"/>
            <line id="Line_21" data-name="Line 21" y1="22.878" x2="17.732" transform="translate(178.171 407.575)" fill="none" stroke="#b5abaa" stroke-miterlimit="10" stroke-width="0.478"/>
            <line id="Line_22" data-name="Line 22" y1="18.141" x2="23.301" transform="translate(173.712 408.309)" fill="none" stroke="#b5abaa" stroke-miterlimit="10" stroke-width="0.478"/>
            <line id="Line_23" data-name="Line 23" y1="17.766" x2="22.819" transform="translate(170.158 404.165)" fill="none" stroke="#b5abaa" stroke-miterlimit="10" stroke-width="0.478"/>
            <line id="Line_24" data-name="Line 24" x1="30.754" y1="3.293" transform="translate(165.113 404.685)" fill="none" stroke="#b5abaa" stroke-miterlimit="10" stroke-width="0.478"/>
            <line id="Line_25" data-name="Line 25" x1="29.829" y1="3.633" transform="translate(165.815 399.031)" fill="none" stroke="#b5abaa" stroke-miterlimit="10" stroke-width="0.478"/>
            <line id="Line_26" data-name="Line 26" x1="26.519" y1="9.575" transform="translate(167.545 393.196)" fill="none" stroke="#b5abaa" stroke-miterlimit="10" stroke-width="0.478"/>
            <line id="Line_27" data-name="Line 27" x1="25.091" y1="19.896" transform="translate(170.546 387.735)" fill="none" stroke="#b5abaa" stroke-miterlimit="10" stroke-width="0.478"/>
            <line id="Line_28" data-name="Line 28" y1="11.339" x2="26.39" transform="translate(167.279 405.191)" fill="none" stroke="#b5abaa" stroke-miterlimit="10" stroke-width="0.478"/>
            <line id="Line_29" data-name="Line 29" y1="3.83" x2="28.741" transform="translate(165.683 406.863)" fill="none" stroke="#b5abaa" stroke-miterlimit="10" stroke-width="0.478"/>
            <line id="Line_30" data-name="Line 30" x1="18.546" y1="21.497" transform="translate(174.57 383.061)" fill="none" stroke="#b5abaa" stroke-miterlimit="10" stroke-width="0.478"/>
            <line id="Line_31" data-name="Line 31" x1="16.451" y1="22.35" transform="translate(179.254 379.089)" fill="none" stroke="#b5abaa" stroke-miterlimit="10" stroke-width="0.478"/>
            <line id="Line_32" data-name="Line 32" x1="13.819" y1="27.551" transform="translate(184.252 376.355)" fill="none" stroke="#b5abaa" stroke-miterlimit="10" stroke-width="0.478"/>
            <line id="Line_33" data-name="Line 33" x1="2.666" y1="30.748" transform="translate(191.003 374.443)" fill="none" stroke="#b5abaa" stroke-miterlimit="10" stroke-width="0.478"/>
          </g>
          <path id="Path_183" data-name="Path 183" d="M199.4,368.288a36.912,36.912,0,1,0,33.665,39.9A36.911,36.911,0,0,0,199.4,368.288Zm-5.792,68.394a31.727,31.727,0,1,1,34.29-28.935A31.728,31.728,0,0,1,193.61,436.682Z" fill="#e7f2f1"/>
          <path id="Path_184" data-name="Path 184" d="M199.4,368.288a36.912,36.912,0,1,0,33.665,39.9A36.911,36.911,0,0,0,199.4,368.288Zm-5.9,69.685a33.022,33.022,0,1,1,35.692-30.118A33.023,33.023,0,0,1,193.5,437.973Z" fill="#323232"/>
        </g>
        <g id="Group_608" data-name="Group 608">
          <path id="Path_185" data-name="Path 185" d="M199.542,373.831l-.03.663,1.116.078.109-.629Z" fill="#323232"/>
          <path id="Path_186" data-name="Path 186" d="M200.061,376.566l-.465-.032.155-2.2.565.042Z" fill="#323232"/>
          <path id="Path_187" data-name="Path 187" d="M199.451,376.222a5.474,5.474,0,0,1,.856.093L200,377.661s-.057.284-.237.274a.279.279,0,0,1-.307-.29C199.439,377.438,199.451,376.222,199.451,376.222Z" fill="#323232"/>
        </g>
      </g>
      <g id="Group_611" data-name="Group 611">
        <path id="Path_188" data-name="Path 188" d="M85.031,365.353a36.912,36.912,0,1,0,33.663,39.9A36.912,36.912,0,0,0,85.031,365.353ZM79.31,432.89a30.867,30.867,0,1,1,33.361-28.152A30.867,30.867,0,0,1,79.31,432.89Z" fill="#b5abaa"/>
        <g id="Group_610" data-name="Group 610">
          <line id="Line_34" data-name="Line 34" x1="5.35" y2="30.71" transform="translate(83.105 371.644)" fill="none" stroke="#b5abaa" stroke-miterlimit="10" stroke-width="0.478"/>
          <line id="Line_35" data-name="Line 35" x1="2.342" y2="30.896" transform="translate(80.425 370.868)" fill="none" stroke="#b5abaa" stroke-miterlimit="10" stroke-width="0.478"/>
          <line id="Line_36" data-name="Line 36" x1="10.185" y2="29.649" transform="translate(84.455 373.701)" fill="none" stroke="#b5abaa" stroke-miterlimit="10" stroke-width="0.478"/>
          <line id="Line_37" data-name="Line 37" x1="25.848" y2="17.771" transform="translate(82.423 385.519)" fill="none" stroke="#b5abaa" stroke-miterlimit="10" stroke-width="0.478"/>
          <line id="Line_38" data-name="Line 38" x1="26.71" y2="13.718" transform="translate(84.403 390.797)" fill="none" stroke="#b5abaa" stroke-miterlimit="10" stroke-width="0.478"/>
          <line id="Line_39" data-name="Line 39" x1="24.093" y1="19.551" transform="translate(83.05 400.554)" fill="none" stroke="#b5abaa" stroke-miterlimit="10" stroke-width="0.478"/>
          <line id="Line_40" data-name="Line 40" x1="19.625" y1="23.299" transform="translate(83.718 401.439)" fill="none" stroke="#b5abaa" stroke-miterlimit="10" stroke-width="0.478"/>
          <line id="Line_41" data-name="Line 41" x1="31.261" y1="1.788" transform="translate(81.834 401.046)" fill="none" stroke="#b5abaa" stroke-miterlimit="10" stroke-width="0.478"/>
          <line id="Line_42" data-name="Line 42" x1="27.887" y1="9.339" transform="translate(82.642 405.374)" fill="none" stroke="#b5abaa" stroke-miterlimit="10" stroke-width="0.478"/>
          <line id="Line_43" data-name="Line 43" x1="27.968" y1="4.474" transform="translate(84.375 404.294)" fill="none" stroke="#b5abaa" stroke-miterlimit="10" stroke-width="0.478"/>
          <line id="Line_44" data-name="Line 44" x1="31.285" y2="2.799" transform="translate(81.272 396.931)" fill="none" stroke="#b5abaa" stroke-miterlimit="10" stroke-width="0.478"/>
          <line id="Line_45" data-name="Line 45" x1="22.815" y2="19.932" transform="translate(81.854 380.883)" fill="none" stroke="#b5abaa" stroke-miterlimit="10" stroke-width="0.478"/>
          <line id="Line_46" data-name="Line 46" x1="19.987" y2="22.918" transform="translate(80.136 376.957)" fill="none" stroke="#b5abaa" stroke-miterlimit="10" stroke-width="0.478"/>
          <line id="Line_47" data-name="Line 47" x1="18.377" y1="24.52" transform="translate(80.447 403.96)" fill="none" stroke="#b5abaa" stroke-miterlimit="10" stroke-width="0.478"/>
          <line id="Line_48" data-name="Line 48" x1="12.638" y1="27.495" transform="translate(80.473 403.651)" fill="none" stroke="#b5abaa" stroke-miterlimit="10" stroke-width="0.478"/>
          <line id="Line_49" data-name="Line 49" x1="3.489" y1="29.15" transform="translate(83.509 403.91)" fill="none" stroke="#b5abaa" stroke-miterlimit="10" stroke-width="0.478"/>
          <line id="Line_50" data-name="Line 50" y1="29.272" x2="3.805" transform="translate(80.642 403.988)" fill="none" stroke="#b5abaa" stroke-miterlimit="10" stroke-width="0.478"/>
          <line id="Line_51" data-name="Line 51" y1="27.456" x2="11.097" transform="translate(69.196 403.326)" fill="none" stroke="#b5abaa" stroke-miterlimit="10" stroke-width="0.478"/>
          <line id="Line_52" data-name="Line 52" y1="30.065" x2="3.908" transform="translate(75.047 402.613)" fill="none" stroke="#b5abaa" stroke-miterlimit="10" stroke-width="0.478"/>
          <line id="Line_53" data-name="Line 53" y1="22.88" x2="17.732" transform="translate(63.798 404.639)" fill="none" stroke="#b5abaa" stroke-miterlimit="10" stroke-width="0.478"/>
          <line id="Line_54" data-name="Line 54" y1="18.139" x2="23.3" transform="translate(59.341 405.374)" fill="none" stroke="#b5abaa" stroke-miterlimit="10" stroke-width="0.478"/>
          <line id="Line_55" data-name="Line 55" y1="17.765" x2="22.819" transform="translate(55.786 401.23)" fill="none" stroke="#b5abaa" stroke-miterlimit="10" stroke-width="0.478"/>
          <line id="Line_56" data-name="Line 56" x1="30.754" y1="3.294" transform="translate(50.741 401.749)" fill="none" stroke="#b5abaa" stroke-miterlimit="10" stroke-width="0.478"/>
          <line id="Line_57" data-name="Line 57" x1="29.83" y1="3.635" transform="translate(51.442 396.095)" fill="none" stroke="#b5abaa" stroke-miterlimit="10" stroke-width="0.478"/>
          <line id="Line_58" data-name="Line 58" x1="26.517" y1="9.575" transform="translate(53.173 390.26)" fill="none" stroke="#b5abaa" stroke-miterlimit="10" stroke-width="0.478"/>
          <line id="Line_59" data-name="Line 59" x1="25.091" y1="19.896" transform="translate(56.174 384.799)" fill="none" stroke="#b5abaa" stroke-miterlimit="10" stroke-width="0.478"/>
          <line id="Line_60" data-name="Line 60" y1="11.337" x2="26.39" transform="translate(52.907 402.257)" fill="none" stroke="#b5abaa" stroke-miterlimit="10" stroke-width="0.478"/>
          <line id="Line_61" data-name="Line 61" y1="3.83" x2="28.741" transform="translate(51.31 403.927)" fill="none" stroke="#b5abaa" stroke-miterlimit="10" stroke-width="0.478"/>
          <line id="Line_62" data-name="Line 62" x1="18.547" y1="21.497" transform="translate(60.198 380.125)" fill="none" stroke="#b5abaa" stroke-miterlimit="10" stroke-width="0.478"/>
          <line id="Line_63" data-name="Line 63" x1="16.452" y1="22.35" transform="translate(64.882 376.151)" fill="none" stroke="#b5abaa" stroke-miterlimit="10" stroke-width="0.478"/>
          <line id="Line_64" data-name="Line 64" x1="13.819" y1="27.552" transform="translate(69.879 373.42)" fill="none" stroke="#b5abaa" stroke-miterlimit="10" stroke-width="0.478"/>
          <line id="Line_65" data-name="Line 65" x1="2.665" y1="30.748" transform="translate(76.632 371.509)" fill="none" stroke="#b5abaa" stroke-miterlimit="10" stroke-width="0.478"/>
        </g>
        <path id="Path_189" data-name="Path 189" d="M85.031,365.353a36.912,36.912,0,1,0,33.663,39.9A36.912,36.912,0,0,0,85.031,365.353Zm-5.794,68.392a31.726,31.726,0,1,1,34.291-28.935A31.724,31.724,0,0,1,79.237,433.745Z" fill="#e7f2f1"/>
        <path id="Path_190" data-name="Path 190" d="M85.031,365.353a36.912,36.912,0,1,0,33.663,39.9A36.912,36.912,0,0,0,85.031,365.353Zm-5.9,69.684a33.022,33.022,0,1,1,35.692-30.116A33.022,33.022,0,0,1,79.127,435.037Z" fill="#323232"/>
      </g>
      <path id="Path_191" data-name="Path 191" d="M87.658,403.175a6.077,6.077,0,1,1-5.786-6.355A6.076,6.076,0,0,1,87.658,403.175Z" fill="#323232"/>
      <path id="Path_192" data-name="Path 192" d="M186.632,327.8s2.774.371,3.967,2.117.826,2.233.561,2.366.429,1.189.4,1.452a.4.4,0,0,1-.534.356c-.285-.09-5.477-3.832-5.477-3.832S186.091,327.984,186.632,327.8Z" fill="#231f20"/>
      <path id="Path_193" data-name="Path 193" d="M178.219,330.731l-3.738.033a2.321,2.321,0,0,0-1.323,1.719,1.911,1.911,0,0,0,.894,1.879l2.665-.03Z" fill="#414042"/>
      <path id="Path_194" data-name="Path 194" d="M179.819,330.8a1.532,1.532,0,0,0-1.205-.356c-.729.1-2.617.653-2.908,1.364a10.144,10.144,0,0,1-1.171,1.8s1.958,2.187,3.877,1.526S179.819,330.8,179.819,330.8Z" fill="#231f20"/>
      <path id="Path_195" data-name="Path 195" d="M180.091,333.767a10.165,10.165,0,0,0-1.456-.069,1.8,1.8,0,0,1-.412-1.9,1.531,1.531,0,0,1,1.322-1.007c.274.012,2.95-.044,2.95-.044S181.546,333.524,180.091,333.767Z" fill="#bbbdbf"/>
      <path id="Path_196" data-name="Path 196" d="M87.233,405.156a.33.33,0,0,1-.2-.42l.029-.08a.323.323,0,0,1,.418-.194l.048.016c.029-.107.055-.216.078-.326l-.069-.01a.329.329,0,0,1-.266-.379l.014-.084a.327.327,0,0,1,.379-.265l.05.009c.009-.113.016-.224.02-.336h-.071a.328.328,0,0,1-.328-.326v-.084a.326.326,0,0,1,.328-.327l.051,0c-.01-.11-.023-.222-.037-.331l-.071.011a.328.328,0,0,1-.38-.264l-.014-.084a.328.328,0,0,1,.265-.379l.05-.008q-.043-.164-.1-.321l-.067.024a.328.328,0,0,1-.419-.194l-.03-.081a.325.325,0,0,1,.2-.417l.048-.019c-.048-.1-.1-.2-.15-.3l-.062.036a.329.329,0,0,1-.446-.12l-.043-.073a.329.329,0,0,1,.12-.447l.044-.027c-.065-.09-.132-.18-.2-.266l-.054.045a.329.329,0,0,1-.461-.041l-.055-.064a.327.327,0,0,1,.041-.46l.039-.034c-.079-.078-.16-.155-.243-.229l-.046.053a.327.327,0,0,1-.461.041l-.065-.053a.328.328,0,0,1-.04-.461l.033-.039c-.092-.066-.184-.127-.28-.185l-.036.062a.325.325,0,0,1-.446.119l-.074-.041a.331.331,0,0,1-.119-.449l.026-.043c-.1-.047-.2-.092-.308-.133l-.025.067a.328.328,0,0,1-.418.2l-.079-.028a.328.328,0,0,1-.2-.42l.017-.046c-.107-.03-.217-.056-.325-.079l-.013.069a.328.328,0,0,1-.379.267l-.082-.015a.327.327,0,0,1-.266-.378l.008-.051c-.112-.01-.224-.017-.334-.021v.072a.328.328,0,0,1-.326.328h-.085a.329.329,0,0,1-.328-.328v-.051c-.111.01-.221.022-.332.038l.012.072a.328.328,0,0,1-.265.379l-.082.013A.326.326,0,0,1,80,397l-.008-.05c-.108.03-.216.061-.321.1l.024.067a.327.327,0,0,1-.2.419l-.078.029a.328.328,0,0,1-.42-.2l-.017-.046c-.1.046-.2.1-.3.15l.036.061a.329.329,0,0,1-.12.448l-.073.041a.328.328,0,0,1-.446-.119l-.025-.044c-.092.063-.182.131-.269.2l.045.054a.329.329,0,0,1-.039.461l-.066.054a.327.327,0,0,1-.461-.042l-.032-.036c-.079.078-.156.158-.231.242l.055.045a.327.327,0,0,1,.041.461l-.055.064a.326.326,0,0,1-.46.042l-.04-.034c-.063.092-.125.185-.185.281l.063.034a.33.33,0,0,1,.121.448l-.044.072a.327.327,0,0,1-.445.12l-.045-.026c-.047.1-.091.2-.134.309l.068.024a.326.326,0,0,1,.2.419l-.029.079a.327.327,0,0,1-.419.2l-.048-.017c-.028.107-.054.217-.077.325l.07.014a.325.325,0,0,1,.264.379l-.014.082a.328.328,0,0,1-.379.266l-.048-.01c-.011.113-.017.224-.021.335h.071a.326.326,0,0,1,.326.328v.083a.327.327,0,0,1-.326.327h-.051c.01.112.022.221.038.333l.07-.012a.328.328,0,0,1,.379.265l.015.082a.327.327,0,0,1-.265.38l-.05.008c.028.109.061.216.1.322l.068-.026a.331.331,0,0,1,.42.2l.028.079a.329.329,0,0,1-.195.42l-.049.016c.049.1.1.2.151.3l.062-.035a.324.324,0,0,1,.446.119l.043.072a.33.33,0,0,1-.12.448l-.044.025c.064.092.13.18.2.268l.055-.044a.326.326,0,0,1,.46.038l.054.066a.326.326,0,0,1-.039.461l-.039.032c.078.079.161.155.242.231l.047-.054a.325.325,0,0,1,.461-.041l.065.054a.329.329,0,0,1,.04.461l-.033.039c.09.063.184.125.279.184l.036-.061a.329.329,0,0,1,.447-.122l.073.043a.327.327,0,0,1,.12.447l-.026.044c.1.047.2.091.308.133l.024-.068a.326.326,0,0,1,.42-.193l.079.027a.327.327,0,0,1,.195.42l-.018.047q.162.042.327.078l.012-.071a.327.327,0,0,1,.378-.265l.083.015a.327.327,0,0,1,.266.379l-.008.048c.111.011.222.017.334.021v-.071a.325.325,0,0,1,.326-.326H81.8a.326.326,0,0,1,.328.326v.052c.112-.01.223-.022.333-.039l-.012-.071a.327.327,0,0,1,.264-.379l.084-.014a.325.325,0,0,1,.378.265l.01.05c.107-.028.214-.06.32-.1l-.024-.067a.328.328,0,0,1,.195-.419l.08-.028a.328.328,0,0,1,.419.194l.017.048c.1-.048.2-.1.3-.15l-.036-.06a.328.328,0,0,1,.12-.448l.073-.043a.327.327,0,0,1,.446.121l.026.043c.091-.064.181-.13.269-.2l-.046-.053a.327.327,0,0,1,.04-.461l.065-.054a.326.326,0,0,1,.46.038l.033.04c.078-.078.156-.161.229-.243l-.054-.046a.328.328,0,0,1-.04-.461l.054-.063a.329.329,0,0,1,.461-.042l.039.034c.065-.092.126-.185.185-.279l-.063-.036a.329.329,0,0,1-.119-.449l.042-.072a.325.325,0,0,1,.447-.119l.044.023c.047-.1.092-.2.133-.3Z" fill="#323232"/>
      <path id="Path_197" data-name="Path 197" d="M85.593,404.5a.233.233,0,0,1-.139-.3l.021-.056a.232.232,0,0,1,.3-.138l.033.011c.02-.076.039-.153.053-.229l-.048-.01a.232.232,0,0,1-.188-.269l.01-.06a.233.233,0,0,1,.27-.187l.034.008c.007-.081.012-.16.014-.238l-.05,0a.229.229,0,0,1-.231-.231v-.06a.23.23,0,0,1,.231-.231h.037c-.007-.08-.017-.159-.028-.237l-.051.009a.23.23,0,0,1-.268-.188l-.011-.061a.233.233,0,0,1,.189-.267l.036-.006c-.021-.077-.044-.154-.068-.228l-.048.017a.232.232,0,0,1-.3-.138l-.021-.055a.234.234,0,0,1,.138-.3l.034-.012c-.034-.072-.068-.144-.107-.212l-.042.023a.231.231,0,0,1-.318-.082l-.029-.053a.233.233,0,0,1,.084-.318l.031-.016c-.044-.066-.093-.128-.142-.192l-.038.034a.232.232,0,0,1-.327-.031l-.039-.045a.232.232,0,0,1,.029-.327l.028-.023c-.056-.056-.113-.11-.174-.162l-.031.038a.234.234,0,0,1-.327.029l-.046-.039a.233.233,0,0,1-.029-.327l.024-.029c-.065-.043-.131-.088-.2-.129l-.026.043a.234.234,0,0,1-.318.086l-.051-.031a.232.232,0,0,1-.085-.317l.019-.031c-.073-.034-.146-.066-.219-.094l-.017.047a.231.231,0,0,1-.3.139L82.842,399a.234.234,0,0,1-.14-.3l.012-.034c-.076-.021-.153-.037-.231-.054l-.008.048a.232.232,0,0,1-.269.189l-.059-.009a.232.232,0,0,1-.188-.27l0-.034c-.078-.008-.158-.014-.237-.016v.05a.23.23,0,0,1-.231.232h-.06a.232.232,0,0,1-.233-.232v-.034c-.078.005-.158.015-.234.026l.008.05a.233.233,0,0,1-.189.269l-.058.011a.231.231,0,0,1-.269-.188l-.006-.036c-.077.02-.153.044-.228.067l.018.049a.233.233,0,0,1-.14.3l-.056.019a.229.229,0,0,1-.3-.137l-.013-.033c-.071.033-.142.069-.213.105l.026.044a.229.229,0,0,1-.086.316l-.05.031a.232.232,0,0,1-.317-.084l-.018-.032c-.066.046-.129.093-.191.142l.032.039a.231.231,0,0,1-.028.326l-.047.039a.231.231,0,0,1-.327-.03l-.022-.025c-.056.055-.11.111-.164.171l.039.032a.234.234,0,0,1,.028.329l-.037.044a.233.233,0,0,1-.328.029l-.027-.023c-.046.065-.089.13-.132.2l.045.026a.232.232,0,0,1,.085.317l-.03.052a.231.231,0,0,1-.316.085l-.032-.019c-.034.073-.065.145-.1.219l.049.018a.232.232,0,0,1,.138.3l-.021.056a.232.232,0,0,1-.3.139l-.033-.012c-.021.076-.039.152-.056.231l.05.009a.233.233,0,0,1,.188.269l-.01.057a.231.231,0,0,1-.269.189l-.036-.005c-.007.08-.011.158-.014.237h.05a.232.232,0,0,1,.233.231v.06a.232.232,0,0,1-.232.232h-.037c.008.079.016.159.028.235l.05-.007a.232.232,0,0,1,.269.189l.009.057a.23.23,0,0,1-.187.269l-.036.007c.02.077.044.151.069.228l.046-.019a.235.235,0,0,1,.3.141l.021.056a.232.232,0,0,1-.14.3l-.034.013c.033.072.069.142.106.213l.045-.026a.23.23,0,0,1,.317.086l.03.052a.23.23,0,0,1-.086.315l-.031.019c.046.065.093.128.143.19l.037-.031a.234.234,0,0,1,.328.027l.038.047a.232.232,0,0,1-.028.326l-.028.022c.056.056.114.112.173.166l.033-.041a.233.233,0,0,1,.326-.028l.047.038a.235.235,0,0,1,.027.327l-.023.029c.064.046.131.088.2.131l.025-.045a.231.231,0,0,1,.317-.084l.052.03a.228.228,0,0,1,.085.314l-.018.035c.07.031.143.063.218.093l.017-.048a.235.235,0,0,1,.3-.139l.056.021a.23.23,0,0,1,.138.3l-.011.033c.075.022.153.041.23.057l.009-.051a.232.232,0,0,1,.269-.187l.059.01a.233.233,0,0,1,.189.269l-.007.036c.08.007.159.01.238.014v-.05a.233.233,0,0,1,.232-.233h.06a.231.231,0,0,1,.232.231v.038c.079-.008.158-.015.236-.028l-.009-.049a.232.232,0,0,1,.188-.27l.06-.01a.231.231,0,0,1,.268.189l.006.034a2.285,2.285,0,0,0,.228-.068l-.017-.047a.233.233,0,0,1,.138-.3l.057-.021a.233.233,0,0,1,.3.141l.012.033c.072-.033.144-.069.213-.107l-.025-.044a.234.234,0,0,1,.085-.318l.051-.029a.232.232,0,0,1,.317.087l.018.03c.065-.046.129-.093.191-.144l-.033-.036a.233.233,0,0,1,.029-.327l.045-.039a.236.236,0,0,1,.328.027l.023.029c.056-.056.11-.115.163-.172l-.038-.033a.231.231,0,0,1-.029-.327l.038-.046a.234.234,0,0,1,.327-.029l.028.025c.045-.065.089-.132.131-.2l-.044-.023a.235.235,0,0,1-.086-.317l.03-.052a.233.233,0,0,1,.318-.086l.031.018c.034-.07.066-.143.1-.217Z" fill="#878885"/>
      <path id="Path_198" data-name="Path 198" d="M133.054,417.646a11.014,11.014,0,0,1-6.369,1.1c-12.1-1-47.387-10.144-47.387-10.144l-.108-.629s35.579,9.272,47.794,10.126a16.1,16.1,0,0,0,5.944-1.192Z" fill="#323232"/>
      <path id="Path_199" data-name="Path 199" d="M186.767,368.258a1.706,1.706,0,0,1,1.938-.02c.976.693,2.918,8.884,2.959,9.593s-.4,5.36-.426,5.875,5.708,19.381,5.708,19.381a6.684,6.684,0,0,0,1.794,2.55c1.751,1.324.288,3.922-1.386,3.883a5.131,5.131,0,0,1-3.347-1.907c-.909-1.37-8.563-29.544-8.563-29.544s3.875-.761,3.907-1.441S188.088,369.111,186.767,368.258Z" fill="#ff5949"/>
      <path id="Path_200" data-name="Path 200" d="M187.923,378.213l-.34.084a2.578,2.578,0,0,1-3.122-1.886L181.8,365.642a2.578,2.578,0,0,1,1.887-3.123l.339-.084a2.582,2.582,0,0,1,3.123,1.885l2.658,10.771A2.579,2.579,0,0,1,187.923,378.213Z" fill="#231f20"/>
      <path id="Path_201" data-name="Path 201" d="M184.28,364.526h0a1.942,1.942,0,0,1-2.423-1.289l-.211-.69a1.717,1.717,0,0,1,1.138-2.142l.216-.065a1.941,1.941,0,0,1,2.424,1.289l.145.474A1.939,1.939,0,0,1,184.28,364.526Z" fill="#231f20"/>
      <path id="Path_202" data-name="Path 202" d="M181.424,361.663c.006.02,2.944-.344,3.879-1.127,0,0,1.156,4.163,1.15,4.294a20.729,20.729,0,0,1-3.826,1.086c-.412-.019-1.339-2.285-1.645-2.377s-1.825.237-2.338-.58-5.623-16.909-5.623-16.909l5.177-1.617,4.565,15.98S181.131,360.637,181.424,361.663Z" fill="#ff5949"/>
      <path id="Path_203" data-name="Path 203" d="M171.869,337a.721.721,0,0,0-.67.863,19.661,19.661,0,0,0,1.1,4.07,3.875,3.875,0,0,1,.822,1.9c.014.647-.4,1.83-.034,2.434.25.409,5.122-1.39,5.2-1.521s-.073-.467-.187-.592a5.528,5.528,0,0,1-1.654-2.983c-.267-1.73-.16-1.531-.607-1.916a1.327,1.327,0,0,1-.294-1.122.607.607,0,0,0-.013-.213l-.319-1.211a.585.585,0,0,0-.715-.421C173.747,336.479,172.455,336.819,171.869,337Z" fill="#231f20"/>
      <path id="Path_204" data-name="Path 204" d="M174.7,336.435a1.984,1.984,0,0,0,1.014-.12,36.364,36.364,0,0,0,4.2-3.212c.148-.381,3.2,2.838,2.867,3.2s-1.054.225-1.775.735-4.551,2.864-4.6,3.851-1.173-.283-1.473-1.035C174.649,339.153,173.541,336.433,174.7,336.435Z" fill="#231f20"/>
      <path id="Path_205" data-name="Path 205" d="M180.358,332.573a14.64,14.64,0,0,0-.31,2.191c.009.376,2.018,1.849,2.018,1.849s2.964-.961,3.332-1.64-2.252-4.347-2.9-4.223A4.573,4.573,0,0,0,180.358,332.573Z" fill="#231f20"/>
      <path id="Path_206" data-name="Path 206" d="M176,351.568s-27.484,9.809-30.36,10.846-8.521,3.807-12.206,4.1-15.868.65-15.868.65-1.966-3.093.165-4.44c0,0,13.925.13,15.92-.216,2.464-.428,41.025-14.764,41.025-14.764A6.306,6.306,0,0,1,176,351.568Z" fill="#ff5949"/>
      <path id="Path_207" data-name="Path 207" d="M175.535,351.14,129.45,403.966s2.211,2.7,3.142,2.69c.6,0,.809-.086.974-.28,10.765-12.749,30.732-35.276,39.642-45.943.746-.894,2.444-2.883,4.444-1.411S177.215,350.6,175.535,351.14Z" fill="#ff5949"/>
      <path id="Path_208" data-name="Path 208" d="M176.077,350.6a.263.263,0,0,0-.3-.381c-12.609,3.734-27.021,10.463-39.943,14.572-5.318,1.692-12.559.63-18.772,1.135a10.494,10.494,0,0,0,.508,1.236s12.184-.357,15.868-.65,9.33-3.063,12.206-4.1c2.236-.806,21.593-7.732,29.1-10.411C174.739,352,175.133,352.247,176.077,350.6Z" fill="#ea463d"/>
      <path id="Path_209" data-name="Path 209" d="M176.884,355.85a.753.753,0,0,0-1.276-.3c-4.019,4.308-20.236,21.774-27.518,30.814-5.061,6.128-8.95,9.7-13.993,15.4a4.371,4.371,0,0,0,1.781,1.009c.6-.005.808-.087.973-.282,10.765-12.747,27.447-31.386,36.357-42.053.682-.818,2.159-2.538,3.933-1.71.686,2.043,1.326,3.926,1.478,4.169a1.109,1.109,0,0,0,.815.565A79.7,79.7,0,0,1,176.884,355.85Z" fill="#ea463d"/>
      <path id="Path_210" data-name="Path 210" d="M113.32,359.242l11.949,45.031,4.191-1.146-12.2-45Z" fill="#ff5949"/>
      <path id="Path_211" data-name="Path 211" d="M119.345,365.806h0a1.074,1.074,0,0,0-1.114,1.345c3.372,12.912,4.893,19.789,9.1,33.1l1.252-.446Z" fill="#ea463d"/>
      <path id="Path_212" data-name="Path 212" d="M111.862,359.06l.412,1.539,5.925-1.739s1.125-.283,1.186-.5-.21-1.323-.5-1.3S111.862,359.06,111.862,359.06Z" fill="#323232"/>
      <path id="Path_213" data-name="Path 213" d="M107.6,337.991l6.1,21.4,3.152-.835-5.175-17.193a17.615,17.615,0,0,1-1.636-1.851C109.688,338.942,109.874,337.356,107.6,337.991Z" fill="#323232"/>
      <path id="Path_214" data-name="Path 214" d="M115.231,337.806a21.3,21.3,0,0,1-2.6,1.929,9.132,9.132,0,0,1-2.488.521l-1.066,1.695s-2.18.246-2.679-.125a1.663,1.663,0,0,1-.8-1.335c.071-.4-3.442-.03-4.053-2.077-.006-.022-.013-.045-.019-.068C102.883,336.314,115.231,337.806,115.231,337.806Z" fill="#414042"/>
      <path id="Path_215" data-name="Path 215" d="M125.4,337.3a36.2,36.2,0,0,1-7.307.613c-3.512-.1-7.31,1.519-8.677,1.455a41.2,41.2,0,0,1-6.2-.652,59.846,59.846,0,0,1-7.045-1.934.867.867,0,0,1-.611-.933,4.131,4.131,0,0,1,.765-2.887c.787-.816,2.064-1.581,7.91-.551s7.193.993,9.762.6,9.074-.51,10.812,1.136C126.6,335.832,126.191,337.123,125.4,337.3Z" fill="#424242"/>
      <path id="Path_216" data-name="Path 216" d="M103.319,337.048a38.67,38.67,0,0,1-7.723-2.263,8,8,0,0,0-.033,1.065.869.869,0,0,0,.611.933,59.846,59.846,0,0,0,7.045,1.934,41.2,41.2,0,0,0,6.2.652c1.367.064,5.165-1.555,8.677-1.455a36.2,36.2,0,0,0,7.307-.613.851.851,0,0,0,.636-.663c-2.024.679-4.763.167-6.748.183C113.271,336.867,107.524,337.72,103.319,337.048Z" fill="#323232"/>
      <path id="Path_217" data-name="Path 217" d="M173.459,339.2l-2.04.57a1.031,1.031,0,0,1-1.272-.717h0a1.034,1.034,0,0,1,.717-1.273l2.04-.57Z" fill="#231f20"/>
      <path id="Path_218" data-name="Path 218" d="M130.489,399.255l-50.547-1.8.016-.592,50.688,1.83Z" fill="#323232"/>
      <path id="Path_219" data-name="Path 219" d="M174.316,341.484l-2.039.57a1.034,1.034,0,0,1-1.273-.717h0a1.034,1.034,0,0,1,.718-1.274l2.039-.569Z" fill="#231f20"/>
      <path id="Path_220" data-name="Path 220" d="M171.844,338.782a.632.632,0,1,1-.6-.661A.634.634,0,0,1,171.844,338.782Z" fill="#fafafa"/>
      <path id="Path_221" data-name="Path 221" d="M172.68,341.089a.632.632,0,1,1-.6-.66A.63.63,0,0,1,172.68,341.089Z" fill="#fafafa"/>
      <path id="Path_222" data-name="Path 222" d="M115.156,364.171s-36.4,37.485-36.417,37.848.026,2.741,1.181,2.381,35.94-37.041,35.94-37.041Z" fill="#ff5949"/>
      <path id="Path_223" data-name="Path 223" d="M115.554,367.689l-.084-.312a.49.49,0,0,0-.822-.217c-4.622,4.737-34.333,35.175-34.347,35.494a2.013,2.013,0,0,0,.035,1.428C84.322,400.593,113.684,369.658,115.554,367.689Z" fill="#ea463d"/>
      <path id="Path_224" data-name="Path 224" d="M123.123,405.962l-37.774-3.049s-1.327-.37-1.4-.891a2.873,2.873,0,0,1,.371-2.044s-4.548-.6-5.05,1.844,1.5,3.6,3.069,3.751,41.044,4.159,41.044,4.159S124.428,406.068,123.123,405.962Z" fill="#ff5949"/>
      <path id="Path_225" data-name="Path 225" d="M138.793,408.944a.553.553,0,0,1-.553-.551v-.144a.553.553,0,0,1,.552-.553h.088q-.025-.282-.065-.563l-.119.023a.556.556,0,0,1-.642-.45l-.024-.14a.551.551,0,0,1,.447-.639l.086-.017c-.048-.182-.1-.362-.162-.542l-.113.042a.558.558,0,0,1-.71-.331l-.048-.134a.557.557,0,0,1,.33-.71l.08-.029c-.08-.17-.164-.339-.253-.505l-.1.06a.553.553,0,0,1-.755-.2l-.072-.125a.551.551,0,0,1,.2-.754l.074-.044q-.164-.232-.339-.453l-.091.076a.551.551,0,0,1-.778-.069l-.093-.107a.557.557,0,0,1,.069-.781l.065-.054c-.133-.134-.271-.263-.411-.39l-.077.092a.553.553,0,0,1-.779.069l-.11-.092a.554.554,0,0,1-.067-.78l.056-.065q-.232-.162-.474-.313l-.061.107a.554.554,0,0,1-.754.2l-.125-.073a.553.553,0,0,1-.2-.756l.043-.074c-.17-.081-.343-.155-.519-.225l-.041.114a.554.554,0,0,1-.709.331l-.134-.048a.557.557,0,0,1-.332-.709l.03-.08c-.181-.049-.366-.092-.55-.132l-.021.118a.552.552,0,0,1-.642.448l-.139-.024a.55.55,0,0,1-.448-.64l.014-.084c-.189-.018-.378-.028-.564-.034v.12a.555.555,0,0,1-.554.554l-.141,0a.55.55,0,0,1-.553-.552v-.086c-.189.015-.375.037-.562.064l.021.12a.553.553,0,0,1-.448.64l-.141.025a.553.553,0,0,1-.641-.448l-.015-.086c-.183.05-.364.1-.543.162l.041.114a.553.553,0,0,1-.33.709l-.133.049a.553.553,0,0,1-.709-.33l-.029-.081c-.172.081-.34.165-.507.255l.06.1a.555.555,0,0,1-.2.758l-.122.071a.554.554,0,0,1-.756-.2l-.043-.073c-.154.107-.305.221-.453.337l.077.092a.553.553,0,0,1-.069.778l-.109.093a.552.552,0,0,1-.779-.069l-.055-.065c-.133.134-.263.27-.39.412l.093.076a.55.55,0,0,1,.068.778l-.092.11a.554.554,0,0,1-.779.069l-.066-.056c-.108.154-.213.312-.312.473l.1.062a.551.551,0,0,1,.2.756l-.07.121a.555.555,0,0,1-.756.2l-.075-.042c-.08.169-.155.343-.225.52l.114.041a.552.552,0,0,1,.33.708l-.049.135a.553.553,0,0,1-.709.33l-.079-.029c-.048.18-.092.365-.131.552l.117.02a.555.555,0,0,1,.45.64l-.026.139a.555.555,0,0,1-.64.451l-.084-.016c-.016.189-.028.377-.034.566h.12a.553.553,0,0,1,.554.552v.142a.554.554,0,0,1-.553.554h-.088c.017.188.039.376.066.562l.119-.022a.556.556,0,0,1,.642.451l.024.139a.553.553,0,0,1-.448.64l-.086.015c.049.183.1.364.161.543l.114-.042a.556.556,0,0,1,.71.332l.048.133a.556.556,0,0,1-.33.709l-.08.029q.119.256.253.507l.1-.06a.554.554,0,0,1,.756.2l.07.124a.552.552,0,0,1-.2.755l-.074.044c.109.154.222.306.338.453l.091-.076a.553.553,0,0,1,.78.068l.091.109a.554.554,0,0,1-.069.78l-.064.054c.133.133.27.262.411.389l.076-.091a.554.554,0,0,1,.78-.069l.109.091a.552.552,0,0,1,.068.778l-.056.068c.155.108.312.212.473.313l.061-.107a.555.555,0,0,1,.755-.2l.124.071a.555.555,0,0,1,.2.756l-.044.076c.171.079.344.155.52.225l.041-.116a.555.555,0,0,1,.71-.329l.133.048a.554.554,0,0,1,.33.709l-.028.08c.181.049.364.092.55.131l.021-.117a.554.554,0,0,1,.64-.45l.141.026a.55.55,0,0,1,.448.64l-.015.084c.19.017.378.028.566.034v-.12a.555.555,0,0,1,.553-.554h.142a.553.553,0,0,1,.553.554v.086c.189-.017.377-.038.563-.066l-.021-.119a.552.552,0,0,1,.448-.64l.14-.026a.555.555,0,0,1,.641.449l.016.086c.183-.048.364-.1.543-.162l-.043-.113a.554.554,0,0,1,.331-.709l.133-.049a.552.552,0,0,1,.709.33l.03.081c.171-.081.34-.165.506-.255l-.06-.1a.554.554,0,0,1,.2-.756l.122-.071a.553.553,0,0,1,.756.2l.042.073c.155-.107.307-.222.455-.338l-.076-.091a.553.553,0,0,1,.067-.779l.109-.092a.551.551,0,0,1,.779.068l.056.066c.132-.134.263-.271.388-.412l-.091-.076a.556.556,0,0,1-.069-.781l.092-.108a.553.553,0,0,1,.779-.068l.067.055c.107-.155.211-.311.311-.472l-.105-.062a.553.553,0,0,1-.2-.756l.071-.122a.552.552,0,0,1,.755-.2l.075.042c.08-.171.154-.345.225-.521l-.113-.041a.553.553,0,0,1-.333-.708l.05-.134a.551.551,0,0,1,.708-.33l.08.027c.049-.181.093-.363.131-.55l-.117-.02a.554.554,0,0,1-.449-.64l.025-.14a.556.556,0,0,1,.64-.45l.084.015c.016-.189.028-.377.035-.566Zm-10.652,7.629a7.971,7.971,0,1,1,8.336-7.589A7.971,7.971,0,0,1,128.141,416.573Z" fill="#323232"/>
      <path id="Path_226" data-name="Path 226" d="M198.289,406.893a1.205,1.205,0,1,1-1.147-1.261A1.207,1.207,0,0,1,198.289,406.893Z" fill="#323232"/>
      <path id="Path_227" data-name="Path 227" d="M134.16,410.875a.325.325,0,0,1-.2-.417l.029-.08a.326.326,0,0,1,.42-.2l.046.016c.028-.106.054-.215.078-.324l-.07-.014a.325.325,0,0,1-.265-.379l.015-.082a.325.325,0,0,1,.379-.264l.048.008c.011-.113.018-.224.021-.334h-.071a.327.327,0,0,1-.327-.327V408.4a.329.329,0,0,1,.327-.328h.051c-.009-.111-.022-.221-.039-.331l-.07.013a.33.33,0,0,1-.379-.268l-.015-.082a.326.326,0,0,1,.265-.378l.051-.008c-.029-.11-.061-.215-.1-.322l-.067.025a.329.329,0,0,1-.42-.2l-.028-.08a.328.328,0,0,1,.2-.419l.048-.017c-.048-.1-.1-.2-.151-.3l-.061.035a.326.326,0,0,1-.447-.118l-.042-.073a.327.327,0,0,1,.12-.447l.044-.026c-.064-.092-.131-.18-.2-.267l-.053.043a.326.326,0,0,1-.461-.038l-.054-.065a.329.329,0,0,1,.04-.462l.038-.031c-.078-.079-.159-.157-.242-.232l-.046.057a.328.328,0,0,1-.462.038l-.063-.054a.327.327,0,0,1-.041-.461l.033-.039c-.091-.063-.185-.125-.279-.184l-.036.063a.332.332,0,0,1-.448.12l-.072-.043a.327.327,0,0,1-.12-.447l.025-.044c-.1-.047-.2-.091-.306-.133l-.025.068a.327.327,0,0,1-.419.2l-.08-.029a.328.328,0,0,1-.2-.418l.018-.049c-.108-.028-.216-.054-.326-.076l-.011.069a.328.328,0,0,1-.379.265l-.084-.015a.325.325,0,0,1-.265-.379l.008-.049c-.111-.009-.222-.016-.335-.019v.07a.327.327,0,0,1-.326.328l-.084,0a.324.324,0,0,1-.327-.326v-.051c-.111.01-.223.023-.333.038l.012.071a.327.327,0,0,1-.264.379l-.084.014a.326.326,0,0,1-.379-.264l-.01-.051c-.107.029-.214.06-.32.1l.024.067a.325.325,0,0,1-.195.419l-.079.03a.327.327,0,0,1-.419-.2l-.018-.048c-.1.048-.2.1-.3.15l.035.062a.326.326,0,0,1-.12.446l-.073.043a.33.33,0,0,1-.447-.119l-.025-.045c-.091.066-.181.131-.269.2l.046.052a.328.328,0,0,1-.041.462l-.064.056a.329.329,0,0,1-.461-.041l-.033-.04c-.078.081-.154.161-.229.245l.054.044a.328.328,0,0,1,.041.462l-.054.062a.325.325,0,0,1-.461.041l-.04-.031c-.064.09-.126.183-.184.277l.062.038a.326.326,0,0,1,.119.447l-.041.072a.327.327,0,0,1-.448.119l-.043-.024c-.048.1-.092.2-.134.3l.068.028a.324.324,0,0,1,.195.417l-.028.08a.327.327,0,0,1-.42.2l-.046-.018c-.029.108-.055.216-.078.326l.068.013a.328.328,0,0,1,.268.379l-.016.082a.326.326,0,0,1-.378.265l-.05-.008c-.01.112-.017.222-.021.334h.072a.328.328,0,0,1,.327.326v.084a.328.328,0,0,1-.327.329h-.051c.009.11.022.222.038.331l.071-.012a.33.33,0,0,1,.38.267l.013.082a.326.326,0,0,1-.265.378l-.051.009c.03.109.061.215.1.321l.067-.024a.327.327,0,0,1,.42.2l.029.079a.328.328,0,0,1-.2.419l-.047.018c.047.1.1.2.15.3l.061-.035a.327.327,0,0,1,.448.119l.041.073a.326.326,0,0,1-.12.446l-.042.027c.063.091.13.179.2.267l.054-.044a.326.326,0,0,1,.461.039l.054.065a.329.329,0,0,1-.041.462l-.038.031c.079.079.16.157.244.229l.044-.054a.326.326,0,0,1,.461-.038l.065.053a.328.328,0,0,1,.041.461l-.033.039c.091.064.184.125.28.185l.035-.064a.328.328,0,0,1,.446-.119l.073.043a.326.326,0,0,1,.121.447l-.026.043c.1.047.2.092.308.133l.024-.067a.328.328,0,0,1,.419-.2l.079.03a.327.327,0,0,1,.2.418l-.017.049c.106.028.216.053.325.076l.013-.069a.327.327,0,0,1,.379-.265l.082.012a.328.328,0,0,1,.266.379l-.009.051c.112.009.224.017.334.02v-.071a.33.33,0,0,1,.328-.328h.084a.329.329,0,0,1,.327.328v.051c.111-.009.222-.022.333-.038l-.013-.07a.328.328,0,0,1,.265-.379l.084-.016a.328.328,0,0,1,.378.266l.01.051c.107-.029.215-.062.321-.1l-.026-.067a.328.328,0,0,1,.2-.419l.079-.031a.329.329,0,0,1,.42.2l.017.047c.1-.047.2-.1.3-.151l-.035-.06a.327.327,0,0,1,.119-.447l.073-.043a.333.333,0,0,1,.448.119l.024.045c.091-.065.181-.132.269-.2l-.045-.051a.33.33,0,0,1,.04-.463l.064-.055a.328.328,0,0,1,.461.041l.033.04c.079-.079.155-.161.23-.245l-.054-.044a.328.328,0,0,1-.041-.462l.054-.064a.328.328,0,0,1,.461-.041l.039.033c.064-.092.126-.183.185-.28l-.062-.036a.325.325,0,0,1-.12-.446l.042-.072a.326.326,0,0,1,.445-.121l.045.026c.048-.1.092-.2.134-.308Z" fill="#231f20"/>
      <path id="Path_228" data-name="Path 228" d="M132.534,408.8a4.024,4.024,0,1,1-3.831-4.208A4.026,4.026,0,0,1,132.534,408.8Z" fill="#404041"/>
      <g id="Group_612" data-name="Group 612">
        <path id="Path_229" data-name="Path 229" d="M125.555,407.18s-.72-1.477-1.55-1.584-.982.314-1.861.032-.75-1.41.383-2.6a6.807,6.807,0,0,1,3.2-2.078,1.035,1.035,0,0,1,.963,1.456c-.214.608-.187,2.315,1.049,2.762.636.23,2.192.179,3.232,1.5a2.91,2.91,0,0,1-.74,4.374,3.343,3.343,0,0,1-4.277-1.074A6.842,6.842,0,0,1,125.555,407.18Z" fill="#605f5f"/>
        <path id="Path_230" data-name="Path 230" d="M131.914,409.641s.857,1.4,1.694,1.429.947-.407,1.849-.21.882,1.33-.132,2.625a6.829,6.829,0,0,1-2.986,2.377,1.036,1.036,0,0,1-1.1-1.358c.155-.627-.035-2.321-1.31-2.649-.654-.169-2.2.03-3.359-1.188a3.031,3.031,0,0,1,.317-4.424,3.345,3.345,0,0,1,4.361.66A6.87,6.87,0,0,1,131.914,409.641Z" fill="#605f5f"/>
      </g>
      <g id="Group_613" data-name="Group 613">
        <path id="Path_231" data-name="Path 231" d="M129.719,405.428s1.479-.72,1.586-1.55-.316-.981-.032-1.859,1.41-.752,2.6.381a6.824,6.824,0,0,1,2.081,3.2,1.038,1.038,0,0,1-1.458.963c-.608-.213-2.313-.187-2.762,1.05-.23.636-.18,2.192-1.5,3.231a2.908,2.908,0,0,1-4.372-.739,3.343,3.343,0,0,1,1.073-4.278A6.857,6.857,0,0,1,129.719,405.428Z" fill="#605f5f"/>
        <path id="Path_232" data-name="Path 232" d="M127.26,411.786s-1.4.858-1.429,1.7.407.946.209,1.849-1.332.882-2.626-.134a6.8,6.8,0,0,1-2.376-2.986,1.036,1.036,0,0,1,1.358-1.1c.625.156,2.321-.036,2.648-1.309.169-.655-.03-2.2,1.188-3.361a3.03,3.03,0,0,1,4.423.318,3.344,3.344,0,0,1-.659,4.362A6.863,6.863,0,0,1,127.26,411.786Z" fill="#605f5f"/>
      </g>
      <path id="Path_233" data-name="Path 233" d="M83.058,402.958a1.472,1.472,0,1,1-1.4-1.539A1.47,1.47,0,0,1,83.058,402.958Z" fill="#323232"/>
      <path id="Path_234" data-name="Path 234" d="M182.136,336.189a2.279,2.279,0,0,0-.84,1.356,5.965,5.965,0,0,0-.065,1.394s.684.859.839.867a.752.752,0,0,0,.67-.132c.251-.23.413-.576.344-.743s-.4-.621-.6-.64l.078-.736s1.848.293,1.85.253,1.309-1.193,1.347-1.45-.6-.5-.483-.738a2.313,2.313,0,0,1,.673-.559s.381-.485.372-.674a13.761,13.761,0,0,0-1.681-1.614Z" fill="#231f20"/>
      <path id="Path_235" data-name="Path 235" d="M190.6,333.571a8.964,8.964,0,0,1,.371,4.568,18.655,18.655,0,0,1-10.218,13.515c-8.256,4.093-9,1.541-17.386,4.7s-23.534,9.375-27.088,10.172-21.925.74-26.007,1.451-6,1.166-6.11,1.317" fill="none" stroke="#231f20" stroke-miterlimit="10" stroke-width="0.239"/>
      <path id="Path_236" data-name="Path 236" d="M100.793,372.77l3.227-3.778,1.229.265-1.829,2.62s.659.307.472.591-1.147,1.325-1.147,1.325S100.781,373.029,100.793,372.77Z" fill="#6d6e71"/>
      <path id="Path_237" data-name="Path 237" d="M190.3,332.684a5.228,5.228,0,0,1,1.716,2.367c.286,1.254,1,7.387-3.473,14.519s-16.2,11.923-18.192,14.25l-33.594,39.246" fill="none" stroke="#231f20" stroke-miterlimit="10" stroke-width="0.239"/>
      <path id="Path_238" data-name="Path 238" d="M188.863,331.266,189.8,330s1.8,1.346,1.864,1.4c.233.185,1.521.884,2.126,1.341a.717.717,0,0,1,.179,1.145.688.688,0,0,1-1.014.316,28.85,28.85,0,0,1-3.053-2.14Z" fill="#231f20"/>
      <path id="Path_239" data-name="Path 239" d="M185.067,336.137s6.222-1.07,8.38,1.41,5.429,7.7,3.172,17.263-4.917,14.074-4.917,14.074" fill="none" stroke="#231f20" stroke-miterlimit="10" stroke-width="0.239"/>
      <path id="Path_240" data-name="Path 240" d="M192.675,368.194l-2.609.451-.22-.84,2.681-.48Z" fill="#231f20"/>
      <path id="Path_241" data-name="Path 241" d="M101.446,371.99l-5.594,6.3,1.229.994,5.742-6.075a.578.578,0,0,0-.051-.842l-.523-.438A.579.579,0,0,0,101.446,371.99Z" fill="#6d6e71"/>
      <path id="Path_242" data-name="Path 242" d="M97.226,379.378a1.214,1.214,0,1,1-1.156-1.271A1.213,1.213,0,0,1,97.226,379.378Z" fill="#6d6e71"/>
      <path id="Path_243" data-name="Path 243" d="M181.616,333.3s.184,1.745,1.61,1.694a1.868,1.868,0,0,0,1.834-1.652c.041-.276,1.5-3.964,1.5-3.964s-3.032-.781-3.174-.477S181.616,333.3,181.616,333.3Z" fill="#bbbdbf"/>
      <path id="Path_244" data-name="Path 244" d="M182.906,325.3a15.612,15.612,0,0,0,.57,4.1c.533,1.207,2,1,2.562.765s1.1-.644,1.108-1.007c.025-1.188-.279-4.137-.279-4.137Z" fill="#414042"/>
      <path id="Path_245" data-name="Path 245" d="M186.9,325.486a2,2,0,1,1-1.9-2.091A2,2,0,0,1,186.9,325.486Z" fill="#e6e7e8"/>
      <path id="Path_246" data-name="Path 246" d="M194.451,378.281l-.706.121-2.287-10.32,1.162-.2Z" fill="#231f20"/>
      <path id="Path_247" data-name="Path 247" d="M130.885,408.565a2.1,2.1,0,1,1-2-2.2A2.1,2.1,0,0,1,130.885,408.565Z" fill="#404041"/>
      <path id="Path_248" data-name="Path 248" d="M148.158,411.514l-18.5-1.082a1.894,1.894,0,0,1-1.782-1.98h0a1.9,1.9,0,0,1,2-1.8l18.5,1.08a1.9,1.9,0,0,1,1.783,1.982h0A1.9,1.9,0,0,1,148.158,411.514Z" fill="#231f20"/>
      <path id="Path_249" data-name="Path 249" d="M150.312,412.994l-4.978-.232a2,2,0,0,1-1.9-2.09h0a2,2,0,0,1,2.087-1.9l4.979.233a2,2,0,0,1,1.9,2.089h0A2,2,0,0,1,150.312,412.994Z" fill="#231f20"/>
      <path id="Path_250" data-name="Path 250" d="M151.061,412.077l-6.392-.3.08-1.779,1.847.08,0-.563-1.811-.131.022-.449,6.391.3-.022.464-2.2-.109-.019.582,2.186.121Z" fill="#d0d2d3"/>
      <path id="Path_251" data-name="Path 251" d="M151.038,413.028l-6.429-.3a1.27,1.27,0,0,1-1.209-1.33h0a1.27,1.27,0,0,1,1.329-1.209l6.428.3a1.272,1.272,0,0,1,1.21,1.328h0A1.271,1.271,0,0,1,151.038,413.028Z" fill="#404041"/>
      <g id="Group_614" data-name="Group 614">
        <path id="Path_252" data-name="Path 252" d="M109.556,387.728l-.558.358.583.955.575-.273Z" fill="#323232"/>
        <path id="Path_253" data-name="Path 253" d="M107.627,389.733l-.242-.4,1.882-1.147.294.483Z" fill="#323232"/>
        <path id="Path_254" data-name="Path 254" d="M107.556,389.037a5.68,5.68,0,0,1,.419.752l-1.277.53s-.261.117-.359-.036a.277.277,0,0,1,.059-.417C106.557,389.731,107.556,389.037,107.556,389.037Z" fill="#323232"/>
      </g>
      <path id="Path_255" data-name="Path 255" d="M148.873,411.6a.964.964,0,1,1-.953-.973A.967.967,0,0,1,148.873,411.6Z" fill="#231f20"/>
      <g id="Group_615" data-name="Group 615">
        <rect id="Rectangle_118" data-name="Rectangle 118" width="1.006" height="1.544" transform="translate(164.568 355.081) rotate(-20.161)" fill="#bbbdbf"/>
        <rect id="Rectangle_119" data-name="Rectangle 119" width="1.007" height="1.544" transform="matrix(0.939, -0.344, 0.344, 0.939, 147.804, 361.358)" fill="#bbbdbf"/>
        <rect id="Rectangle_120" data-name="Rectangle 120" width="1.007" height="1.545" transform="translate(131.026 366.316) rotate(-2.611)" fill="#bbbdbf"/>
      </g>
      <rect id="Rectangle_121" data-name="Rectangle 121" width="1.007" height="1.545" transform="translate(167.178 366.552) rotate(-52.938)" fill="#bbbdbf"/>
      <rect id="Rectangle_122" data-name="Rectangle 122" width="1.007" height="1.544" transform="translate(144.994 392.345) rotate(-52.934)" fill="#bbbdbf"/>
      <path id="Path_256" data-name="Path 256" d="M80.981,403.277,78.19,439.826a.39.39,0,0,1-.139.281L76.4,441.26a.394.394,0,0,0-.131.387l.062.269a.39.39,0,0,0,.54.269l2.4-1.1a.392.392,0,0,0,.229-.359l-.012-.769c0-.01,2.519-36.709,2.519-36.709a.39.39,0,0,0-.483-.4l-.158.069C81.205,402.958,80.989,403.105,80.981,403.277Z" fill="#323232"/>
    </g>
  </g>
</svg>
