<svg width="90" height="50" viewBox="0 0 90 50" fill="none" xmlns="http://www.w3.org/2000/svg">
<g clip-path="url(#clip0)">
<path d="M73.8546 50H16.1934C15.101 50 14.0534 49.5661 13.281 48.7937C12.5086 48.0213 12.0747 46.9737 12.0747 45.8814V4.69469C12.0747 3.60235 12.5086 2.55475 13.281 1.78235C14.0534 1.00995 15.101 0.576019 16.1934 0.576019H73.8546C74.9469 0.576019 75.9945 1.00995 76.7669 1.78235C77.5393 2.55475 77.9733 3.60235 77.9733 4.69469V45.8814C77.9733 46.9737 77.5393 48.0213 76.7669 48.7937C75.9945 49.5661 74.9469 50 73.8546 50Z" fill="white"/>
<path d="M20.3121 50H16.1934C15.101 50 14.0534 49.5661 13.281 48.7937C12.5086 48.0213 12.0747 46.9737 12.0747 45.8814V4.69469C12.0747 4.15382 12.1812 3.61824 12.3882 3.11854C12.5952 2.61884 12.8986 2.1648 13.281 1.78235C13.6635 1.39989 14.1175 1.09652 14.6172 0.889534C15.1169 0.682551 15.6525 0.576019 16.1934 0.576019C16.7343 0.576019 17.2698 0.682551 17.7695 0.889534C18.2692 1.09652 18.7233 1.39989 19.1057 1.78235C19.4882 2.1648 19.7916 2.61884 19.9985 3.11854C20.2055 3.61824 20.3121 4.15382 20.3121 4.69469V50Z" fill="#DAE2EB"/>
<path d="M69.7383 49.9999H73.857C74.9493 49.9999 75.9969 49.566 76.7693 48.7936C77.5417 48.0212 77.9756 46.9736 77.9756 45.8813V4.69459C77.9756 3.60226 77.5417 2.55466 76.7693 1.78226C75.9969 1.00986 74.9493 0.575928 73.857 0.575928C72.7646 0.575928 71.717 1.00986 70.9446 1.78226C70.1722 2.55466 69.7383 3.60226 69.7383 4.69459V49.9999Z" fill="#CBD4DF"/>
<path d="M76.2147 8.07195C76.6582 7.76221 77.0364 7.36815 77.3276 6.91226C77.6188 6.45638 77.8174 5.94759 77.912 5.41496C78.0066 4.88234 77.9953 4.33629 77.8789 3.808C77.7625 3.27972 77.5431 2.77954 77.2334 2.33603C76.9236 1.89252 76.5296 1.51435 76.0737 1.22313C75.6178 0.93191 75.109 0.733334 74.5764 0.63874C74.0437 0.544147 73.4977 0.555389 72.9694 0.671825C72.4411 0.78826 71.9409 1.00761 71.4974 1.31735L45.0281 20.5886L45.0253 20.5899L45.0226 20.5886L18.5532 1.31735C17.6575 0.691803 16.55 0.4477 15.4743 0.63874C14.3986 0.82978 13.4428 1.44031 12.8173 2.33603C12.1917 3.23174 11.9476 4.33927 12.1387 5.41496C12.3297 6.49066 12.9403 7.4464 13.836 8.07195L13.7261 7.99095L45.0253 30.7795L76.2147 8.07195ZM76.3259 7.99095L45.0253 30.7795L76.3259 7.99095Z" fill="#DAE2EB"/>
<path d="M73.8567 0.575933C72.9794 0.575933 72.1653 0.850511 71.498 1.31729L45.0287 20.5885L45.026 20.5899L45.0232 20.5885L18.5539 1.31729C17.8627 0.833492 17.0391 0.574611 16.1953 0.575933H73.8567Z" fill="white"/>
<path d="M20.3142 14.563L13.3729 7.68753L13.3701 7.69302C13.5156 7.83031 13.6708 7.95662 13.8355 8.07194L13.7257 7.99094L20.3155 12.7892L20.3142 14.6124" fill="#CBD4DF"/>
<path d="M40.4505 34.3367L20.313 50L20.3144 14.3914L40.4463 34.3312" fill="#EFF1F4"/>
<path d="M40.4487 34.3367L45.0231 30.7796L20.3125 12.7893V14.3915L40.4445 34.3312L40.4487 34.3367Z" fill="url(#paint0_linear)"/>
<path d="M56.0913 50H69.7364V12.7879L45.0244 30.7796L40.4458 34.3312L56.0913 50Z" fill="url(#paint1_linear)"/>
</g>
<defs>
<linearGradient id="paint0_linear" x1="20.3125" y1="23.5637" x2="45.0231" y2="23.5637" gradientUnits="userSpaceOnUse">
<stop stop-color="#D0D4DB"/>
<stop offset="1" stop-color="#E1E7ED"/>
</linearGradient>
<linearGradient id="paint1_linear" x1="40.4458" y1="31.3933" x2="69.7364" y2="31.3933" gradientUnits="userSpaceOnUse">
<stop stop-color="#EFF1F4"/>
<stop offset="1" stop-color="#E9ECF1"/>
</linearGradient>
<clipPath id="clip0">
<rect width="89.67" height="50" fill="white"/>
</clipPath>
</defs>
</svg>
