<svg width="120" height="35" viewBox="0 0 120 35" fill="none" xmlns="http://www.w3.org/2000/svg">
<g clip-path="url(#clip0)">
<path d="M0.015625 6.50879H4.19969V15.8195H13.0241V6.50879H17.2136V29.3636H13.0241V19.8574H4.19969V29.3636H0.015625V6.50879ZM30.4687 21.9195C30.4687 23.8327 28.9124 25.3895 27.0027 25.3895C25.0923 25.3895 23.537 23.8327 23.537 21.9195V12.0797H19.5691V21.9195C19.5691 26.0245 22.904 29.3636 27.0027 29.3636C31.1005 29.3636 34.4352 26.0245 34.4352 21.9195V12.0797H30.4687V21.9195ZM45.5123 12.1949C43.544 12.1949 42.1701 12.767 40.8433 14.0715V6.50879H36.8624V20.5246C36.8624 25.7708 40.6495 29.3636 44.9041 29.3636C49.634 29.3636 53.7782 25.7067 53.7782 20.7795C53.7782 15.9148 49.9567 12.1949 45.5123 12.1949ZM45.6112 25.675C42.9137 25.675 40.851 23.4186 40.851 20.7795C40.851 18.14 42.9137 15.8828 45.6112 15.8828C47.8968 15.8828 49.9607 18.14 49.9607 20.7795C49.9607 23.4186 47.8968 25.675 45.6112 25.675ZM60.4642 13.1994C60.4642 11.1951 61.7976 10.5596 63.2573 10.5596C64.4324 10.5596 65.9875 11.4498 67.0023 12.5311L69.6046 9.47909C68.3041 7.73067 65.6699 6.52217 63.5113 6.52217C59.1939 6.52217 56.083 9.034 56.083 13.1994C56.083 20.9251 65.5745 18.4761 65.5745 22.8012C65.5745 24.135 64.2735 25.3125 62.7824 25.3125C60.4326 25.3125 59.6704 24.1679 58.5916 22.9594L55.7024 25.9475C57.5446 28.2051 59.8293 29.3503 62.5595 29.3503C66.6541 29.3503 69.9555 26.8067 69.9555 22.8319C69.9555 14.248 60.4642 16.919 60.4642 13.1994ZM80.4353 11.971C76.1812 11.971 72.3937 15.5617 72.3937 20.8091V34.861H76.3743V27.2624C77.7013 28.566 79.0745 29.139 81.0435 29.139C85.4877 29.139 89.3097 25.4196 89.3097 20.5549C89.3097 15.627 85.1643 11.971 80.4353 11.971ZM81.1427 25.4515C78.4455 25.4515 76.3825 23.192 76.3825 20.5549C76.3825 17.9153 78.4455 15.6582 81.1427 15.6582C83.4278 15.6582 85.492 17.9153 85.492 20.5549C85.492 23.192 83.4278 25.4515 81.1427 25.4515ZM118.611 25.675C116.264 25.675 115.597 24.6581 115.597 23.0996V16.2007H119.247V12.7039H115.597V8.09336L111.567 9.90516V23.958C111.567 27.5511 114.042 29.3636 117.437 29.3636C117.945 29.3636 118.644 29.3308 119.025 29.2366L120.009 25.6126C119.565 25.6433 119.057 25.675 118.611 25.675Z" fill="white"/>
<path d="M108.112 16.404C107.349 15.0889 106.276 14.0346 104.934 13.2409C103.931 12.6562 102.891 12.285 101.719 12.1256V7.94708C102.891 7.4487 103.618 6.34561 103.618 5.0587C103.618 3.30465 102.214 1.88323 100.464 1.88323C98.7127 1.88323 97.2837 3.30465 97.2837 5.0587C97.2837 6.34561 97.969 7.4487 99.1409 7.94708V12.1275C98.2034 12.2632 97.2312 12.5559 96.3434 13.0057C94.5301 11.6263 88.584 7.10103 85.1056 4.45798C85.1881 4.16008 85.2516 3.85303 85.2516 3.52907C85.2516 1.58627 83.6808 0.0115662 81.7404 0.0115662C79.8001 0.0115662 78.23 1.58627 78.23 3.52907C78.23 5.47163 79.8017 7.04681 81.7421 7.04681C82.404 7.04681 83.0161 6.8529 83.5444 6.53411L84.2785 7.09188L94.3651 14.371C93.8319 14.8614 93.3352 15.4192 92.9379 16.045C92.1329 17.3209 91.6409 18.7247 91.6409 20.256V20.5755C91.6409 21.6504 91.8448 22.6652 92.1922 23.6186C92.498 24.451 92.9452 25.2078 93.499 25.8921L90.1515 29.2533C89.6663 29.0724 89.1394 29.0353 88.6338 29.1464C88.1281 29.2574 87.6651 29.512 87.3001 29.8796C87.0473 30.1315 86.847 30.4312 86.7107 30.7612C86.5744 31.0912 86.5048 31.4451 86.506 31.8022C86.5062 32.5283 86.7886 33.2107 87.3015 33.7241C87.5528 33.9775 87.8519 34.1783 88.1813 34.3151C88.5107 34.4519 88.8639 34.5218 89.2205 34.5208C89.5772 34.5218 89.9306 34.4518 90.2601 34.3151C90.5896 34.1783 90.8888 33.9774 91.1403 33.7241C91.3929 33.4722 91.5932 33.1726 91.7295 32.8428C91.8659 32.5129 91.9357 32.1592 91.9348 31.8022C91.9348 31.5212 91.8915 31.247 91.8099 30.9864L95.27 27.5203C95.7444 27.8485 96.2567 28.1248 96.8075 28.3631C97.8938 28.8335 99.0929 29.1202 100.405 29.1202H100.646C102.096 29.1202 103.465 28.7788 104.751 28.0807C106.107 27.3429 107.168 26.3339 107.97 25.0458C108.775 23.7542 109.219 22.3272 109.219 20.7572V20.6788C109.219 19.1344 108.862 17.7094 108.112 16.404ZM103.885 23.6749C102.946 24.7202 101.866 25.3642 100.646 25.3642H100.445C99.7475 25.3642 99.0657 25.1712 98.3982 24.8202C97.6458 24.4338 97.074 23.8827 96.6059 23.1847C96.1222 22.4997 95.8597 21.7518 95.8597 20.9588V20.718C95.8597 19.9384 96.009 19.1991 96.3854 18.501C96.7878 17.7378 97.3313 17.1444 98.0541 16.6725C98.7638 16.204 99.5218 15.9741 100.366 15.9741H100.445C101.21 15.9741 101.935 16.1253 102.619 16.4758C103.315 16.8495 103.885 17.3601 104.326 18.0317C104.755 18.7036 105.01 19.4283 105.092 20.2177C105.105 20.3818 105.111 20.5499 105.111 20.7105C105.111 21.7819 104.702 22.7742 103.885 23.6749Z" fill="white"/>
</g>
<defs>
<clipPath id="clip0">
<rect width="120" height="35" fill="white"/>
</clipPath>
</defs>
</svg>
