<svg width="658" height="606" viewBox="0 0 658 606" fill="none" xmlns="http://www.w3.org/2000/svg">
<g clip-path="url(#clip0)">
<path d="M144.09 439.062L299.152 528.536C301.058 529.503 303.166 530.007 305.304 530.007C307.442 530.007 309.55 529.503 311.457 528.536L605.055 359.09C608.451 357.13 608.451 353.948 605.055 351.988L449.979 262.514C448.072 261.548 445.965 261.044 443.827 261.044C441.689 261.044 439.581 261.548 437.674 262.514L144.09 431.961C140.694 433.935 140.694 437.102 144.09 439.062Z" fill="#192EAD"/>
<path d="M227.894 480.632C230.537 481.97 233.457 482.667 236.419 482.667C239.382 482.667 242.302 481.97 244.945 480.632C249.662 477.905 249.662 473.531 244.945 470.776C242.302 469.438 239.382 468.741 236.419 468.741C233.457 468.741 230.537 469.438 227.894 470.776C223.177 473.503 223.177 477.962 227.894 480.632Z" fill="#2D41BA"/>
<path d="M299.152 528.55L144.09 439.076C141.049 437.33 140.737 434.603 143.124 432.643C141.608 433.842 140.363 435.347 139.469 437.061C138.576 438.774 138.054 440.656 137.938 442.584V448.365C138.052 450.499 138.669 452.576 139.738 454.427C140.807 456.278 142.298 457.85 144.09 459.016L299.152 548.49C301.049 549.477 303.166 549.965 305.304 549.91V530.013C303.162 530.055 301.045 529.552 299.152 528.55Z" fill="#2D41BA"/>
<path d="M605.055 379.072C606.845 377.904 608.335 376.331 609.404 374.481C610.473 372.63 611.091 370.554 611.207 368.42V362.64C611.087 360.711 610.562 358.829 609.666 357.116C608.77 355.403 607.523 353.898 606.007 352.699C608.408 354.658 608.095 357.385 605.055 359.146L311.456 528.55C309.56 529.54 307.442 530.029 305.304 529.971V549.967C307.442 550.026 309.56 549.537 311.456 548.547L605.055 379.072Z" fill="#24246B"/>
<path d="M324.713 510.002L178.362 425.527C176.316 424.349 176.316 422.446 178.362 421.267L419.089 282.27C420.234 281.689 421.499 281.386 422.783 281.386C424.067 281.386 425.333 281.689 426.478 282.27L572.9 366.73C574.946 367.895 574.946 369.812 572.9 370.991L332.088 510.002C330.946 510.583 329.682 510.886 328.401 510.886C327.119 510.886 325.856 510.583 324.713 510.002Z" fill="#FAFAFA"/>
<path d="M286.647 396.342L373.222 446.291L318.574 477.834C317.619 478.311 316.566 478.559 315.498 478.559C314.43 478.559 313.377 478.311 312.422 477.834L231.999 431.422C231.628 431.296 231.306 431.057 231.078 430.738C230.849 430.42 230.727 430.038 230.727 429.646C230.727 429.255 230.849 428.873 231.078 428.554C231.306 428.236 231.628 427.997 231.999 427.871L286.647 396.342Z" fill="#E6E6E6"/>
<path d="M373.15 446.291L362.949 405.758C362.717 404.791 362.179 403.924 361.414 403.287C360.64 402.631 359.682 402.229 358.672 402.137L286.59 396.342L373.15 446.291Z" fill="#E0E0E0"/>
<path d="M373.153 446.291L295.672 443.096C294.744 443.058 293.86 442.692 293.177 442.062C292.495 441.432 292.06 440.58 291.949 439.659L286.578 396.328L373.153 446.291Z" fill="#E0E0E0"/>
<path d="M373.153 446.291L295.672 443.096C294.744 443.058 293.86 442.692 293.177 442.062C292.495 441.432 292.06 440.58 291.949 439.659L286.578 396.328L296.141 438.934C296.227 439.314 296.432 439.656 296.725 439.911C297.019 440.167 297.387 440.322 297.775 440.355L373.153 446.291Z" fill="#FAFAFA"/>
<path d="M303.968 442.954L315.506 479.595L318.589 477.82L303.968 442.954Z" fill="#FAFAFA"/>
<path d="M228.93 429.632L232.013 427.857L292.415 436.293L228.93 429.632Z" fill="#FAFAFA"/>
<path d="M335.894 378.121L404.765 417.887C405.718 418.37 406.772 418.621 407.841 418.621C408.91 418.621 409.964 418.37 410.917 417.887L508.66 361.504C509.031 361.378 509.354 361.139 509.582 360.821C509.81 360.502 509.933 360.12 509.933 359.729C509.933 359.337 509.81 358.955 509.582 358.637C509.354 358.318 509.031 358.079 508.66 357.953L439.789 318.187C438.836 317.704 437.782 317.453 436.713 317.453C435.644 317.453 434.591 317.704 433.637 318.187L335.894 374.57C335.523 374.696 335.201 374.935 334.972 375.253C334.744 375.572 334.621 375.954 334.621 376.345C334.621 376.737 334.744 377.119 334.972 377.437C335.201 377.756 335.523 377.995 335.894 378.121Z" fill="#E6E6E6"/>
<path d="M390.659 372.866C389.838 371.592 389.352 370.131 389.245 368.619C389.138 367.108 389.414 365.593 390.048 364.217C391.327 361.376 394.112 358.649 398.388 356.192C403.078 353.437 408.254 351.609 413.635 350.81C418.883 350.054 424.226 350.246 429.406 351.378C434.75 352.54 439.876 354.539 444.596 357.3C449.162 359.923 452.269 362.631 453.917 365.424C454.722 366.613 455.203 367.992 455.312 369.424C455.422 370.856 455.157 372.292 454.542 373.59C453.292 376.246 450.663 378.731 446.684 381.032C442.87 383.336 438.578 384.735 434.138 385.122C430.442 385.482 426.723 384.72 423.467 382.935C422.883 382.682 422.36 382.308 421.932 381.838C421.503 381.368 421.179 380.813 420.981 380.208C420.886 379.685 420.932 379.147 421.114 378.648C421.297 378.149 421.609 377.707 422.018 377.368C419.729 377.554 417.425 377.396 415.183 376.899C412.986 376.426 410.876 375.611 408.931 374.485C405.654 372.591 403.939 370.537 403.788 368.321C403.636 366.105 405.204 364.07 408.491 362.214C412.457 359.89 416.996 358.724 421.592 358.848C426.286 358.952 430.874 360.258 434.919 362.64C436.593 363.573 438.086 364.8 439.324 366.262C440.308 367.344 440.951 368.693 441.171 370.139L428.383 377.552C427.346 378.149 426.778 378.674 426.693 379.129C426.607 379.583 426.977 380.066 427.787 380.549C429.556 381.408 431.581 381.58 433.47 381.032C436.253 380.381 438.915 379.293 441.356 377.808C444.567 375.962 446.599 373.974 447.452 371.886C447.879 370.873 448.042 369.768 447.925 368.675C447.808 367.582 447.416 366.537 446.784 365.637C445.069 363.189 442.788 361.191 440.134 359.814C434.682 356.59 428.518 354.76 422.188 354.488C415.768 354.307 409.43 355.974 403.93 359.288C400.434 361.305 398.189 363.435 397.195 365.679C396.696 366.724 396.476 367.88 396.556 369.034C396.636 370.189 397.012 371.303 397.65 372.269C399.371 374.801 401.695 376.866 404.413 378.277C406.219 379.31 408.123 380.161 410.097 380.819C411.938 381.455 413.844 381.884 415.78 382.097C415.987 382.113 416.189 382.166 416.377 382.253C416.476 382.253 416.476 382.438 416.377 382.623L414.501 385.25C414.424 385.352 414.333 385.443 414.231 385.52C413.955 385.614 413.655 385.614 413.379 385.52C411.036 385.224 408.73 384.682 406.502 383.901C404.172 383.128 401.925 382.124 399.795 380.904C395.39 378.547 392.35 375.777 390.659 372.866ZM420.284 374.101C422.244 374.35 424.232 373.977 425.968 373.036L433.399 368.776C432.519 367.284 431.219 366.084 429.662 365.324C427.29 363.934 424.597 363.185 421.847 363.151C419.108 363.104 416.409 363.811 414.047 365.197C411.972 366.39 410.963 367.568 411.02 368.733C411.02 369.897 412.185 371.105 414.359 372.354C416.183 373.365 418.205 373.966 420.284 374.116V374.101Z" fill="#FAFAFA"/>
<path d="M515.609 314.495C516.193 314.796 516.841 314.953 517.498 314.953C518.156 314.953 518.804 314.796 519.388 314.495C519.614 314.416 519.81 314.269 519.948 314.075C520.086 313.88 520.161 313.647 520.161 313.408C520.161 313.169 520.086 312.936 519.948 312.742C519.81 312.547 519.614 312.4 519.388 312.322C518.801 312.031 518.154 311.88 517.498 311.88C516.843 311.88 516.196 312.031 515.609 312.322C515.383 312.4 515.187 312.547 515.049 312.742C514.91 312.936 514.836 313.169 514.836 313.408C514.836 313.647 514.91 313.88 515.049 314.075C515.187 314.269 515.383 314.416 515.609 314.495Z" fill="#2D41BA"/>
<path d="M521.634 331.594C522.803 332.189 524.095 332.499 525.407 332.499C526.718 332.499 528.011 332.189 529.179 331.594C531.268 330.401 531.268 328.441 529.179 327.248C528.011 326.653 526.718 326.343 525.407 326.343C524.095 326.343 522.803 326.653 521.634 327.248C519.503 328.441 519.503 330.401 521.634 331.594Z" fill="#2D41BA"/>
<path d="M516.321 324.024C517.742 323.215 517.642 321.88 516.15 321.028L491.341 306.698C490.544 306.271 489.656 306.04 488.752 306.026C487.847 306.011 486.952 306.212 486.141 306.612C484.72 307.408 484.834 308.757 486.312 309.609L511.12 323.925C511.919 324.346 512.806 324.575 513.709 324.592C514.612 324.609 515.506 324.415 516.321 324.024Z" fill="#2D41BA"/>
<path d="M144.664 173.415C144.743 171.889 145.181 170.404 145.945 169.081C146.708 167.758 147.773 166.635 149.055 165.802L373.882 36.0651C375.244 35.3717 376.751 35.0103 378.28 35.0103C379.808 35.0103 381.315 35.3717 382.677 36.0651L387.622 38.9055C388.901 39.7364 389.966 40.8578 390.729 42.1783C391.492 43.4988 391.932 44.9809 392.013 46.5037V218.777C391.925 220.3 391.483 221.781 390.72 223.103C389.958 224.425 388.897 225.55 387.622 226.389L162.795 356.126C161.433 356.813 159.929 357.171 158.404 357.171C156.879 357.171 155.375 356.813 154.014 356.126L149.055 353.286C147.78 352.447 146.719 351.322 145.956 350C145.194 348.678 144.752 347.196 144.664 345.673V173.415Z" fill="#F2F2F2"/>
<path opacity="0.4" d="M145.941 169.083L158.417 176.269L390.732 42.2005C389.992 40.8641 388.927 39.7358 387.635 38.9198L382.662 36.0793C381.302 35.3861 379.797 35.0247 378.271 35.0247C376.745 35.0247 375.24 35.3861 373.881 36.0793L149.067 165.802C147.757 166.605 146.679 167.736 145.941 169.083Z" fill="white"/>
<path opacity="0.1" d="M144.664 173.4V345.645C144.745 347.171 145.187 348.657 145.952 349.98C146.718 351.303 147.786 352.426 149.069 353.257L154.014 356.098C154.396 356.32 154.801 356.501 155.221 356.637C155.809 356.831 156.413 356.969 157.026 357.049C158.181 357.199 159.352 357.156 160.493 356.921C160.781 356.863 161.066 356.787 161.345 356.694C161.527 356.645 161.703 356.579 161.871 356.495C161.539 356.638 161.181 356.711 160.82 356.711C160.458 356.711 160.1 356.638 159.768 356.495C159.308 356.188 158.939 355.761 158.701 355.261C158.464 354.761 158.366 354.206 158.418 353.655V181.311C158.375 180.53 158.57 179.754 158.979 179.087C159.387 178.419 159.99 177.892 160.706 177.576L158.418 176.241L145.943 169.055C145.155 170.372 144.715 171.867 144.664 173.4Z" fill="black"/>
<path opacity="0.2" d="M158.418 176.269L262.541 215.155C266.142 216.494 270.092 216.568 273.741 215.365C277.39 214.162 280.52 211.754 282.618 208.537L299.342 182.973L391.558 41.746L302.667 183.896L392.012 218.848C391.922 220.408 391.432 221.919 390.591 223.236L302.425 184.294L282.988 215.396C280.831 218.848 277.502 221.407 273.61 222.602C269.718 223.797 265.525 223.548 261.802 221.901L247.977 215.794L159.754 356.481C159.293 356.174 158.925 355.747 158.687 355.247C158.449 354.747 158.352 354.192 158.404 353.641V350.8L247.536 215.68L158.418 176.269Z" fill="black"/>
<path d="M184.178 136.049L168.804 127.201L168.661 127.115C161.841 123.267 152.492 123.849 142.133 129.814C121.289 141.843 104.395 171.1 104.395 195.144C104.395 207.145 108.657 215.595 115.406 219.543L129.388 227.511L132.727 221.929C136.531 221.065 140.182 219.628 143.554 217.669C164.399 205.64 181.293 176.383 181.293 152.339C181.292 149.093 180.896 145.86 180.114 142.71L184.178 136.049Z" fill="#00CDBF"/>
<path d="M156.71 138.207C135.851 150.237 118.957 179.493 118.957 203.538C118.957 227.582 135.851 237.353 156.696 225.324C177.54 213.295 194.449 184.024 194.449 159.994C194.449 135.963 177.555 126.164 156.71 138.207Z" fill="#29FFC6"/>
<path d="M144.975 184.634C144.841 184.496 144.743 184.325 144.691 184.14C144.639 183.954 144.634 183.758 144.677 183.569C144.748 183.057 144.943 182.569 145.245 182.149L156.91 164.837C157.209 164.425 157.493 164.013 157.806 163.615C158.066 163.244 158.399 162.929 158.786 162.692L163.049 160.278C163.19 160.173 163.359 160.112 163.535 160.102C163.711 160.093 163.886 160.136 164.037 160.225C164.189 160.315 164.311 160.447 164.388 160.605C164.465 160.764 164.493 160.941 164.469 161.116V201.081C164.447 201.584 164.295 202.073 164.029 202.501C163.794 202.943 163.446 203.316 163.02 203.58L158.672 206.08C158.528 206.189 158.355 206.257 158.175 206.274C157.994 206.292 157.812 206.259 157.649 206.179C157.5 206.076 157.382 205.934 157.307 205.769C157.232 205.604 157.203 205.422 157.223 205.242V174.693L149.621 185.955C149.37 186.367 149.005 186.698 148.57 186.907C148.412 186.986 148.236 187.02 148.06 187.005C147.885 186.99 147.717 186.926 147.575 186.822L144.975 184.634Z" fill="white"/>
<path d="M552.735 33.3956C536.709 25.9108 501.405 13.4542 469.859 30.7018C427.544 53.8794 425.34 111.823 441.998 183.544C453.363 232.611 427.49 252.86 410 260.742C396.5 266.656 362.7 274.936 335.5 260.742" stroke="#18317F" stroke-width="1.6" stroke-miterlimit="10" stroke-linecap="round" stroke-dasharray="4.88 5.86"/>
<path d="M564.801 41.3504L554.195 54.4579L605.959 73.8027L582.58 22.0056L571.667 36.0532L585.38 52.9031L564.801 41.3504Z" fill="url(#paint0_linear)"/>
</g>
<defs>
<linearGradient id="paint0_linear" x1="554.195" y1="47.9042" x2="605.959" y2="47.9042" gradientUnits="userSpaceOnUse">
<stop stop-color="#0CEBEB"/>
<stop offset="0.5" stop-color="#20E3B2"/>
<stop offset="1" stop-color="#29FFC6"/>
</linearGradient>
<clipPath id="clip0">
<rect width="658" height="606" fill="white"/>
</clipPath>
</defs>
</svg>
