<svg width="537" height="613" viewBox="0 0 537 613" fill="none" xmlns="http://www.w3.org/2000/svg">
<path d="M407.086 181.121L421.554 167.431L450.664 181.121L445.591 319.818H421.404L407.086 181.121Z" fill="#EBEFF7"/>
<path d="M389.001 549.172C387.161 550.096 385.174 550.688 383.129 550.921L359.516 545.25C367.237 542.902 373.409 538.98 375.308 536.132C376.45 533.337 377.077 530.357 377.157 527.339C377.457 524.066 377.531 521.168 377.531 521.168L390.275 519.27C390.275 519.27 390.275 522.742 390.275 527.314C390.35 535.882 390.2 548.248 389.001 549.172Z" fill="#24246B"/>
<path d="M390.324 527.314C385.937 527.891 381.493 527.891 377.105 527.314C377.405 524.041 377.48 521.143 377.48 521.143L390.224 519.245C390.224 519.245 390.299 522.742 390.324 527.314Z" fill="url(#paint0_linear)"/>
<path d="M473.257 549.797C473.257 549.797 456.091 555.543 452.268 554.793C448.445 554.044 450.994 545.05 451.618 539.979C451.852 535.991 451.785 531.991 451.418 528.013C451.093 523.367 450.669 519.295 450.669 519.295H463.712C463.712 519.295 463.912 523.367 464.187 527.564C464.412 531.086 464.687 534.708 464.986 536.157C465.636 539.305 473.257 549.797 473.257 549.797Z" fill="#24246B"/>
<path d="M464.186 527.538C460.763 527.788 456.34 527.938 451.418 527.988C451.093 523.342 450.668 519.27 450.668 519.27H463.712C463.712 519.27 463.961 523.267 464.186 527.538Z" fill="url(#paint1_linear)"/>
<path d="M467.861 308.676V420.643C467.861 429.561 465.937 522.442 465.937 522.442H450.045C450.045 522.442 440.5 438.779 440.175 424.165C439.85 409.551 433.478 344.949 433.478 344.949L433.353 345.424L412.814 414.922C409.862 426.119 407.626 437.492 406.117 448.972C403.269 469.632 391.125 522.442 391.125 522.442H375.258L382.254 419.394L393.399 307.402C413.936 310.027 434.67 310.771 455.342 309.625C459.515 309.401 463.688 309.076 467.861 308.676Z" fill="url(#paint2_linear)"/>
<path d="M383.228 551.071C383.228 551.071 375.332 540.579 364.638 543.451C353.943 546.324 356.442 550.122 358.341 551.071C366.491 553.267 375.078 553.267 383.228 551.071Z" fill="#3535AA"/>
<path d="M472.634 553.944C470.135 554.444 451.319 555.543 450.345 553.944C449.37 552.345 450.995 547.249 456.392 546.3C461.789 545.35 472.634 548.798 474.208 550.447C475.782 552.095 474.208 553.619 472.634 553.944Z" fill="#3535AA"/>
<path d="M467.862 308.676V420.643C467.862 429.561 465.938 522.442 465.938 522.442H461.765C462.997 505.073 462.906 487.636 461.491 470.281C458.992 441.003 457.343 430.186 461.491 395.536C464.789 367.832 458.167 325.588 455.344 309.625C459.517 309.4 463.689 309.076 467.862 308.676Z" fill="url(#paint3_linear)"/>
<path d="M433.351 345.424L412.811 414.922C409.86 426.119 407.623 437.492 406.115 448.972C403.266 469.631 391.122 522.442 391.122 522.442H386.125C390.854 505.332 394.32 487.898 396.495 470.281C399.643 448.372 395.395 446.873 401.917 414.922C405.09 399.334 415.91 384.72 419.083 366.258C421.328 352.05 424.952 338.095 429.903 324.589L433.351 345.424Z" fill="url(#paint4_linear)"/>
<path d="M495.224 350.895C495.224 350.895 497.448 371.579 496.798 372.828C496.149 374.077 478.083 380.573 475.809 374.427C472.635 365.834 475.809 318.769 475.809 318.769C475.809 318.769 475.484 302.531 478.982 303.18C482.481 303.83 495.224 350.895 495.224 350.895Z" fill="#152C68"/>
<path d="M478.355 333.807C478.355 333.807 476.431 311.549 478.355 308.676C480.279 305.803 482.802 306.178 486.625 323.315C490.448 340.452 491.073 353.842 493.622 355.116C495.758 355.992 498.017 356.532 500.318 356.715C500.318 356.715 485.026 295.935 480.903 295.935C476.78 295.935 471.658 300.707 472.632 332.508C472.632 332.533 473.582 344.299 478.355 333.807Z" fill="#192EAD"/>
<path d="M436.676 144.548L436.301 155.664L436.051 163.009L435.727 173.176C423.233 191.313 414.387 173.176 414.387 173.176L413.138 161.51L412.738 157.713L412.488 155.365L436.676 144.548Z" fill="url(#paint5_linear)"/>
<path d="M436.304 155.665L436.054 163.009C432.905 167.006 428.757 171.253 425.534 171.253C421.286 171.253 415.964 165.158 413.04 161.51L412.641 157.713C418.538 154.191 429.957 154.915 436.304 155.665Z" fill="#4463C6"/>
<path d="M402.618 135.28C402.618 135.28 399.644 124.263 400.844 118.892C400.951 118.22 401.22 117.584 401.628 117.038C402.036 116.493 402.57 116.056 403.185 115.763C403.8 115.47 404.477 115.332 405.157 115.359C405.837 115.386 406.501 115.578 407.09 115.919C406.34 114.44 406.053 112.769 406.267 111.125C406.481 109.48 407.186 107.939 408.29 106.701C412.163 102.229 427.93 100.156 437.175 104.028C446.421 107.9 440.748 116.219 440.748 116.219C440.748 116.219 452.343 113.246 444.322 133.706L426.456 141.2L402.618 135.555V135.28Z" fill="#192EAD"/>
<path d="M407.991 134.98C407.991 134.98 403.518 130.209 402.019 133.181C400.52 136.154 403.818 147.196 410.965 146.596L407.991 134.98Z" fill="url(#paint6_linear)"/>
<path d="M439.2 134.98C439.2 134.98 443.673 130.209 445.147 133.181C446.621 136.154 443.373 147.196 436.227 146.596L439.2 134.98Z" fill="url(#paint7_linear)"/>
<path d="M440.144 133.781C440.144 134.455 438.945 153.466 438.045 156.989C436.231 161.192 433.005 164.629 428.925 166.706C428.056 167.123 427.113 167.361 426.151 167.406C422.477 167.149 419.026 165.548 416.456 162.909C415.027 161.623 413.775 160.153 412.733 158.538C410.359 154.665 407.086 133.831 407.086 133.831C409.137 130.657 410.246 126.967 410.284 123.189C410.336 122.274 410.336 121.356 410.284 120.441C410.284 120.441 426.376 114.195 437.096 120.741C437.101 120.782 437.101 120.824 437.096 120.865C437.083 125.35 438.128 129.775 440.144 133.781Z" fill="url(#paint8_linear)"/>
<path d="M440.153 133.806C440.153 134.481 438.953 153.491 438.054 157.014C436.24 161.217 433.014 164.654 428.934 166.732C436.78 161.411 440.053 134.481 440.153 133.806Z" fill="#4864D8"/>
<path d="M437.178 120.691C437.184 120.732 437.184 120.774 437.178 120.816C426.158 118.317 414.339 121.765 410.316 123.139C410.368 122.224 410.368 121.306 410.316 120.391C410.316 120.391 426.483 114.146 437.178 120.691Z" fill="#4864D8"/>
<path d="M426.479 312.498C421.172 312.595 415.867 312.269 410.612 311.524C404.933 310.838 399.36 309.454 394.02 307.402L390.847 226.287C390.847 226.287 385.85 242.6 384.275 249.52C384.015 250.448 383.872 251.405 383.851 252.368C384.175 254.866 387.998 272.728 387.998 272.728L369.533 279.723C369.533 279.723 360.312 261.611 360.312 255.566C360.312 249.52 373.681 191.313 376.529 186.842C379.378 182.37 414.385 173.177 414.385 173.177L426.479 312.498Z" fill="url(#paint9_linear)"/>
<path d="M467.761 254.591C467.942 253.115 467.942 251.621 467.761 250.145C467.111 246.972 462.763 233.282 462.763 233.282C463.388 240.926 467.761 314.097 467.761 314.097C463.538 314.097 458.64 314.097 454.143 313.747C446.372 313.273 439.75 312.498 439.75 312.498L436.477 173.177C449.607 174.665 462.399 178.321 474.332 183.994C476.256 185.268 489.625 247.921 489.625 250.469C489.625 253.017 484.202 271.454 484.202 271.454L466.237 266.458H466.062C466.062 266.458 466.062 266.258 466.062 265.933C466.386 264.284 467.336 259.038 467.761 254.941V254.691V254.591Z" fill="url(#paint10_linear)"/>
<path d="M410.616 311.524C404.937 310.838 399.364 309.454 394.024 307.402L390.851 226.287C390.851 226.287 385.853 242.6 384.279 249.52L380.031 262.011L393.399 202.205C397.356 218.435 398.647 235.199 397.223 251.843C395.473 274.002 410.291 291.064 410.616 311.524Z" fill="url(#paint11_linear)"/>
<path d="M462.761 233.282C463.386 240.926 467.759 314.097 467.759 314.097C463.536 314.097 458.638 314.097 454.141 313.747C462.062 298.034 459.488 265.808 456.939 250.144C454.066 232.657 456.939 197.983 456.939 197.983C456.939 197.983 468.708 242.2 468.708 243.799C468.708 245.398 467.834 253.042 467.659 254.591C467.84 253.114 467.84 251.621 467.659 250.144C467.209 246.972 462.761 233.282 462.761 233.282Z" fill="url(#paint12_linear)"/>
<path d="M404.542 321.092C404.108 322.379 403.41 323.562 402.493 324.564C400.731 326.446 398.617 327.965 396.272 329.036C387.351 315.046 369.535 279.723 369.535 279.723L382.154 274.951L388.001 272.728C388.775 274.526 391.649 285.218 395.297 296.91C398.945 308.601 404.542 321.092 404.542 321.092Z" fill="url(#paint13_linear)"/>
<path d="M404.545 321.092C404.111 322.379 403.413 323.562 402.496 324.564C399.997 313.098 394.3 309.575 391.177 296.585C389.285 288.958 386.244 281.663 382.156 274.951L388.003 272.728C388.778 274.526 391.651 285.218 395.3 296.91C398.948 308.601 404.545 321.092 404.545 321.092Z" fill="#4864D8"/>
<path d="M390.848 278.448C390.848 278.448 371.433 285.443 370.484 286.068C369.534 286.692 364.137 275.9 364.137 275.9L389.249 266.982C389.249 266.982 392.248 276.375 390.848 278.448Z" fill="#00CDBF"/>
<path d="M450.667 174.75C450.667 174.75 446.844 268.656 472.781 292.013L468.808 300.732C468.808 300.732 438.598 270.504 443.371 174.126C443.371 174.126 445.894 172.527 450.667 174.75Z" fill="#192EAD"/>
<path d="M479.956 324.914C480.581 326.813 481.206 337.63 478.357 338.904C475.239 339.681 472.006 339.893 468.812 339.528C468.812 339.528 479.632 351.319 478.032 351.619C476.433 351.919 466.588 343.35 465.939 341.452C465.289 339.553 461.166 323.64 461.491 315.371C461.816 307.102 465.939 265.733 465.939 265.733L477.133 269.28L484.079 271.454C482.03 277.874 471.036 315.996 471.036 315.996V316.145C473.26 321.342 476.683 333.807 476.683 333.807C476.683 333.807 479.307 322.99 479.956 324.914Z" fill="url(#paint14_linear)"/>
<path d="M471.033 315.921V316.07L467.785 319.743C471.583 309.875 469.684 299.383 474.132 287.267C476.293 281.491 477.287 275.343 477.055 269.18L484.002 271.354C482.028 277.874 471.033 315.921 471.033 315.921Z" fill="#4864D8"/>
<path d="M463.391 263.46L488.528 270.454C487.256 273.835 485.771 277.131 484.08 280.322C477.17 279.01 470.364 277.198 463.715 274.901C463.391 274.326 463.391 263.46 463.391 263.46Z" fill="#00CDBF"/>
<path d="M180.229 540.904C180.108 542.472 179.78 544.017 179.254 545.5C179.254 545.5 146.446 546.474 134.652 545.5C122.858 544.526 129.23 532.46 133.703 529.912C134.256 529.608 134.855 529.397 135.477 529.287C140.324 528.388 148.245 531.985 152.168 530.861C156.76 528.99 161.141 526.637 165.237 523.841L178.38 525.165C179.83 530.28 180.454 535.593 180.229 540.904Z" fill="#24246B"/>
<path d="M180.229 540.904C180.108 542.472 179.78 544.017 179.254 545.5C179.254 545.5 146.446 546.474 134.652 545.5C122.858 544.526 129.23 532.46 133.703 529.912C134.256 529.608 134.855 529.397 135.477 529.287C137.975 529.962 140.924 533.234 143.248 542.328C143.248 542.328 167.985 543.252 180.229 540.904Z" fill="#EBF0F2"/>
<path d="M279.479 551.845C279.479 551.845 258.764 552.17 255.891 551.845C253.542 551.571 255.466 545.15 257.99 540.904C258.488 540.021 259.065 539.185 259.714 538.405C260.747 537.384 262.01 536.625 263.396 536.19C264.783 535.756 266.253 535.659 267.685 535.907C267.685 535.907 270.908 525.915 267.685 519.469L281.053 513.299C283.044 517.454 284.715 521.755 286.05 526.164C286.37 527.272 286.621 528.398 286.8 529.537C287.75 535.907 279.479 551.845 279.479 551.845Z" fill="#24246B"/>
<path d="M279.479 551.845C279.479 551.845 258.764 552.17 255.891 551.845C253.542 551.571 255.466 545.15 257.99 540.904C267.735 527.713 278.204 544.851 278.204 544.851C282.252 539.854 284.876 531.011 286.05 526.189C286.37 527.297 286.621 528.423 286.8 529.562C287.75 535.907 279.479 551.845 279.479 551.845Z" fill="#EBF0F2"/>
<path d="M188.029 408.527C187.729 413.673 187.204 419.544 186.38 425.614C183.881 444.101 178.134 524.816 178.134 524.816C175.86 526.43 173.14 527.298 170.35 527.298C167.561 527.298 164.841 526.43 162.567 524.816L157.694 411.425L157.27 401.732L188.504 390.59C188.504 390.59 188.679 398.035 188.029 408.527Z" fill="url(#paint15_linear)"/>
<path d="M281.001 513.274C279.427 518.995 267.883 519.669 267.883 519.669L209.838 409.751C208.878 407.773 208.043 405.737 207.339 403.655C205.34 398.209 203.891 392.564 203.891 392.564L205.815 393.188L240.797 376.001L240.997 400.608V407.952C247.141 419.106 251.971 430.935 255.389 443.201C260.512 462.262 281.001 513.274 281.001 513.274Z" fill="url(#paint16_linear)"/>
<path d="M188.504 390.59C188.504 390.59 188.679 398.085 188.029 408.527L157.694 411.425L157.27 401.732L188.504 390.59Z" fill="url(#paint17_linear)"/>
<path d="M240.949 400.558L207.241 403.605C205.242 398.159 203.793 392.514 203.793 392.514L205.717 393.138L240.699 375.951L240.949 400.558Z" fill="url(#paint18_linear)"/>
<path d="M143.424 272.253C143.424 272.253 137.677 278.948 136.727 279.573C135.778 280.197 119.861 281.896 119.236 282.845C118.612 283.795 129.781 285.693 129.781 285.693C129.781 285.693 121.135 291.389 120.835 292.963C120.535 294.537 122.909 310.45 128.332 309.825C133.754 309.201 145.223 288.241 145.223 288.241L150.97 281.896L143.424 272.253Z" fill="url(#paint19_linear)"/>
<path d="M166.837 273.053L149.621 285.144L139.426 273.053C139.426 273.053 163.339 245.573 164.913 242.8C166.734 238.725 168.335 234.556 169.71 230.309L166.837 273.053Z" fill="url(#paint20_linear)"/>
<path d="M218.437 177.923C218.437 177.923 232.155 182.245 236.603 183.544C248.247 186.891 249.846 192.612 250.621 205.203C251.395 217.793 229.606 285.143 229.606 285.143L163.965 283.57C163.965 283.57 166.838 255.216 167.163 248.596C167.488 241.975 163.015 197.309 163.965 193.487C164.914 189.664 175.659 181.371 187.977 178.673L218.437 177.923Z" fill="url(#paint21_linear)"/>
<path d="M225.279 204.079C225.279 204.079 224.329 238.803 222.105 244.848C219.881 250.894 210.961 279.822 210.961 279.822L230.801 281.346L243.769 244.774L225.279 204.079Z" fill="url(#paint22_linear)"/>
<path d="M222.91 139.901C225.428 134.767 226.425 129.02 225.783 123.339C225.783 123.339 232.78 116.019 220.036 108.674C207.292 101.33 191.6 103.578 186.603 106.776C181.605 109.973 183.43 116.644 183.43 116.644C183.43 116.644 175.783 130.333 186.928 140.851L218.162 145.322L222.91 139.901Z" fill="#192EAD"/>
<path d="M191.751 177.323L183.73 180.021L194.875 245.023L222.286 178.747L214.965 177.174L191.751 177.323Z" fill="url(#paint23_linear)"/>
<path d="M202.521 183.544L194.75 244.249L204.445 183.544H202.521Z" fill="#D0D1D8"/>
<path d="M221.311 150.419C220.991 150.645 220.622 150.794 220.234 150.851C219.846 150.909 219.449 150.874 219.077 150.75C218.705 150.626 218.367 150.416 218.091 150.137C217.815 149.858 217.608 149.518 217.488 149.145C215.914 157.089 214.989 173.976 214.989 173.976C214.989 173.976 208.943 183.969 203.845 183.544C198.748 183.119 194.6 176.224 194.6 176.224L195.174 173.501L196.199 168.505C194.673 169.121 192.987 169.217 191.401 168.78C190.582 168.582 189.787 168.297 189.028 167.931C188.433 167.634 187.857 167.3 187.303 166.931C183.355 164.208 185.704 139.027 186.904 128.26C187.228 125.312 187.453 123.439 187.453 123.439C188.903 125.937 191.751 126.786 200.697 126.162C205.389 125.673 210.131 125.994 214.715 127.111C214.704 127.211 214.704 127.311 214.715 127.411C213.445 133.025 213.809 138.884 215.764 144.298C215.764 144.298 218.638 136.354 222.136 136.654C225.634 136.954 223.86 148.82 221.311 150.419Z" fill="url(#paint24_linear)"/>
<path d="M214.641 127.161C214.63 127.26 214.63 127.361 214.641 127.461C208.48 127.546 202.333 128.08 196.25 129.059C193.137 129.728 189.896 129.468 186.93 128.31C187.255 125.362 187.479 123.489 187.479 123.489C188.929 125.987 191.777 126.836 200.723 126.211C205.382 125.735 210.089 126.056 214.641 127.161Z" fill="#4864D8"/>
<path d="M206.99 161.56C206.99 161.56 203.916 172.202 195.121 173.501L196.145 168.505C194.62 169.121 192.934 169.217 191.348 168.78C194.096 169.354 199.569 168.755 206.99 161.56Z" fill="#4864D8"/>
<path d="M195.197 173.676C193.546 174.789 192.226 176.325 191.374 178.123C190.399 180.621 199.02 193.412 199.02 193.412L202.518 183.419C200.669 182.416 199.059 181.027 197.795 179.346C196.532 177.664 195.646 175.731 195.197 173.676Z" fill="#A7B3C6"/>
<path d="M214.936 173.676C216.212 174.992 217.08 176.65 217.435 178.448C217.76 180.946 206.94 193.437 206.94 193.437L204.441 183.444C208.543 180.903 212.108 177.585 214.936 173.676Z" fill="#A7B3C6"/>
<path d="M312.239 260.611L333.353 360.312C333.862 362.652 333.514 365.096 332.372 367.201C331.23 369.305 329.37 370.93 327.131 371.779C326.641 371.958 326.14 372.109 325.632 372.229L158.542 407.602C157.768 407.754 156.981 407.821 156.193 407.802C154.687 407.772 153.208 407.396 151.87 406.703C150.54 406.026 149.378 405.06 148.47 403.876C147.562 402.691 146.931 401.318 146.623 399.858L125.509 300.132C125.092 298.249 125.24 296.286 125.933 294.486C126.527 292.917 127.507 291.521 128.782 290.43C130.057 289.338 131.587 288.586 133.23 288.241L300.32 252.867C301.61 252.589 302.942 252.569 304.24 252.809C305.537 253.048 306.775 253.542 307.881 254.262C308.986 254.982 309.939 255.914 310.682 257.003C311.426 258.093 311.947 259.319 312.214 260.611H312.239Z" fill="url(#paint25_linear)"/>
<path d="M312.239 260.612L317.087 283.495C294.923 301.431 242.124 343.85 236.177 345.948C229.281 348.296 141.725 308.151 125.634 300.732V300.182C125.218 298.299 125.365 296.336 126.058 294.536C126.652 292.967 127.632 291.572 128.907 290.48C130.182 289.389 131.712 288.636 133.355 288.291L300.445 252.917C301.735 252.639 303.067 252.619 304.365 252.859C305.663 253.098 306.9 253.592 308.006 254.312C309.111 255.032 310.064 255.964 310.807 257.054C311.551 258.143 312.072 259.37 312.339 260.662L312.239 260.612Z" fill="url(#paint26_linear)"/>
<path d="M307.316 376.101L321.359 303.655L333.353 360.288C333.862 362.627 333.514 365.072 332.372 367.176C331.23 369.28 329.37 370.905 327.131 371.754C326.641 371.934 326.14 372.084 325.632 372.204L307.316 376.101Z" fill="url(#paint27_linear)"/>
<path d="M309.715 255.79L235.627 330.135C234.955 330.8 234.208 331.387 233.403 331.884C232.888 332.177 232.354 332.436 231.804 332.658C230.22 333.297 228.511 333.57 226.807 333.458L225.707 333.308C224.937 333.181 224.183 332.972 223.458 332.683L203.469 324.839L199.645 323.34L126.008 294.487C126.602 292.917 127.581 291.522 128.856 290.43C130.132 289.339 131.661 288.586 133.304 288.241L300.394 252.868C302.068 252.517 303.804 252.601 305.436 253.113C307.068 253.625 308.541 254.547 309.715 255.79Z" fill="url(#paint28_linear)"/>
<path d="M126.059 294.387C126.059 294.387 132.431 295.661 135.304 295.985C138.178 296.31 136.579 297.909 133.38 298.209C130.182 298.509 132.855 308.551 127.708 310.4C127.708 310.4 121.636 300.457 126.059 294.387Z" fill="url(#paint29_linear)"/>
<path d="M221.012 310C221.012 310 219.413 311.824 217.639 313.972C216.465 315.421 215.14 316.995 214.316 318.294C212.092 321.467 211.442 330.785 208.893 331.659C206.345 332.533 199.023 331.334 197.749 332.308C196.475 333.283 191.052 335.481 190.103 334.807C189.153 334.132 194.551 330.984 197.099 327.787C199.648 324.589 202.846 318.544 200.298 318.868C197.749 319.193 191.677 321.092 193.601 319.518C195.525 317.944 203.796 313.448 204.746 312.498C205.245 312.024 206.62 310.3 207.869 308.726C209.118 307.152 210.168 305.803 210.168 305.803L221.012 310Z" fill="url(#paint30_linear)"/>
<path d="M221.01 310C221.01 310 219.411 311.824 217.637 313.972L207.867 308.776C209.092 307.252 210.166 305.853 210.166 305.853L221.01 310Z" fill="#4864D8"/>
<path d="M254.07 248.196C253.096 254.266 247.698 267.307 238.128 283.569C228.558 299.832 222.211 312.548 222.211 312.548L214.715 309.2L207.219 305.853C207.219 305.853 213.466 292.987 218.688 281.971C224.76 269.23 230.807 251.718 230.807 244.374C230.807 237.029 222.211 212.522 226.034 199.782C226.944 196.526 228.981 193.699 231.782 191.804C234.582 189.91 237.965 189.072 241.326 189.439C242.777 189.46 244.201 189.832 245.476 190.524C246.751 191.216 247.84 192.207 248.648 193.411C251.896 199.457 255.095 242.15 254.07 248.196Z" fill="url(#paint31_linear)"/>
<path d="M254.066 248.196C253.092 254.266 247.694 267.307 238.124 283.57C228.554 299.833 222.207 312.548 222.207 312.548L214.711 309.201C239.998 286.717 244.521 252.118 248.169 237.529C251.992 222.24 241.323 189.44 241.323 189.44C242.773 189.46 244.197 189.833 245.472 190.525C246.747 191.216 247.836 192.207 248.644 193.412C251.892 199.457 255.091 242.15 254.066 248.196Z" fill="url(#paint32_linear)"/>
<path d="M47.2108 68.7361L63.1104 74.2864L63.797 19L23 58.5574L39.8934 64.0716L51.0954 45.45L47.2108 68.7361Z" fill="url(#paint33_linear)"/>
<path d="M47.2108 68.7361L63.1104 74.2864L63.797 19L23 58.5574L39.8934 64.0716L51.0954 45.45L47.2108 68.7361Z" fill="url(#paint34_linear)"/>
<path d="M319.508 284.639C319.508 284.639 380.072 276.177 358.968 234.559C308.234 134.581 155.598 244.864 93.9685 194.242C29.5569 141.378 41.1383 67.127 41.1383 67.127" stroke="#18317F" stroke-width="1.6" stroke-miterlimit="10" stroke-linecap="round" stroke-dasharray="5.01 6.01"/>
<defs>
<linearGradient id="paint0_linear" x1="377.105" y1="523.516" x2="390.324" y2="523.516" gradientUnits="userSpaceOnUse">
<stop stop-color="#546AEA"/>
<stop offset="1" stop-color="#658BFD"/>
</linearGradient>
<linearGradient id="paint1_linear" x1="6205.14" y1="3807.48" x2="6278.28" y2="3807.48" gradientUnits="userSpaceOnUse">
<stop stop-color="#546AEA"/>
<stop offset="1" stop-color="#658BFD"/>
</linearGradient>
<linearGradient id="paint2_linear" x1="421.559" y1="270.979" x2="421.559" y2="447.548" gradientUnits="userSpaceOnUse">
<stop stop-color="#24247F"/>
<stop offset="1" stop-color="#2D2D96"/>
</linearGradient>
<linearGradient id="paint3_linear" x1="542.124" y1="417.72" x2="268.14" y2="410.072" gradientUnits="userSpaceOnUse">
<stop stop-color="#242463"/>
<stop offset="1" stop-color="#242463" stop-opacity="0"/>
</linearGradient>
<linearGradient id="paint4_linear" x1="20343.9" y1="68081.3" x2="16027.6" y2="67683.9" gradientUnits="userSpaceOnUse">
<stop stop-color="#242463"/>
<stop offset="1" stop-color="#242463" stop-opacity="0"/>
</linearGradient>
<linearGradient id="paint5_linear" x1="10463" y1="8769.49" x2="10482.4" y2="9114.85" gradientUnits="userSpaceOnUse">
<stop stop-color="#546AEA"/>
<stop offset="1" stop-color="#658BFD"/>
</linearGradient>
<linearGradient id="paint6_linear" x1="4220.62" y1="3354.13" x2="4164.07" y2="3351.36" gradientUnits="userSpaceOnUse">
<stop stop-color="#546AEA"/>
<stop offset="1" stop-color="#658BFD"/>
</linearGradient>
<linearGradient id="paint7_linear" x1="4328.26" y1="3351.39" x2="4362.65" y2="3351.39" gradientUnits="userSpaceOnUse">
<stop stop-color="#546AEA"/>
<stop offset="1" stop-color="#658BFD"/>
</linearGradient>
<linearGradient id="paint8_linear" x1="14427.4" y1="11766.6" x2="13797" y2="11229.9" gradientUnits="userSpaceOnUse">
<stop stop-color="#546AEA"/>
<stop offset="1" stop-color="#658BFD"/>
</linearGradient>
<linearGradient id="paint9_linear" x1="22670.3" y1="39130.8" x2="18949.3" y2="35949.4" gradientUnits="userSpaceOnUse">
<stop stop-color="#20E3B2"/>
<stop offset="1" stop-color="#29FFC6"/>
</linearGradient>
<linearGradient id="paint10_linear" x1="18357" y1="39573.1" x2="14816" y2="37168.7" gradientUnits="userSpaceOnUse">
<stop stop-color="#20E3B2"/>
<stop offset="1" stop-color="#29FFC6"/>
</linearGradient>
<linearGradient id="paint11_linear" x1="370.636" y1="322.291" x2="446.968" y2="162.895" gradientUnits="userSpaceOnUse">
<stop stop-color="#20E3B2"/>
<stop offset="1" stop-color="#20E3B2" stop-opacity="0"/>
</linearGradient>
<linearGradient id="paint12_linear" x1="6872" y1="34299.4" x2="4214.46" y2="33685.8" gradientUnits="userSpaceOnUse">
<stop stop-color="#FF911E"/>
<stop offset="1" stop-color="#FE931E" stop-opacity="0"/>
</linearGradient>
<linearGradient id="paint13_linear" x1="14134.7" y1="16488.4" x2="14625.2" y2="16488.4" gradientUnits="userSpaceOnUse">
<stop stop-color="#546AEA"/>
<stop offset="1" stop-color="#658BFD"/>
</linearGradient>
<linearGradient id="paint14_linear" x1="10182.3" y1="25269.5" x2="10386.9" y2="25269.5" gradientUnits="userSpaceOnUse">
<stop stop-color="#546AEA"/>
<stop offset="1" stop-color="#658BFD"/>
</linearGradient>
<linearGradient id="paint15_linear" x1="9990.91" y1="44774" x2="8963.46" y2="51192.5" gradientUnits="userSpaceOnUse">
<stop stop-color="#24247F"/>
<stop offset="1" stop-color="#2D2D96"/>
</linearGradient>
<linearGradient id="paint16_linear" x1="25706.8" y1="45644.5" x2="29723.9" y2="50044.2" gradientUnits="userSpaceOnUse">
<stop stop-color="#24247F"/>
<stop offset="1" stop-color="#2D2D96"/>
</linearGradient>
<linearGradient id="paint17_linear" x1="9987.79" y1="7154.3" x2="9987.79" y2="7475.57" gradientUnits="userSpaceOnUse">
<stop stop-color="#242463"/>
<stop offset="1" stop-color="#242463" stop-opacity="0"/>
</linearGradient>
<linearGradient id="paint18_linear" x1="12625.9" y1="9198.28" x2="12625.9" y2="9764.65" gradientUnits="userSpaceOnUse">
<stop stop-color="#242463"/>
<stop offset="1" stop-color="#242463" stop-opacity="0"/>
</linearGradient>
<linearGradient id="paint19_linear" x1="9425.59" y1="10949.3" x2="9828.29" y2="10949.3" gradientUnits="userSpaceOnUse">
<stop stop-color="#546AEA"/>
<stop offset="1" stop-color="#658BFD"/>
</linearGradient>
<linearGradient id="paint20_linear" x1="179.555" y1="243.874" x2="131.013" y2="277.76" gradientUnits="userSpaceOnUse">
<stop stop-color="#E1E1E1"/>
<stop offset="1" stop-color="white"/>
</linearGradient>
<linearGradient id="paint21_linear" x1="29434" y1="30155.7" x2="26729.8" y2="26213.7" gradientUnits="userSpaceOnUse">
<stop stop-color="#20E3B2"/>
<stop offset="1" stop-color="#29FFC6"/>
</linearGradient>
<linearGradient id="paint22_linear" x1="11252" y1="22050" x2="11112.1" y2="19247.8" gradientUnits="userSpaceOnUse">
<stop stop-color="#FF911E"/>
<stop offset="1" stop-color="#FE931E" stop-opacity="0"/>
</linearGradient>
<linearGradient id="paint23_linear" x1="10990" y1="15222.1" x2="10852.8" y2="10916" gradientUnits="userSpaceOnUse">
<stop stop-color="#E1E1E1"/>
<stop offset="1" stop-color="white"/>
</linearGradient>
<linearGradient id="paint24_linear" x1="12634.6" y1="13890" x2="13242.4" y2="13890" gradientUnits="userSpaceOnUse">
<stop stop-color="#546AEA"/>
<stop offset="1" stop-color="#658BFD"/>
</linearGradient>
<linearGradient id="paint25_linear" x1="312.714" y1="270.654" x2="164.887" y2="376.458" gradientUnits="userSpaceOnUse">
<stop stop-color="#DFE1E5"/>
<stop offset="1" stop-color="#F3F3F3"/>
</linearGradient>
<linearGradient id="paint26_linear" x1="219.461" y1="157.713" x2="222.008" y2="353.917" gradientUnits="userSpaceOnUse">
<stop stop-color="#B9BEC6"/>
<stop offset="1" stop-color="#B9BEC6" stop-opacity="0"/>
</linearGradient>
<linearGradient id="paint27_linear" x1="11174" y1="24387.7" x2="9404.96" y2="23953.5" gradientUnits="userSpaceOnUse">
<stop stop-color="#B9BEC6"/>
<stop offset="1" stop-color="#B9BEC6" stop-opacity="0"/>
</linearGradient>
<linearGradient id="paint28_linear" x1="62538.5" y1="20638.9" x2="61978.8" y2="25114.1" gradientUnits="userSpaceOnUse">
<stop stop-color="#DFE1E5"/>
<stop offset="1" stop-color="#F3F3F3"/>
</linearGradient>
<linearGradient id="paint29_linear" x1="3771.26" y1="4915.45" x2="3832.43" y2="4915.45" gradientUnits="userSpaceOnUse">
<stop stop-color="#546AEA"/>
<stop offset="1" stop-color="#658BFD"/>
</linearGradient>
<linearGradient id="paint30_linear" x1="10158.3" y1="8922.39" x2="10543.5" y2="8922.39" gradientUnits="userSpaceOnUse">
<stop stop-color="#546AEA"/>
<stop offset="1" stop-color="#658BFD"/>
</linearGradient>
<linearGradient id="paint31_linear" x1="16897.7" y1="33449" x2="15933.1" y2="33405.4" gradientUnits="userSpaceOnUse">
<stop stop-color="#E1E1E1"/>
<stop offset="1" stop-color="white"/>
</linearGradient>
<linearGradient id="paint32_linear" x1="314.461" y1="275.351" x2="175.861" y2="234.238" gradientUnits="userSpaceOnUse">
<stop stop-color="#BCCACE"/>
<stop offset="1" stop-color="#BCCACE" stop-opacity="0"/>
</linearGradient>
<linearGradient id="paint33_linear" x1="-137007" y1="-34889.6" x2="-137403" y2="-35990" gradientUnits="userSpaceOnUse">
<stop stop-color="#00C2A5"/>
<stop offset="1" stop-color="#00CDBF"/>
</linearGradient>
<linearGradient id="paint34_linear" x1="23" y1="46.6432" x2="63.797" y2="46.6432" gradientUnits="userSpaceOnUse">
<stop stop-color="#0CEBEB"/>
<stop offset="0.5" stop-color="#20E3B2"/>
<stop offset="1" stop-color="#29FFC6"/>
</linearGradient>
</defs>
</svg>
