<svg width="629" height="696" viewBox="0 0 629 696" fill="none" xmlns="http://www.w3.org/2000/svg">
<path fill-rule="evenodd" clip-rule="evenodd" d="M234.643 32.0436C317.33 24.5413 411.308 -28.9925 477.389 21.3143C543.65 71.7577 507.449 179.385 532.545 258.831C557.322 337.271 654.001 405.814 622.898 481.963C591.232 559.49 473.262 543.029 399.959 583.435C340.118 616.42 302.942 694.444 234.643 695.975C166.171 697.51 121.863 627.415 63.8569 590.97C-0.0815125 550.797 -90.163 540.161 -122.222 471.755C-154.887 402.057 -122.514 320.483 -96.9372 247.879C-71.9475 176.94 -41.1046 103.652 21.8977 62.6416C83.4629 22.5671 161.502 38.6798 234.643 32.0436Z" fill="#C4C4C4"/>
<path fill-rule="evenodd" clip-rule="evenodd" d="M234.643 32.0436C317.33 24.5413 411.308 -28.9925 477.389 21.3143C543.65 71.7577 507.449 179.385 532.545 258.831C557.322 337.271 654.001 405.814 622.898 481.963C591.232 559.49 473.262 543.029 399.959 583.435C340.118 616.42 302.942 694.444 234.643 695.975C166.171 697.51 121.863 627.415 63.8569 590.97C-0.0815125 550.797 -90.163 540.161 -122.222 471.755C-154.887 402.057 -122.514 320.483 -96.9372 247.879C-71.9475 176.94 -41.1046 103.652 21.8977 62.6416C83.4629 22.5671 161.502 38.6798 234.643 32.0436Z" fill="url(#paint0_linear)"/>
<defs>
<linearGradient id="paint0_linear" x1="629" y1="348" x2="-147.25" y2="348" gradientUnits="userSpaceOnUse">
<stop stop-color="#00C6FF"/>
<stop offset="1" stop-color="#0072FF"/>
</linearGradient>
</defs>
</svg>
