<svg width="87" height="60" viewBox="0 0 87 60" fill="none" xmlns="http://www.w3.org/2000/svg">
<g clip-path="url(#clip0)">
<path d="M36.4599 6.54547C39.2335 3.66517 43.0949 1.87872 47.3655 1.87872C53.0425 1.87872 57.9954 5.03376 60.6331 9.7175C62.9252 8.69682 65.4623 8.129 68.1317 8.129C78.3708 8.129 86.6719 16.4746 86.6719 26.7688C86.6719 37.0642 78.3708 45.4098 68.1317 45.4098C66.9053 45.4105 65.6819 45.289 64.4797 45.0471C62.1571 49.1765 57.7309 51.9665 52.6505 51.9665C50.5237 51.9665 48.5122 51.477 46.7211 50.6064C44.3665 56.1265 38.8807 59.997 32.487 59.997C25.8287 59.997 20.1542 55.798 17.976 49.9091C17.0242 50.1106 16.038 50.2156 15.026 50.2156C7.09863 50.2157 0.671875 43.7444 0.671875 35.7603C0.671875 30.4099 3.55937 25.7383 7.84956 23.2389C6.96632 21.2133 6.47502 18.9776 6.47502 16.6271C6.47502 7.44526 13.9541 0.00210571 23.1789 0.00210571C28.5949 0.00210571 33.4083 2.56864 36.4599 6.54547Z" fill="white"/>
<path d="M13.1283 31.1145C13.0744 31.255 13.1479 31.2843 13.1651 31.3087C13.3267 31.4259 13.491 31.5102 13.6564 31.6042C14.5335 32.0681 15.3617 32.2036 16.2278 32.2036C17.9919 32.2036 19.0871 31.2683 19.0871 29.7628V29.7336C19.0871 28.3415 17.8511 27.8361 16.6909 27.471L16.5402 27.4222C15.6655 27.1389 14.9109 26.8948 14.9109 26.3209V26.2904C14.9109 25.7995 15.3519 25.4381 16.0355 25.4381C16.7951 25.4381 17.6967 25.6896 18.2774 26.0095C18.2774 26.0095 18.4477 26.1194 18.5102 25.9546C18.5444 25.8666 18.8385 25.0779 18.8691 24.9924C18.9022 24.8996 18.8434 24.8312 18.7834 24.7946C18.1206 24.3928 17.2042 24.1181 16.2561 24.1181L16.0797 24.1193C14.4651 24.1193 13.338 25.0912 13.338 26.4844V26.5137C13.338 27.9825 14.5814 28.4587 15.7465 28.7909L15.9339 28.8483C16.7829 29.1083 17.5143 29.3318 17.5143 29.9276V29.957C17.5143 30.5015 17.039 30.9069 16.2721 30.9069C15.9744 30.9069 15.025 30.9008 13.9996 30.2548C13.8758 30.1827 13.8036 30.1303 13.708 30.0729C13.6578 30.0411 13.5316 29.9861 13.4765 30.1523L13.1283 31.1145ZM38.9539 31.1145C38.9 31.255 38.9736 31.2843 38.9907 31.3087C39.1524 31.4259 39.3166 31.5102 39.4819 31.6042C40.359 32.0681 41.1874 32.2036 42.0534 32.2036C43.8174 32.2036 44.9127 31.2683 44.9127 29.7628V29.7336C44.9127 28.3415 43.6766 27.8361 42.5164 27.471L42.3658 27.4222C41.4911 27.1389 40.7363 26.8948 40.7363 26.3209V26.2904C40.7363 25.7995 41.1774 25.4381 41.861 25.4381C42.6205 25.4381 43.5222 25.6896 44.1029 26.0095C44.1029 26.0095 44.2732 26.1194 44.3356 25.9546C44.3699 25.8666 44.6639 25.0779 44.6946 24.9924C44.7277 24.8996 44.6688 24.8312 44.6088 24.7946C43.9461 24.3928 43.0297 24.1181 42.0815 24.1181L41.9051 24.1193C40.2904 24.1193 39.1634 25.0912 39.1634 26.4844V26.5137C39.1634 27.9825 40.4068 28.4587 41.5719 28.7909L41.7593 28.8483C42.6083 29.1083 43.341 29.3318 43.341 29.9276V29.957C43.341 30.5015 42.8644 30.9069 42.0975 30.9069C41.7999 30.9069 40.8504 30.9008 39.825 30.2548C39.7012 30.1827 39.6278 30.1327 39.5348 30.0729C39.5028 30.0521 39.3534 29.9947 39.3019 30.1523L38.9539 31.1145ZM56.5844 28.1656C56.5844 29.0166 56.4252 29.6869 56.1116 30.1607C55.8016 30.6296 55.3324 30.8579 54.6783 30.8579C54.0229 30.8579 53.5562 30.6308 53.2511 30.1607C52.9423 29.6882 52.7856 29.0166 52.7856 28.1656C52.7856 27.3158 52.9423 26.6466 53.2511 26.1777C53.5562 25.7138 54.0229 25.4879 54.6783 25.4879C55.3325 25.4879 55.8017 25.7138 56.1129 26.1777C56.4253 26.6465 56.5844 27.3157 56.5844 28.1656ZM58.057 26.588C57.9124 26.1008 57.687 25.671 57.3869 25.3133C57.0867 24.9543 56.707 24.6662 56.2561 24.4562C55.8065 24.2474 55.2749 24.1412 54.6783 24.1412C54.0805 24.1412 53.5488 24.2474 53.0992 24.4562C52.6483 24.6662 52.2686 24.9544 51.9672 25.3133C51.6683 25.6723 51.4429 26.1021 51.2971 26.588C51.1538 27.0727 51.0815 27.6026 51.0815 28.1656C51.0815 28.7285 51.1538 29.2596 51.2971 29.7431C51.4429 30.229 51.6671 30.6589 51.9685 31.0178C52.2686 31.3768 52.6496 31.6637 53.0992 31.8676C53.55 32.0715 54.0804 32.1753 54.6784 32.1753C55.275 32.1753 55.8054 32.0715 56.2562 31.8676C56.7058 31.6637 57.0867 31.3767 57.387 31.0178C57.6871 30.66 57.9125 30.2302 58.0571 29.7431C58.2017 29.2584 58.274 28.7272 58.274 28.1656C58.274 27.6039 58.2016 27.0727 58.057 26.588ZM70.1493 30.6306C70.1003 30.4877 69.9618 30.5414 69.9618 30.5414C69.7475 30.6233 69.5195 30.699 69.277 30.7368C69.0307 30.7746 68.76 30.7942 68.4696 30.7942C67.7568 30.7942 67.1907 30.583 66.7853 30.1654C66.3785 29.7478 66.1506 29.0726 66.1531 28.1593C66.1556 27.3278 66.3564 26.7026 66.7179 26.2265C67.0769 25.7528 67.6232 25.5097 68.3521 25.5097C68.9598 25.5097 69.4229 25.5793 69.9079 25.7319C69.9079 25.7319 70.0243 25.7819 70.0794 25.6306C70.208 25.274 70.3035 25.0188 70.4407 24.6269C70.48 24.5158 70.3844 24.4682 70.3501 24.4547C70.159 24.3802 69.7082 24.2594 69.3676 24.2081C69.0491 24.1593 68.6767 24.1336 68.2626 24.1336C67.6438 24.1336 67.0926 24.2387 66.621 24.4487C66.1506 24.6574 65.7512 24.9456 65.4352 25.3046C65.1191 25.6636 64.879 26.0933 64.7185 26.5793C64.5593 27.064 64.4784 27.5964 64.4784 28.1593C64.4784 29.3766 64.808 30.3607 65.4585 31.0811C66.1102 31.804 67.0891 32.1715 68.3656 32.1715C69.1203 32.1715 69.8945 32.0189 70.4507 31.8003C70.4507 31.8003 70.5573 31.749 70.5107 31.6258L70.1493 30.6306ZM72.7257 27.3503C72.7955 26.8778 72.9267 26.4846 73.1288 26.1782C73.4339 25.713 73.8993 25.4578 74.5536 25.4578C75.2078 25.4578 75.6403 25.7142 75.9502 26.1782C76.156 26.4846 76.2454 26.8949 76.281 27.3503H72.7257ZM77.6836 26.3112C77.5587 25.8411 77.2487 25.3661 77.0453 25.1487C76.7243 24.8044 76.4108 24.5639 76.0996 24.4296C75.6929 24.2562 75.2053 24.1414 74.6712 24.1414C74.0489 24.1414 73.4841 24.2453 73.0259 24.4601C72.5666 24.675 72.1807 24.9681 71.878 25.3332C71.5754 25.697 71.3476 26.1305 71.2029 26.6225C71.0572 27.1122 70.9837 27.6458 70.9837 28.2085C70.9837 28.7813 71.0597 29.3148 71.2104 29.7946C71.3623 30.2782 71.6048 30.7043 71.9331 31.0571C72.2602 31.4125 72.6817 31.6909 73.1864 31.8849C73.6875 32.0779 74.2964 32.178 74.9958 32.1767C76.4353 32.1718 77.1936 31.852 77.506 31.6798C77.5612 31.6493 77.6139 31.5956 77.5476 31.4417L77.2217 30.532C77.1728 30.3965 77.0343 30.4466 77.0343 30.4466C76.6778 30.5784 76.1707 30.8153 74.9884 30.8129C74.2154 30.8117 73.642 30.5846 73.283 30.2292C72.9143 29.8654 72.7342 29.3305 72.7024 28.576L77.6872 28.5809C77.6872 28.5809 77.8182 28.5785 77.8318 28.4514C77.8367 28.3979 78.0034 27.4308 77.6836 26.3112ZM32.8046 27.3503C32.8757 26.8778 33.0056 26.4846 33.2077 26.1782C33.5127 25.713 33.9783 25.4578 34.6324 25.4578C35.2866 25.4578 35.7191 25.7142 36.0302 26.1782C36.2347 26.4846 36.3242 26.8949 36.3597 27.3503H32.8046ZM37.7612 26.3112C37.6363 25.8411 37.3276 25.3661 37.1243 25.1487C36.8032 24.8044 36.4896 24.5639 36.1785 24.4296C35.7718 24.2562 35.2843 24.1414 34.7501 24.1414C34.129 24.1414 33.563 24.2453 33.1048 24.4601C32.6455 24.675 32.2595 24.9681 31.957 25.3332C31.6544 25.697 31.4265 26.1305 31.282 26.6225C31.1374 27.1122 31.0627 27.6458 31.0627 28.2085C31.0627 28.7813 31.1386 29.3148 31.2894 29.7946C31.4413 30.2782 31.6839 30.7043 32.0121 31.0571C32.3393 31.4125 32.7607 31.6909 33.2654 31.8849C33.7665 32.0779 34.3753 32.178 35.0748 32.1767C36.5143 32.1718 37.2726 31.852 37.585 31.6798C37.6402 31.6493 37.6928 31.5956 37.6267 31.4417L37.302 30.532C37.2518 30.3965 37.1134 30.4466 37.1134 30.4466C36.7569 30.5784 36.2509 30.8153 35.0663 30.8129C34.2945 30.8117 33.7212 30.5846 33.3622 30.2292C32.9934 29.8654 32.8134 29.3305 32.7815 28.576L37.7663 28.5809C37.7663 28.5809 37.8973 28.5785 37.9108 28.4514C37.9156 28.3979 38.0821 27.4308 37.7612 26.3112ZM22.03 30.6034C21.8352 30.4483 21.8083 30.4092 21.7422 30.3091C21.6441 30.1565 21.5939 29.9391 21.5939 29.6632C21.5939 29.226 21.7385 28.9123 22.0386 28.701C22.035 28.7023 22.4674 28.3287 23.4842 28.342C24.1984 28.3518 24.8366 28.4568 24.8366 28.4568V30.7157H24.8378C24.8378 30.7157 24.2045 30.8512 23.4915 30.8939C22.4772 30.955 22.0263 30.6022 22.03 30.6034ZM24.0134 27.1125C23.8112 27.0979 23.549 27.0893 23.2354 27.0893C22.8079 27.0893 22.395 27.143 22.0079 27.2468C21.6184 27.3505 21.268 27.513 20.9666 27.7278C20.6657 27.9419 20.4183 28.2222 20.2438 28.5471C20.0674 28.8744 19.978 29.2602 19.978 29.6925C19.978 30.132 20.0539 30.5142 20.2059 30.8268C20.3578 31.1406 20.5771 31.4019 20.8563 31.6034C21.1332 31.8049 21.475 31.9525 21.8719 32.0417C22.2627 32.1308 22.7062 32.1759 23.1913 32.1759C23.7022 32.1759 24.2118 32.1345 24.7055 32.0502C25.1943 31.9671 25.7946 31.8462 25.9612 31.8085C26.078 31.7804 26.1944 31.7507 26.3103 31.7193C26.4341 31.6889 26.4243 31.5569 26.4243 31.5569L26.4218 27.0136C26.4218 26.0172 26.1548 25.2785 25.6292 24.8206C25.1061 24.364 24.3355 24.1331 23.3396 24.1331C22.9659 24.1331 22.3644 24.1845 22.0042 24.2565C22.0042 24.2565 20.9151 24.4665 20.4667 24.8157C20.4667 24.8157 20.3687 24.8768 20.4226 25.0136L20.7755 25.9587C20.8196 26.0808 20.9385 26.0393 20.9385 26.0393C20.9385 26.0393 20.9764 26.0246 21.0206 25.9989C21.9798 25.4788 23.1926 25.4947 23.1926 25.4947C23.7317 25.4947 24.1458 25.6021 24.425 25.8157C24.697 26.0233 24.8354 26.3371 24.8354 26.9988V27.2089C24.4066 27.1479 24.0134 27.1125 24.0134 27.1125ZM64.218 24.5526C64.2559 24.4402 64.1764 24.3865 64.1432 24.3743C64.0588 24.3414 63.6349 24.2522 63.3077 24.2314C62.6818 24.1936 62.3339 24.2986 62.0227 24.4378C61.714 24.577 61.371 24.8016 61.1798 25.0568V24.4525C61.1798 24.3682 61.1198 24.301 61.0365 24.301H59.7587C59.6754 24.301 59.6154 24.3681 59.6154 24.4525V31.8627C59.6154 31.9457 59.684 32.0141 59.7673 32.0141H61.0769C61.117 32.0139 61.1554 31.9978 61.1836 31.9694C61.2119 31.941 61.2277 31.9027 61.2276 31.8627V28.1607C61.2276 27.6637 61.2827 27.168 61.393 26.8567C61.5008 26.5489 61.6478 26.3023 61.8291 26.1252C62.0116 25.9494 62.2187 25.8261 62.4453 25.7565C62.6768 25.6857 62.9328 25.6625 63.1142 25.6625C63.3751 25.6625 63.6618 25.7296 63.6618 25.7296C63.7573 25.7406 63.8113 25.682 63.843 25.5953C63.9289 25.3682 64.1714 24.6881 64.218 24.5526Z" fill="#C4CFDB"/>
<path d="M51.9269 21.1182C51.7676 21.0694 51.6231 21.0364 51.4344 21.001C51.2432 20.9669 51.0154 20.9497 50.757 20.9497C49.8552 20.9497 49.1447 21.2037 48.6461 21.7042C48.1499 22.2025 47.813 22.9607 47.6439 23.9583L47.5826 24.294H46.4508C46.4508 24.294 46.3135 24.2891 46.2841 24.4382L46.0992 25.4723C46.0857 25.5701 46.1286 25.6323 46.2609 25.6323H47.3622L46.2449 31.8496C46.1579 32.3502 46.0574 32.7617 45.946 33.0742C45.8369 33.382 45.7304 33.6127 45.5981 33.7812C45.4707 33.9424 45.3506 34.062 45.1423 34.1316C44.9708 34.189 44.7723 34.2159 44.5555 34.2159C44.4354 34.2159 44.275 34.1962 44.1561 34.1719C44.0385 34.1486 43.976 34.1231 43.8866 34.0851C43.8866 34.0851 43.758 34.0364 43.7065 34.1646C43.666 34.2708 43.3721 35.0753 43.3365 35.1744C43.3022 35.2732 43.3512 35.3502 43.4136 35.3733C43.5607 35.4246 43.6697 35.4588 43.8694 35.5064C44.1463 35.5712 44.3802 35.5748 44.5995 35.5748C45.0576 35.5748 45.4766 35.5101 45.8234 35.3856C46.1713 35.2598 46.475 35.0412 46.7446 34.7458C47.0349 34.4258 47.2174 34.0913 47.3915 33.6335C47.5642 33.1817 47.7125 32.62 47.83 31.9656L48.9535 25.6323H50.595C50.595 25.6323 50.7334 25.6371 50.7617 25.487L50.9478 24.454C50.9601 24.3552 50.9185 24.2941 50.7849 24.2941H49.1911C49.1997 24.2588 49.2719 23.6994 49.4545 23.1733C49.5329 22.9499 49.6799 22.7679 49.8036 22.6433C49.9262 22.5212 50.0671 22.4346 50.2215 22.3845C50.3795 22.3331 50.5597 22.3088 50.7569 22.3088C50.9063 22.3088 51.0545 22.3259 51.166 22.349C51.3203 22.3821 51.3803 22.3991 51.4209 22.4114C51.5838 22.4602 51.6058 22.4126 51.6377 22.3345L52.0187 21.2918C52.0579 21.1792 51.9611 21.1316 51.9269 21.1182ZM29.6581 31.8631C29.6581 31.9461 29.5981 32.0133 29.5148 32.0133H28.1929C28.1096 32.0133 28.0508 31.9461 28.0508 31.8631V21.2599C28.0508 21.1769 28.1096 21.1097 28.1929 21.1097H29.5148C29.5981 21.1097 29.6581 21.1769 29.6581 21.2599V31.8631Z" fill="#C4CFDB"/>
</g>
<defs>
<clipPath id="clip0">
<rect width="86" height="60" fill="white" transform="translate(0.671875)"/>
</clipPath>
</defs>
</svg>
