<svg width="131" height="23" viewBox="0 0 131 23" fill="none" xmlns="http://www.w3.org/2000/svg">
<g clip-path="url(#clip0)">
<rect x="0.636719" y="7.55713" width="15.0013" height="15.1143" fill="white" fill-opacity="0.3"/>
<path d="M27.4092 19.5869L30.6871 16.9984C31.6084 18.605 33.0791 19.5333 34.7623 19.5333C36.5873 19.5333 37.5618 18.3373 37.5618 17.0341C37.5618 15.481 35.6837 14.9811 33.6815 14.3563C31.1655 13.5708 28.3483 12.5889 28.3483 8.96501C28.3483 5.93018 30.9706 3.52017 34.6029 3.52017C37.6681 3.52017 39.4223 4.68055 40.9461 6.26937L37.9871 8.51871C37.2075 7.35833 36.1089 6.73352 34.6383 6.73352C32.9728 6.73352 32.0691 7.64396 32.0691 8.84004C32.0691 10.286 33.8764 10.7859 35.8786 11.4643C38.43 12.3033 41.3181 13.428 41.3181 17.0698C41.3181 20.0867 38.9439 22.9788 34.7978 22.9788C31.3781 22.9966 29.1101 21.5328 27.4092 19.5869ZM56.2193 9.75049H59.7276V11.1965C60.5603 10.1254 61.8184 9.48271 63.289 9.48271C66.3188 9.48271 68.1615 11.4464 68.1615 14.8026V22.711H64.5824V15.2846C64.5824 13.5529 63.7851 12.5354 62.2082 12.5354C60.8616 12.5354 59.763 13.4637 59.763 15.6416V22.7288H56.237V9.75049H56.2193ZM68.9589 16.2486C68.9589 11.6606 72.3077 9.50056 75.2135 9.50056C76.879 9.50056 78.2079 10.1254 79.0584 11.0358V3.78795H82.5843V22.7288H79.0584V21.2828C78.2079 22.3004 76.8436 22.9966 75.178 22.9966C72.4494 22.9966 68.9589 20.8008 68.9589 16.2486ZM79.1647 16.2129C79.1647 14.2849 77.7826 12.7318 75.8691 12.7318C73.92 12.7318 72.414 14.2135 72.414 16.2129C72.414 18.2123 73.9023 19.7119 75.8691 19.7119C77.7649 19.7119 79.1647 18.1409 79.1647 16.2129ZM83.4171 13.2673C83.4171 7.87604 87.4569 3.53802 93.0205 3.53802C95.8023 3.53802 98.1411 4.55558 99.8421 6.16226C100.533 6.82278 101.118 7.57256 101.578 8.39374L98.4423 10.3218C97.2906 8.16167 95.5011 7.05485 93.0559 7.05485C89.6363 7.05485 86.9785 9.87545 86.9785 13.2852C86.9785 16.7663 89.5831 19.5155 93.18 19.5155C95.9086 19.5155 97.8399 17.9624 98.5132 15.5524H92.613V12.0712H102.376V13.5172C102.376 18.605 98.779 22.9788 93.18 22.9788C87.2974 22.9966 83.4171 18.4979 83.4171 13.2673ZM103.262 9.75049H106.77V11.8749C107.408 10.5181 108.577 9.75049 110.331 9.75049H111.749L110.455 13.2138H109.499C107.62 13.2138 106.788 14.1956 106.788 16.6056V22.7288H103.262V9.75049ZM112.653 9.75049H116.178V22.7288H112.653V13.2138H111.377L112.653 9.75049ZM114.424 7.78678C115.594 7.78678 116.533 6.84063 116.533 5.6624C116.533 4.48418 115.594 3.53802 114.424 3.53802C113.255 3.53802 112.316 4.48418 112.316 5.6624C112.316 6.82278 113.255 7.78678 114.424 7.78678ZM117.011 16.2486C117.011 11.6606 120.36 9.50056 123.266 9.50056C124.931 9.50056 126.26 10.1254 127.111 11.0358V3.78795H130.637V22.7288H127.111V21.2828C126.26 22.3004 124.896 22.9966 123.23 22.9966C120.484 22.9966 117.011 20.8008 117.011 16.2486ZM127.217 16.2129C127.217 14.2849 125.835 12.7318 123.921 12.7318C121.972 12.7318 120.466 14.2135 120.466 16.2129C120.466 18.2123 121.955 19.7119 123.921 19.7119C125.817 19.7119 127.217 18.1409 127.217 16.2129ZM55.3866 16.2129C55.3866 12.4818 52.6756 9.50056 48.7422 9.50056C45.039 9.50056 42.0446 12.5175 42.0446 16.2486C42.0446 19.9796 44.8264 22.9966 48.8485 22.9966C51.6303 22.9966 53.6324 21.6399 54.7487 19.7119L51.9492 18.0338C51.3645 19.1763 50.2128 19.8904 48.8662 19.8904C47.0058 19.8904 45.8541 18.9621 45.4465 17.5339H55.3866V16.2129ZM45.606 14.6598C46.1553 13.4458 47.2715 12.6068 48.7776 12.6068C50.2659 12.6068 51.3822 13.303 51.8429 14.6598H45.606Z" fill="white"/>
<path d="M0.636719 15.1597H8.14933V22.7289H0.636719V15.1597Z" fill="white"/>
<path d="M15.6788 7.57263V0.00341797H8.14844V15.1597H23.1914V7.57263H15.6788Z" fill="white" fill-opacity="0.6"/>
<path d="M15.6797 0.00341797H23.1923V7.57263H15.6797V0.00341797Z" fill="white"/>
</g>
<defs>
<clipPath id="clip0">
<rect width="130" height="23" fill="white" transform="translate(0.636719)"/>
</clipPath>
</defs>
</svg>
