<?xml version="1.0" encoding="UTF-8" standalone="no"?>
<!-- Created with Inkscape (http://www.inkscape.org/) -->

<svg
   xmlns:dc="http://purl.org/dc/elements/1.1/"
   xmlns:cc="http://creativecommons.org/ns#"
   xmlns:rdf="http://www.w3.org/1999/02/22-rdf-syntax-ns#"
   xmlns:svg="http://www.w3.org/2000/svg"
   xmlns="http://www.w3.org/2000/svg"
   xmlns:sodipodi="http://sodipodi.sourceforge.net/DTD/sodipodi-0.dtd"
   xmlns:inkscape="http://www.inkscape.org/namespaces/inkscape"
   width="48.683334mm"
   height="11.90625mm"
   viewBox="0 0 48.683334 11.90625"
   version="1.1"
   id="svg108"
   inkscape:version="0.92.4 (5da689c313, 2019-01-14)"
   sodipodi:docname="drawing.svg">
  <defs
     id="defs102">
    <inkscape:perspective
       sodipodi:type="inkscape:persp3d"
       inkscape:vp_x="-87.878645 : 35.701429 : 1"
       inkscape:vp_y="0 : 999.99997 : 0"
       inkscape:vp_z="122.12136 : 35.701429 : 1"
       inkscape:persp3d-origin="17.121359 : -13.79857 : 1"
       id="perspective137" />
    <clipPath
       id="clip0">
      <rect
         style="fill:#ffffff"
         y="0"
         x="0"
         width="184"
         height="45"
         id="rect91" />
    </clipPath>
  </defs>
  <sodipodi:namedview
     id="base"
     pagecolor="#ffffff"
     bordercolor="#666666"
     borderopacity="1.0"
     inkscape:pageopacity="0.0"
     inkscape:pageshadow="2"
     inkscape:zoom="0.35"
     inkscape:cx="163.42857"
     inkscape:cy="82.500006"
     inkscape:document-units="mm"
     inkscape:current-layer="layer1"
     showgrid="false"
     inkscape:window-width="1920"
     inkscape:window-height="1017"
     inkscape:window-x="-8"
     inkscape:window-y="-8"
     inkscape:window-maximized="1" />
  <metadata
     id="metadata105">
    <rdf:RDF>
      <cc:Work
         rdf:about="">
        <dc:format>image/svg+xml</dc:format>
        <dc:type
           rdf:resource="http://purl.org/dc/dcmitype/StillImage" />
        <dc:title></dc:title>
      </cc:Work>
    </rdf:RDF>
  </metadata>
  <g
     inkscape:label="Layer 1"
     inkscape:groupmode="layer"
     id="layer1"
     transform="translate(-62.592857,-158.75521)">
    <g
       clip-path="url(#clip0)"
       id="g89"
       transform="matrix(0.26458333,0,0,0.26458333,62.592857,158.75521)">
      <path
         d="M 3.22466,38.9095 0,44.9612 V 11.9871 C 0,5.35345 5.36149,0 12.0051,0 H 44.9899 C 35.6267,2.90948 25.875,9.46552 19.4257,16.9526 12.3159,25.1379 8.31419,30.7629 3.22466,38.9095 Z"
         id="path85"
         inkscape:connector-curvature="0"
         style="fill:#ffffff" />
      <path
         d="m 45.0684,0 c 0,0 -14.375,6.71121 -18.7652,16.7974 -2.331,5.3923 -2.9138,11.8707 -7.1486,15.944 -2.9139,2.7931 -6.9932,3.8405 -10.56757,5.6638 -2.33108,1.2026 -6.68243,4.0733 -8.5472961,6.6336 H 33.0634 c 6.6436,0 12.005,-5.3535 12.005,-11.9871 z m 16.6673,23.5474 v -8.5345 c 0,-0.1939 0.1554,-0.3491 0.3496,-0.3491 h 5.4004 c 1.0101,0 1.8648,0.4267 1.8648,1.8621 v 6.75 c 0,1.0474 -0.8547,1.862 -1.8648,1.862 H 63.2509 C 62.435,25.0216 61.7745,24.3621 61.7357,23.5474 Z M 59.9874,12.0647 c -0.5828,0 -1.0102,0.4267 -1.0102,0.9698 v 22.3448 h 2.37 c 0.1942,0 0.3496,-0.1552 0.3496,-0.3491 v -8.3017 c 0.3885,0.5043 1.1656,1.0086 2.1368,1.0086 h 3.6132 c 2.5254,0 4.5845,-1.7845 4.5845,-4.4224 v -6.8276 c 0,-3.1035 -2.0591,-4.4224 -4.5845,-4.4224 z m 15.929,0 v 15.3232 c 0,0.194 0.1554,0.3492 0.3497,0.3492 H 78.636 V 12.375 c 0,-0.194 -0.1554,-0.3103 -0.3497,-0.3103 z m 0,-7.0216 v 2.56035 c 0,0.19396 0.1554,0.34914 0.3497,0.34914 H 78.636 V 5.39224 c 0,-0.19396 -0.1554,-0.34914 -0.3497,-0.34914 z m 9.402,13.1509 v -1.7069 c 0,-1.2414 0.8159,-1.8621 1.8649,-1.8621 h 4.3125 c 1.2432,0 1.826,0.5819 1.826,1.8621 v 1.7069 c 0,0.1939 -0.1554,0.3491 -0.3496,0.3491 H 85.6681 C 85.435,18.5043 85.3184,18.3491 85.3184,18.194 Z m 1.8649,-6.1293 c -2.5253,0 -4.5845,1.5517 -4.5845,4.4612 v 6.6336 c 0,2.5215 2.0203,4.5776 4.5845,4.5776 h 8.1199 v -2.25 c 0,-0.194 -0.1554,-0.3492 -0.3496,-0.3492 h -7.7703 c -1.049,0 -1.8649,-0.8146 -1.8649,-1.862 v -2.7931 c 0.272,0.3879 0.7382,0.5819 1.2433,0.5819 h 8.5861 c 0.7382,0 0.8159,-0.4268 0.8159,-0.9699 v -3.6077 c 0,-2.9095 -2.0203,-4.4612 -4.5845,-4.4612 h -4.1959 z m 15.0747,11.2112 v -6.75 c 0,-1.0475 0.816,-1.8621 1.864,-1.8621 h 4.235 c 0.777,0.0776 1.438,0.7371 1.515,1.5905 v 8.5345 c 0,0.194 -0.155,0.3103 -0.349,0.3103 h -5.401 c -1.048,0.0388 -1.864,-0.7758 -1.864,-1.8232 z m 7.925,-19.04745 c -0.194,0 -0.349,0.15517 -0.349,0.34914 v 8.49571 c -0.389,-0.5431 -1.166,-1.0086 -2.176,-1.0086 h -3.652 c -2.525,0 -4.5068,2.0172 -4.5068,4.5775 v 6.5173 c 0,2.5215 2.0198,4.5776 4.5848,4.5776 h 7.459 c 0.583,0 1.01,-0.4268 1.01,-1.0086 V 4.22845 Z m 10.374,19.31895 v -8.5345 c 0,-0.1939 0.155,-0.3491 0.349,-0.3491 h 5.362 c 1.01,0 1.865,0.4267 1.865,1.8621 v 6.75 c 0,1.0474 -0.855,1.862 -1.865,1.862 h -4.235 c -0.816,-0.1163 -1.438,-0.7758 -1.476,-1.5905 z m -1.749,-11.4827 c -0.582,0 -1.01,0.4267 -1.01,0.9698 v 22.3448 h 2.37 c 0.194,0 0.35,-0.1552 0.35,-0.3491 v -8.3017 c 0.388,0.5043 1.165,1.0086 2.137,1.0086 h 3.613 c 2.525,0 4.584,-1.7845 4.584,-4.4224 v -6.8276 c 0,-3.1035 -2.059,-4.4224 -4.584,-4.4224 z m 15.929,0 v 15.3232 c 0,0.194 0.156,0.3492 0.35,0.3492 h 2.37 V 12.375 c 0,-0.194 -0.155,-0.3103 -0.35,-0.3103 z m 0,-7.0216 v 2.56035 c 0,0.19396 0.156,0.34914 0.35,0.34914 h 2.37 V 5.39224 c 0,-0.19396 -0.155,-0.34914 -0.35,-0.34914 z m 9.48,18.5043 v -8.5345 c 0,-0.1939 0.155,-0.3491 0.35,-0.3491 h 5.4 c 1.01,0 1.865,0.4267 1.865,1.8621 v 6.75 c 0,1.0474 -0.855,1.862 -1.865,1.862 h -4.235 c -0.816,-0.1163 -1.437,-0.7758 -1.515,-1.5905 z m -1.709,-11.4827 c -0.583,0 -1.011,0.4267 -1.011,0.9698 v 22.3448 h 2.37 c 0.195,0 0.35,-0.1552 0.35,-0.3491 v -8.3017 c 0.389,0.5043 1.166,1.0086 2.137,1.0086 h 3.613 c 2.525,0 4.585,-1.7845 4.585,-4.4224 v -6.8276 c 0,-3.1035 -2.06,-4.4224 -4.585,-4.4224 z m 18.532,6.1293 v -1.7069 c 0,-1.2414 0.816,-1.8621 1.865,-1.8621 h 4.312 c 1.204,0 1.826,0.5819 1.826,1.8621 v 1.7069 c 0,0.1939 -0.155,0.3491 -0.35,0.3491 h -7.304 c -0.233,-0.0388 -0.349,-0.194 -0.349,-0.3491 z m 1.865,-6.1293 c -2.526,0 -4.585,1.5517 -4.585,4.4612 v 6.6336 c 0,2.5215 2.02,4.5776 4.585,4.5776 h 8.12 v -2.25 c 0,-0.194 -0.156,-0.3492 -0.35,-0.3492 h -7.77 c -1.049,0 -1.865,-0.8146 -1.865,-1.862 v -2.7931 c 0.272,0.3879 0.738,0.5819 1.204,0.5819 h 8.586 c 0.738,0 0.816,-0.4268 0.816,-0.9699 v -3.6077 c 0,-2.9095 -2.02,-4.4612 -4.584,-4.4612 h -4.157 z m 17.444,0 c -0.971,0 -1.748,0.4655 -2.137,1.0086 V 12.375 c 0,-0.194 -0.155,-0.3103 -0.35,-0.3103 h -2.37 v 15.3232 c 0,0.194 0.156,0.3492 0.35,0.3492 h 2.37 v -11.638 c 0.078,-0.737 0.66,-1.3965 1.515,-1.3965 h 3.924 c 0.194,0 0.35,-0.1552 0.35,-0.3492 v -2.25 h -3.652 z"
         id="path87"
         inkscape:connector-curvature="0"
         style="fill:#ffffff" />
    </g>
  </g>
</svg>
