<svg width="70" height="70" viewBox="0 0 70 70" fill="none" xmlns="http://www.w3.org/2000/svg">
<g clip-path="url(#clip0)">
<path d="M62.2492 8.88672H50.8028C50.2287 8.88672 49.763 9.35242 49.763 9.92653C49.763 10.5006 50.2287 10.9658 50.8028 10.9658H62.2492C65.2891 10.9658 67.7767 13.3696 67.914 16.3758L48.8438 32.2539C47.5365 25.8078 41.8263 20.9404 35 20.9404C28.1742 20.9404 22.4635 25.8078 21.1562 32.2533L2.08603 16.3747C2.22382 13.3691 4.71146 10.9658 7.75078 10.9658H46.6441C47.2182 10.9658 47.6833 10.5006 47.6833 9.92653C47.6833 9.35242 47.2182 8.88672 46.6441 8.88672H7.75078C3.47725 8.88672 0 12.364 0 16.6375V53.6856C0 57.8545 3.3918 61.2457 7.56065 61.2457H16.7037C17.2778 61.2457 17.7435 60.7806 17.7435 60.2065C17.7435 59.6323 17.2778 59.1666 16.7037 59.1666H7.56065C4.53789 59.1666 2.07909 56.7078 2.07909 53.6856V19.0749L20.8784 34.7282C20.8763 34.8409 20.8742 34.9535 20.8742 35.0662C20.8742 42.8549 27.2113 49.192 35 49.192C42.7887 49.192 49.1258 42.8549 49.1258 35.0662C49.1258 34.9535 49.1237 34.8409 49.1216 34.7282L67.9209 19.076V53.6856C67.9209 56.7078 65.4621 59.1666 62.4393 59.1666H20.8624C20.2883 59.1666 19.8226 59.6323 19.8226 60.2065C19.8226 60.7806 20.2883 61.2457 20.8624 61.2457H62.4393C66.6082 61.2457 70 57.8545 70 53.6856V16.6375C70 12.364 66.5228 8.88672 62.2492 8.88672ZM35 47.1124C28.3574 47.1124 22.9538 41.7088 22.9538 35.0662C22.9538 28.4241 28.3574 23.02 35 23.02C41.6426 23.02 47.0462 28.4241 47.0462 35.0662C47.0462 41.7088 41.6426 47.1124 35 47.1124Z" fill="#01BFFF"/>
<path d="M61.9669 55.7332C62.1608 55.8951 62.3968 55.9741 62.6313 55.9741C62.9293 55.9741 63.2252 55.8465 63.4308 55.5992C63.7982 55.158 63.7384 54.5028 63.2967 54.1353L49.8406 42.9313C49.3995 42.5639 48.7437 42.6237 48.3762 43.0648C48.0088 43.5065 48.0686 44.1618 48.5103 44.5292L61.9669 55.7332Z" fill="#01BFFF"/>
<path d="M21.6246 43.0664C21.2572 42.6253 20.6014 42.5649 20.1603 42.9324L6.7052 54.1353C6.26406 54.5027 6.20425 55.158 6.57115 55.5991C6.77676 55.8464 7.07263 55.974 7.37117 55.974C7.60508 55.974 7.84114 55.895 8.03553 55.7332L21.4906 44.5303C21.9323 44.1628 21.9921 43.5075 21.6246 43.0664Z" fill="#01BFFF"/>
<path d="M35.1801 26.6217C29.7428 26.6217 26.4968 30.1102 26.4968 35.9528C26.4968 42.4191 30.6027 44.7134 34.1189 44.7134C35.8412 44.7134 38.9185 44.0961 38.9185 42.8656C38.9185 42.4496 38.5414 41.8456 37.9502 41.8456C37.7147 41.8456 37.476 41.9422 37.1732 42.064C36.621 42.2861 35.7868 42.6226 34.3517 42.6226C29.4496 42.6226 28.7174 38.427 28.7174 35.9266C28.7174 32.6598 29.8347 28.7649 35.1544 28.7649C39.3398 28.7649 41.4622 31.0784 41.4622 35.6419C41.4622 36.4719 41.3655 39.179 40.1254 39.179C39.6272 39.179 39.2565 38.8089 39.1775 38.2343V33.933C39.1775 31.6595 37.5764 30.2469 34.999 30.2469C34.1808 30.2469 33.2794 30.4028 32.5883 30.664C31.4913 31.0789 31.2606 31.6007 31.2606 31.9655C31.2606 32.3938 31.6024 33.1922 32.2545 33.1922C32.4788 33.1922 32.6636 33.0956 32.8777 32.9834C33.2308 32.7981 33.7146 32.5449 34.7144 32.5449C36.1772 32.5449 36.8015 33.0608 36.8015 34.2699V34.389H36.1125C33.5645 34.389 30.6395 34.7698 30.6395 37.7392C30.6395 39.7558 31.9885 40.9595 34.2481 40.9595C35.6356 40.9595 36.496 40.4933 37.3024 39.7163C37.7681 40.5825 38.8122 41.1668 39.9962 41.1668C42.3044 41.1668 43.6823 39.0044 43.6823 35.3829C43.6823 29.8154 40.5831 26.6217 35.1801 26.6217ZM36.8533 36.2476V37.1693C36.8533 37.9111 35.9705 38.9462 34.5328 38.9462C33.6115 38.9462 33.1448 38.5397 33.1448 37.7392C33.1448 36.6518 33.9913 36.2476 36.2674 36.2476H36.8533Z" fill="#01BFFF"/>
</g>
<defs>
<clipPath id="clip0">
<rect width="70" height="70" fill="white"/>
</clipPath>
</defs>
</svg>
