<?xml version="1.0" encoding="utf-8"?>
<!-- Generator: Adobe Illustrator 16.0.0, SVG Export Plug-In . SVG Version: 6.00 Build 0)  -->
<!DOCTYPE svg PUBLIC "-//W3C//DTD SVG 1.1//EN" "http://www.w3.org/Graphics/SVG/1.1/DTD/svg11.dtd">
<svg version="1.1" id="Layer_1" xmlns="http://www.w3.org/2000/svg" xmlns:xlink="http://www.w3.org/1999/xlink" x="0px" y="0px"
	 width="302.7px" height="541.8px" viewBox="0 0 302.7 541.8" enable-background="new 0 0 302.7 541.8" xml:space="preserve">
<g>
	<g>
		<path fill="#FDFEFF" stroke="#010101" stroke-miterlimit="10" d="M121.7,112.4c0,0,29.5,18.3,34.599,25.1
			c-0.1,8.1-0.6,11.4-1.199,15.8c-5.2,0.6-9.3,1.6-20.5,1c-10-4.5-25-16.9-29.6-21.2c-0.6-9.5,1.5-18.2,2-18.9
			C114.2,112.7,121.7,112.4,121.7,112.4z"/>
		<polyline fill="#FDFEFF" stroke="#010101" stroke-miterlimit="10" points="121.7,112.4 121.2,131.1 155,153.2 		"/>
		<line fill="none" stroke="#010101" stroke-miterlimit="10" x1="105" y1="133" x2="121.2" y2="131.1"/>
	</g>
	<g>
		<path fill="#FDFEFF" stroke="#010101" stroke-miterlimit="10" d="M130.1,143.8L141,539h-2.1c-3-0.299-5.9,0.1-8.8,0.701
			c-3.2,0.699-7,0.799-10.2,0l-2.7-0.602c0,0,2.9-389.399,2.9-396.299C126.7,137.2,130.1,143.8,130.1,143.8z"/>
		<path fill="none" stroke="#010101" stroke-miterlimit="10" d="M147.7,541.3c-0.7,0-1.4-0.4-2-0.701c-0.7-0.299-1.4-0.6-2.2-0.799
			c-1-0.301-1.9-0.701-2.9-0.801"/>
		<path fill="none" stroke="#010101" stroke-miterlimit="10" d="M110.8,540.9c0.4-0.301,0.8-0.699,1.2-0.9
			c0.5-0.299,1.1-0.6,1.7-0.799c1.4-0.301,2.8-0.102,4.2,0.1"/>
	</g>
	<path fill="#FDFEFF" stroke="#010101" stroke-miterlimit="10" d="M64.3,337C64.1,336.3,67.4,203.8,107,126.2
		c7.1-2,4.4,4.7,3.1,10.5c0,0-33.9,126.4-43.4,200C65.1,340.3,64.4,337.701,64.3,337z"/>
	<path fill="#FDFEFF" stroke="#010101" stroke-miterlimit="10" d="M117.5,111.9C119.2,105,289.7-0.6,298.901,0.7
		c3.1-1,5.1,1.7,1,4.1c-4.102,2.4-117.102,74.1-142.9,97.6c-10.601,6.9-13.9,4.6-35.5,14C121.5,116.4,117.5,116.8,117.5,111.9z"/>
	<path fill="#FDFEFF" stroke="#010101" stroke-miterlimit="10" d="M102.2,119.2c0,0-100.7-67.1-101.4-71.2c-0.8-4.1,0.5-3.8,2.5-2.8
		s78,41.9,78,41.9s9.9,3.6,19.6,21.4c0.9,2,2.5,3.7,2.9,4.1C104.2,112.9,107.2,119.2,102.2,119.2z"/>
	<path fill="#FDFEFF" stroke="#010101" stroke-miterlimit="10" d="M100.2,113.9l3.3,15.8c0,0,22,3,14.1-18.2
		C106.8,112.8,100.2,113.9,100.2,113.9z"/>
</g>
</svg>
