<?xml version="1.0" encoding="utf-8"?>
<!-- Generator: Adobe Illustrator 16.0.0, SVG Export Plug-In . SVG Version: 6.00 Build 0)  -->
<!DOCTYPE svg PUBLIC "-//W3C//DTD SVG 1.1//EN" "http://www.w3.org/Graphics/SVG/1.1/DTD/svg11.dtd">
<svg version="1.1" id="Layer_1" xmlns="http://www.w3.org/2000/svg" xmlns:xlink="http://www.w3.org/1999/xlink" x="0px" y="0px"
	 width="280.6px" height="540.8px" viewBox="0 0 280.6 540.8" enable-background="new 0 0 280.6 540.8" xml:space="preserve">
<path fill="#FFFFFF" stroke="#000000" stroke-miterlimit="10" d="M45.2,456c0,0,25.6,1.6,34,0.701c8.5-1,21,3,36.698-1
	c15.802-3.9,13.802-1.102,25.4-2.5c11.5-1.301,23.9-1.102,26.9-2.301c3.1-1.1,20-3.301,25.8-3.801s8.3,8,3.1,8.701
	c-5.2,0.699-17.898,1.5-23.5,2.5c-5.6,1-19.2,1.799-35.2,3.4c-16,1.6-39.698,3.6-45.3,3.699c-5.6,0.1-10.6,0-21-0.303
	C61.7,464.8,66.7,464.701,54.2,464c-3.9-0.5-7.102-1.699-9-2.1C43.3,461.599,43.8,456.701,45.2,456z"/>
<path fill="#FFFFFF" stroke="#000000" stroke-miterlimit="10" d="M59.2,396.6c0,0,31.898,2.601,45.8,1.601c13.8-1,15.8-2,28.5-3.301
	c12.7-1.3,41.898-8.199,46.2-7.9c4.198,0.301,4.198,8.201-0.4,8.9c-4.6,0.7-38.5,6.9-43.9,7.9c-5.398,1-24.198,2-31.198,2
	S60.3,404.5,58,403.5C55.8,402.5,54.2,397.201,59.2,396.6z"/>
<path fill="#FFFFFF" stroke="#000000" stroke-miterlimit="10" d="M64.6,338.4c0,0,18.4,1.1,24.5,0.5
	c6.102-0.6,15.102,2.1,26.4-0.699c11.3-2.701,10-0.801,18.3-1.701c8.3-0.898,17.2-0.799,19.4-1.6c2.198-0.8,14.398-2.3,18.5-2.6
	c4.1-0.301,6,5.6,2.198,6.1c-3.698,0.5-12.898,1-16.898,1.7s-13.8,1.3-25.3,2.399C120.2,343.6,103.1,345,99.1,345.1s-7.6,0-15.1-0.2
	c-7.5-0.199-3.9-0.3-12.9-0.699c-2.8-0.301-5.1-1.201-6.5-1.4C63.2,342.6,63.6,338.8,64.6,338.4z"/>
<path fill="#FFFFFF" stroke="#000000" stroke-miterlimit="10" d="M72.8,264.8c0,0,25.5,6.3,37,7.3s13.2,0.399,23.8,1
	c10.602,0.601,35.602-1.2,39-0.399c3.4,0.799,2,7.199-1.898,7.199c-3.9,0-32.5,0.6-37.102,0.7c-4.6,0.101-20.1-1.5-25.7-2.399
	c-5.6-0.9-35.5-6.801-37.198-7.901C68.9,269.2,68.6,264.7,72.8,264.8z"/>
<path fill="#FFFFFF" stroke="#000000" stroke-miterlimit="10" d="M82.1,206.3c0,0,19.2,1.8,27.5,1.1c8.3-0.7,9.5-1.3,17.102-2.2
	c7.6-0.9,25.198-5.5,27.8-5.3c2.6,0.2,2.5,5.5-0.2,5.9c-2.8,0.4-23.2,4.6-26.4,5.3c-3.198,0.7-14.6,1.3-18.8,1.3
	s-26.398-0.9-27.8-1.5S79.1,206.7,82.1,206.3z"/>
<path fill="#FFFFFF" stroke="#010101" stroke-miterlimit="10" d="M94.8,537.4c0,0-1.7-29.4-1.5-36.801
	c0.1-7.299,1.4-27.799,1.5-36.5c0.1-8.799,1-22.299,0-29.699c-1-7.301,1.1-31.8-0.5-39.199c-1.7-7.301-1.7-32.9-1.9-38.801
	c-0.3-5.9,1.2-30.5,2.2-38.8s9.102-46.3,9.102-54.5s2.898-26.6,2.698-31.4c-0.3-4.8,2.102-39.8,1-43.3c-1-3.5,4.5-44.9,3.602-49.5
	c-0.9-4.6,4.898-36.8,4.6-40.9s6.5-47.4,5.3-49.9c-1.3-2.5,5-8.8,8.302-1.4c1.398,4.5-0.4,4.9-1.5,5.5
	c-1.2,0.5-0.302,10.3-2.102,19.6c-1.8,9.3-4.898,37-4.7,43.3c0.102,6.3-2.6,27.6-2.6,31.8c0,4.3-3.8,16.2-3.6,24.8
	c0.3,8.6-0.9,32.9,0.1,39.5c1,6.6-2.1,45-3.1,51.2c-1,6.2-8.102,28.5-7.302,35.7c0.802,7.2-4.898,25.5-3.3,32.101
	c1.5,6.601-0.3,25.5,1,33.399s-2.2,16.2-1,28.8s1.5,36,2.3,42.199c0.802,6.201-1.698,29.801-0.1,36.9c1.5,7.1-1.1,63.4,0.5,66
	C105.4,539.9,94.8,537.4,94.8,537.4z"/>
<path fill="none" stroke="#010101" stroke-miterlimit="10" d="M91,540c0,0,1.5-3,2.7-2c1.198,1,2.3-1.4,4-0.199
	c1.698,1.199,1.8-2,3.5,0.299c1.698,2.303,0.6,0.5,2.698,0.5c2.102,0,2.9,2.5,4.2,1.4"/>
<path fill="none" stroke="#010101" stroke-miterlimit="10" d="M121,48.4c0,0,1.898,4.1,6.7,3.7"/>
<g>
	<path fill="#FFFFFF" stroke="#010101" stroke-miterlimit="10" d="M73.4,372.3c0.102-0.5-1.5-1.4-2.3-1.7
		c-1.3-0.5-4.398-1.601-5.3-0.7c-0.9,0.801,0.2,18.1-0.4,25.9c-1.3,17.6-1.3,26.1-5.198,47.1c-3.9,21-6,42.199-9.802,52.4
		c-3.8,10.199-5.6,27.9-5.6,27.9s6.9,1.5,8.5,0c2.9-7.201,2.1-11.701,6.9-31C65,472.9,69,458.9,69.6,443.8
		c0.602-15.1,5.8-21.801,4.8-46.6C73.8,381.6,73.3,372.701,73.4,372.3z"/>
	<path fill="none" stroke="#010101" stroke-miterlimit="10" d="M65.4,371.5c0.102,0.4,1.2,0.9,1.602,1
		C67.9,372.8,68.9,373,69.9,373.1c1.2,0.101,2.5,0.3,3.602-0.101"/>
</g>
<path fill="#FFFFFF" stroke="#010101" stroke-miterlimit="10" d="M132.1,68.4c-7.898,12.1-17.3,7.4-25.398,27.4
	c-8.102,20-4.2,19.5-7.7,38.2s-1.3,19.2-3.5,38.1C93.4,191,92.4,203.5,90.7,224.8c-1.7,21.3-8.802,53-10,67.5
	c-1.2,14.5-3.7,22.8-6.5,44c-1.4,10.3,0.5,39.6-1.102,49.4C73.6,387.6,75.4,386.6,76.7,387c0.8,0.301,2.398,0,3.3-1.299
	c0.5-2.601-1.602-33.101-1-37.9c2.898-20.699,6.5-22.699,5.2-33c-1.302-10.301,6.3-31.5,7.3-50.699c1-19.2,3.5-22.8,5.2-32.5
	c1.698-9.7,3.1-29.7,3.3-42.7s1.2-22.8,3.7-39.6c2.5-16.7,3.3-40.9,7.698-51.9c4.4-11,22.7-21.5,25.602-23
	C139.8,73,138.1,64.5,132.1,68.4z"/>
<path fill="none" stroke="#010101" stroke-miterlimit="10" d="M38.8,523.599c0,0,2.5-3.398,4.6-1.299c2.102,2.1,1.302,1.799,5,1.299
	c5.302-0.699,4.4-2.1,6.7-0.5c2.3,1.602,1.9,0.301,5.602,0"/>
<path fill="none" stroke="#010101" stroke-miterlimit="10" d="M131.2,69.8c0,0-0.2,2.9,0.8,3.2c1,0.2,2.2,2.9,4.2,2"/>
<g>
	<path fill="#FFFFFF" stroke="#000000" stroke-miterlimit="10" d="M87,63c0,0,28.898,10,37.2,10.5c8.3,0.5,26.8,8.9,36,10.2
		c9.198,1.3,7.1,11.3,2.198,11c-4.898-0.3-41.1-12.7-49.1-13.3c-9.6-0.8-22.5-5.3-28.4-6.6C79,73.5,81.8,61.7,87,63z"/>
	<path fill="none" stroke="#000000" stroke-miterlimit="10" d="M161.2,83.9c0,0-5.7,3-1.4,10.2"/>
</g>
<path fill="#FFFFFF" stroke="#010101" stroke-miterlimit="10" d="M190.1,515.5c0,0-19-75.5-22.6-102
	C163.9,387,152.9,351.1,150.1,325.3c-2.8-25.801-6.2-71.6-6.2-89.7s-8.198-54.1-8-76.8c0.302-22.8-6.398-30.9-7.698-45.1
	C126.9,99.5,106,77.9,98,67.4c-2.102-9.6,6.2-7.6,8-5.4s21,34.6,25.898,39.6c4.9,5,1.302,2.2,4.602,3.1c3.3,0.9,3.8,7.6,0.3,8.3
	c-0.7,0.2,1.3,7.7,4.6,23.4c3.302,15.8,7.4,45.3,8.7,56.2s3.602,85.101,8,96.3c4.4,11.2,7.4,44,8.7,51.7s1,23.2,5.1,36.8
	c4.102,13.6,6.2,33.9,10,45.1c3.802,11.201,4.9,25.201,8.2,39.801c3.3,14.699,9,50.299,10.102,52.199
	C201.3,516.4,190.1,515.5,190.1,515.5z"/>
<path fill="none" stroke="#010101" stroke-miterlimit="10" d="M185.5,517.701c0,0,2.1-3.5,4.6-2.201
	c2.602,1.301,3.8-0.6,5.602-0.299c1.8,0.299,5.6-0.701,6.898,1.199s2.3,1.301,3.102,1.301"/>
<path fill="none" stroke="#010101" stroke-miterlimit="10" d="M134.8,104.7c0,0-1.6,1.3-1.2,2.9c0.4,1.5-0.1,1.8,0.602,3.2
	c0.698,1.4,2,2.5,2.6,2.2"/>
<path fill="none" stroke="#010101" stroke-miterlimit="10" d="M98,67.4c0,0,3.898,1.1,5.8,0s2.7-1.8,2.8-4.5"/>
<g>
	<path fill="#FFFFFF" stroke="#000000" stroke-miterlimit="10" d="M89.6,490c0,0,93.9-41.9,101.2-43.699
		c7.3-1.801,12.7,5.9,7.3,9.699C192.7,459.8,160.7,467.5,145,478.201C129.3,488.9,96.4,497.4,91.6,500.701
		c-4.898,0.6-7-9.301-2.2-10.602C89.4,490,89.5,490,89.6,490z"/>
	<path fill="none" stroke="#000000" stroke-miterlimit="10" d="M89.1,490.099c0,0,3.2,1,3.4,3.4s0.6,5.5-0.2,6.701"/>
</g>
<g>
	<path fill="#FFFFFF" stroke="#000000" stroke-miterlimit="10" d="M46.3,461.599c0,0,58.7,19.4,67.1,18.602
		c2.802,4.6-1.698,7.799-4.698,7.1c-3.102-0.701-3.102-0.701-3.102-0.701S52.7,470.4,44.8,470.8
		C37,471.099,37.4,461.599,46.3,461.599z"/>
	<path fill="none" stroke="#000000" stroke-miterlimit="10" d="M112.9,480.201c0,0-8.398-0.102-3.698,7.1"/>
</g>
<g>
	<path fill="#FFFFFF" stroke="#000000" stroke-miterlimit="10" d="M87.7,425.8c0,0,33.5-14.1,43.5-19s41.898-18.4,46.198-19.4
		c4.2-1,9.2,3.9,5.4,8.2s-24.2,8.5-32.7,13.5S123.2,418,115.1,423.5C107,429.099,92,435,88.6,436C85,437,81.5,429.4,87.7,425.8z"/>
	<path fill="#FFFFFF" stroke="#000000" stroke-miterlimit="10" d="M87.2,426.3c0,0,4.898,1.5,1.898,9.5"/>
</g>
<g>
	<path fill="#FFFFFF" stroke="#000000" stroke-miterlimit="10" d="M53.8,397.8c0,0,24.1,8.3,31,8.8s22.3,7.399,30,8.5
		s5.9,9.399,1.8,9.2c-4.1-0.201-34.3-10.6-41-11.1c-8-0.602-18.8-4.4-23.6-5.5C47.2,406.5,49.5,396.701,53.8,397.8z"/>
	<path fill="none" stroke="#000000" stroke-miterlimit="10" d="M115.7,415.201c0,0-4.802,2.5-1.2,8.5"/>
</g>
<g>
	<path fill="#FFFFFF" stroke="#000000" stroke-miterlimit="10" d="M87.8,351.6c0,0,31.6-5.8,41.2-8.2c9.6-2.3,39.8-7.9,43.6-7.9
		c3.8-0.1,6.8,5,2.5,7.9s-22.5,2.801-30.8,5.4c-8.3,2.599-24.8,2.6-33,5.8s-22.2,5.5-25.4,5.7C82.7,360.5,81.7,353.5,87.8,351.6z"/>
	<path fill="#FFFFFF" stroke="#000000" stroke-miterlimit="10" d="M87.2,352c0,0,3.698,2.102-0.802,8.301"/>
</g>
<g>
	<path fill="#FFFFFF" stroke="#000000" stroke-miterlimit="10" d="M60.5,331.1c0,0,18.5,6.399,23.8,6.7c5.3,0.3,17.1,5.699,23,6.5
		c5.9,0.8,4.5,7.199,1.4,7c-3.102-0.2-26.302-8.1-31.4-8.5c-6.1-0.5-14.4-3.4-18.1-4.2C55.4,337.8,57.1,330.201,60.5,331.1z"/>
	<path fill="none" stroke="#000000" stroke-miterlimit="10" d="M107.9,344.5c0,0-3.698,1.9-0.898,6.5"/>
</g>
<g>
	<path fill="#FFFFFF" stroke="#000000" stroke-miterlimit="10" d="M95.9,280.3c0,0,72.102-8,77.302-7.6
		c5.198,0.299,6.5,6.398,2,7.698c-4.5,1.302-27.302-0.198-40.4,3.5c-13.1,3.7-36.7,2.5-40.7,3.7c-3.3-0.602-1.898-7.398,1.5-7.301
		C95.7,280.3,95.8,280.3,95.9,280.3z"/>
	<path fill="none" stroke="#000000" stroke-miterlimit="10" d="M95.5,280.3c0,0,1.8,1.3,1.3,2.9c-0.6,1.6-1.1,3.698-2,4.299"/>
</g>
<g>
	<path fill="#FFFFFF" stroke="#000000" stroke-miterlimit="10" d="M68.4,263.3c0,0,47.2,15.6,54,15c2.2,3.699-1.398,6.3-3.8,5.699
		c-2.5-0.601-2.5-0.601-2.5-0.601s-42.6-13-48.898-12.8C60.9,270.9,61.2,263.3,68.4,263.3z"/>
	<path fill="none" stroke="#000000" stroke-miterlimit="10" d="M122,278.3c0,0-6.7-0.1-3,5.699"/>
</g>
<g>
	<path fill="#FFFFFF" stroke="#000000" stroke-miterlimit="10" d="M78.9,198.2c0,0,18.5,6.4,23.802,6.7c5.3,0.3,17.1,5.7,23,6.5
		c5.898,0.8,4.5,7.2,1.398,7c-3.1-0.2-26.3-8.1-31.398-8.5c-6.102-0.5-14.4-3.4-18.102-4.2C73.8,204.9,75.6,197.4,78.9,198.2z"/>
	<path fill="none" stroke="#000000" stroke-miterlimit="10" d="M126.4,211.6c0,0-3.698,1.9-0.898,6.5"/>
</g>
<g>
	<path fill="#FFFFFF" stroke="#000000" stroke-miterlimit="10" d="M100.6,207.1c0,0,21.602-4,28.2-5.6s27.2-5.4,29.8-5.4
		c2.602,0,4.602,3.4,1.7,5.4s-15.4,1.9-21.1,3.7c-5.7,1.8-17,1.8-22.602,4c-5.6,2.2-15.2,3.8-17.398,3.9
		C97.1,213.2,96.4,208.4,100.6,207.1z"/>
	<path fill="#FFFFFF" stroke="#000000" stroke-miterlimit="10" d="M100.2,207.4c0,0,2.6,1.5-0.5,5.7"/>
</g>
<path fill="none" stroke="#010101" stroke-miterlimit="10" d="M94.3,473.9c3.2,2.6,4.2,7.4,5.7,11c1.6,3.6,4.3,6.9,4.8,10.699"/>
<path fill="none" stroke="#010101" stroke-miterlimit="10" d="M103.8,476.8c-5.8,6.5-5,17.199-10.8,23.9"/>
<path fill="none" stroke="#010101" stroke-miterlimit="10" d="M93.8,484.599c3.8,1.701,6,1.9,8.9,4.602
	c1.698,1.6,3.898,3.1,5.398,4.898"/>
<path fill="none" stroke="#010101" stroke-miterlimit="10" d="M56.5,456c0,3.801-0.602,8.1,0.8,11.5s5,5.301,7.3,8.201"/>
<path fill="none" stroke="#010101" stroke-miterlimit="10" d="M69.2,456.701c0.698,4.6-2.102,8.699-7.302,10"/>
<path fill="none" stroke="#010101" stroke-miterlimit="10" d="M55,472.099c4.398,1.602,9.2-1.6,11.898-4.6"/>
<path fill="none" stroke="#010101" stroke-miterlimit="10" d="M173.3,449.201c0.5,4.6,5.3,2.398,8.8,3.699
	c3.3,1.199,5.9,5,6.9,7.699"/>
<path fill="none" stroke="#010101" stroke-miterlimit="10" d="M187.7,446.8c-0.2,1.799,0.8,3.5,0.5,5.299
	c-0.2,1.701-1.5,3.5-2.602,5c-1.8,2.5-4.398,4.301-6.7,6.602"/>
<path fill="none" stroke="#010101" stroke-miterlimit="10" d="M175.4,452.099c0.302,1.9,3.102,3.201,3.9,5.201
	c0.9,2.5-0.1,4.199-0.8,6.6"/>
<path fill="none" stroke="#010101" stroke-miterlimit="10" d="M57.7,456.9c1.398,1.801,2.5,4.1,4.3,5.699
	c1.898,1.701,3.398,2.5,4.6,4.602"/>
<path fill="none" stroke="#010101" stroke-miterlimit="10" d="M94.6,408.3c1.8,3.199,0,9.9,4.602,12"/>
<path fill="none" stroke="#010101" stroke-miterlimit="10" d="M101.8,410.5c0.6,3.701-3.7,8.9-6.9,11.6"/>
<path fill="none" stroke="#010101" stroke-miterlimit="10" d="M102.8,430.8c0-2.301,1.6-4.801,0.5-7c-0.8-1.701-3.3-3.301-5.1-4.1"
	/>
<path fill="none" stroke="#010101" stroke-miterlimit="10" d="M105.6,421.9c-0.5,2.699-3.3,5-3.1,7.9"/>
<path fill="none" stroke="#010101" stroke-miterlimit="10" d="M95.1,422.5c4.102,0.1,6.2,5.801,6.9,8.5"/>
<path fill="none" stroke="#010101" stroke-miterlimit="10" d="M96.4,433.9c3.302-3.4,6.7-8.5,6.7-13.1"/>
<path fill="none" stroke="#010101" stroke-miterlimit="10" d="M64.6,400.201c-1.898,5.1,4.3,10.699,9.2,12.699"/>
<path fill="none" stroke="#010101" stroke-miterlimit="10" d="M75.1,402.8c-1,4.1-6.1,8.8-10.8,9.6"/>
<path fill="none" stroke="#010101" stroke-miterlimit="10" d="M64.9,397.6c0.302,2.399,7.2,4.2,9.5,3.3"/>
<path fill="none" stroke="#010101" stroke-miterlimit="10" d="M75.4,397.8c-0.8,2.4-3.398,3.6-5.898,4.4"/>
<path fill="none" stroke="#010101" stroke-miterlimit="10" d="M163.1,391.9c7.8-1.699,10.8,4.301,13.3,9.2"/>
<path fill="none" stroke="#010101" stroke-miterlimit="10" d="M165.9,403.201c2.802-2.801,5.602-5,7.4-8.5
	c0.9-1.801,2.9-5.201,1.3-7"/>
<path fill="none" stroke="#010101" stroke-miterlimit="10" d="M151.3,337.6c4.6,1.101,9.9,1.601,12.3,5.601
	c1.2,1.899,1.3,3.6,3.102,5.399"/>
<path fill="none" stroke="#010101" stroke-miterlimit="10" d="M152.8,347.9c5.8-0.4,14.7-7.9,13.8-13.1"/>
<path fill="none" stroke="#010101" stroke-miterlimit="10" d="M150.5,334.3c2.898,0.699,5.2,2.9,8.5,2.6"/>
<path fill="none" stroke="#010101" stroke-miterlimit="10" d="M168.5,346.1c0-3.8,0.1-8.7-2.602-11.8"/>
<path fill="none" stroke="#010101" stroke-miterlimit="10" d="M73.6,334.5c2.8,1.5,5.102,3,5.9,5.9c0.5,1.6,0.1,3.6,0.8,5.1"/>
<path fill="none" stroke="#010101" stroke-miterlimit="10" d="M72.6,343.701c3.7-1.4,8.2-4.5,8.7-8.101"/>
<path fill="none" stroke="#010101" stroke-miterlimit="10" d="M92.3,348.1c8.1-0.7,7.3,6.899,9.5,11.2"/>
<path fill="none" stroke="#010101" stroke-miterlimit="10" d="M92.6,338.9c2.5,2.301,1.3,7-1,9.2"/>
<path fill="none" stroke="#010101" stroke-miterlimit="10" d="M102.6,339.6c0,0.8,0.4,2.5-0.2,3.101c-0.198,0.299-2,0.6-2.6,1.1
	c-1.3,1-3.2,4.101-3.1,5.601c0.698,0.101,1.5,0.101,2-0.198"/>
<path fill="none" stroke="#010101" stroke-miterlimit="10" d="M92,359.9c3-1.1,6.398-7.9,5.898-10.9"/>
<path fill="none" stroke="#010101" stroke-miterlimit="10" d="M92.3,350.1c0.8,1,2.2,1.601,3,2.601c0.8,0.899,1.1,1.899,2.2,2.699
	c1.6,1.301,3.6,2.1,5.1,3.5"/>
<path fill="none" stroke="#010101" stroke-miterlimit="10" d="M101.5,272.4c1.6,2.1,4,5.2,1.3,7.2"/>
<path fill="none" stroke="#010101" stroke-miterlimit="10" d="M105.1,287.3c2.3-2.5,0.8-7.6-3.8-7.4"/>
<path fill="none" stroke="#010101" stroke-miterlimit="10" d="M99.5,287.701c3-2.601,6.7-4.9,7.398-8.5"/>
<path fill="none" stroke="#010101" stroke-miterlimit="10" d="M108.5,274.6c-0.102,1.399-3.3,4.399-4.9,5"/>
<path fill="none" stroke="#010101" stroke-miterlimit="10" d="M83.8,266.9c3.1,2.6,6,7.2,6.9,10.9"/>
<path fill="none" stroke="#010101" stroke-miterlimit="10" d="M82.3,275.201c3.1-1.101,7.9-3,8.7-6.301"/>
<path fill="none" stroke="#010101" stroke-miterlimit="10" d="M145.4,273.201c3.802,0.6,10.5,6.899,11.302,10.299"/>
<path fill="none" stroke="#010101" stroke-miterlimit="10" d="M145.6,283.3c2.7-2,5-4.801,7.7-7c1.4-1.2,2.8-2.301,2.9-4.1"/>
<path fill="none" stroke="#010101" stroke-miterlimit="10" d="M106.9,205c6.5,1.9,8.5,6.1,8.7,11.6"/>
<path fill="none" stroke="#010101" stroke-miterlimit="10" d="M106.4,213.7c4-2.1,8.802-6.1,8.5-10.5"/>
<path fill="none" stroke="#010101" stroke-miterlimit="10" d="M138.2,198.8c5.8,1.2,10.3,3.4,13.6,7.4"/>
<path fill="none" stroke="#010101" stroke-miterlimit="10" d="M140.3,208c3.4-0.6,5.7-4.2,8.2-6.2c2-1.6,3.398-3.2,3.1-5.6"/>
<path fill="none" stroke="#010101" stroke-miterlimit="10" d="M92,202.6c1.2,3.3,4,5.7,5.398,8.8"/>
<path fill="none" stroke="#010101" stroke-miterlimit="10" d="M91.5,210.2c4.7-0.5,6.1-4.1,8-6.8"/>
<path fill="none" stroke="#010101" stroke-miterlimit="10" d="M124.9,89c-4.5,0.1-8.898-2.3-13.3-2.6"/>
<path fill="none" stroke="#010101" stroke-miterlimit="10" d="M111.7,84.8c2,0,4.1,0.1,6-0.2c1.3-0.2,2.398-0.4,3.698-0.4
	c1,0,1.9,0.2,2.9,0.1"/>
<path fill="none" stroke="#010101" stroke-miterlimit="10" d="M111.7,85.5c0.698,0,1.398,0.1,2.1,0.2c1.9,0.1,4,0.1,5.8,0.6
	c1.7,0.4,3,0.5,4.602,0.4"/>
<path fill="none" stroke="#010101" stroke-miterlimit="10" d="M114.2,70.9c0.5,0.5,1.398,0.9,2,1.3c1.3,0.9,2.3,1.8,3.198,3.1
	c1.602,2.4,2.802,4.8,3.4,7.6c0.3,1.3,0.2,2.7,0.4,4.1c0.1,0.8,0.398,1.6,0.5,2.3"/>
<path fill="none" stroke="#010101" stroke-miterlimit="10" d="M115.6,91.3c1.3-1.5,2.3-2.9,2.9-4.9c0.6-2.1,1.7-4.2,2.7-6.2
	c0.8-1.6,1.6-3.3,2.6-4.9c0.5-0.9,0.9-1.9,1.6-2.8"/>
<path fill="none" stroke="#010101" stroke-miterlimit="10" d="M146.3,79.2c-0.9,0.7-2,1.6-2.6,2.5c-0.802,1.3-1.302,2.9-2,4.3
	c-0.602,1.1-1,2.3-1.102,3.5"/>
<path fill="none" stroke="#010101" stroke-miterlimit="10" d="M152.2,81.4c-1,1.3-2.102,2.3-2.7,3.9c-0.5,1.3-0.7,2.7-0.9,4
	c-0.1,0.8-0.1,1.5,0.102,2.2"/>
<path fill="none" stroke="#010101" stroke-miterlimit="10" d="M154.6,82.1c-1.7,2.4-3.3,4.6-3.7,7.4c-0.1,0.9-0.3,1.8-0.3,2.7"/>
<path fill="none" stroke="#010101" stroke-miterlimit="10" d="M147.4,80c-0.698,2.2-1.398,4.8-0.8,7c0.3,1.2,1.102,2.5,1.3,3.7"/>
<path fill="none" stroke="#010101" stroke-miterlimit="10" d="M144,89.6c-0.9,0.8-1.3,1.6-2.8,1.9c-0.602,0.1-1.102,0.1-1.602,0.3"
	/>
<path fill="none" stroke="#010101" stroke-miterlimit="10" d="M89,62.7c-4.8,1.6-5.602,9.5-2.8,12.7"/>
<path fill="none" stroke="#010101" stroke-miterlimit="10" d="M91.8,64.4c-2.2,2.8-6.8,8.7-4.1,12.3"/>
<path fill="none" stroke="#010101" stroke-miterlimit="10" d="M65.6,375.6c0.102,0.601,1,1.399,1.5,1.7c1.5,1.1,3,2.3,4.8,3.199
	c1.9,0.899,3.9,1.601,5.9,2.101c0.8,0.2,1.6,0.101,2.4,0.399"/>
<path fill="none" stroke="#010101" stroke-miterlimit="10" d="M79.7,375.5c-0.102,0.301-0.5,0.602-0.802,0.9
	c-0.698,0.6-1.5,1.2-2.3,1.801c-1.2,1-2.8,1.6-4.2,2.199c-1.1,0.5-2.398,0.9-3.698,1.2c-1.102,0.2-2.302,0.601-3.4,0.7"/>
<path fill="none" stroke="#010101" stroke-miterlimit="10" d="M65.1,383c1.102,0.701,2.602,0.9,3.9,1.102c1.8,0.3,3.5,0.5,5.3,0.602
	c1.2,0,2.5,0.1,3.7-0.201c0.6-0.101,1.5-0.199,2-0.601"/>
<path fill="none" stroke="#010101" stroke-miterlimit="10" d="M65.3,374.8c0.3,0.199,0.7,0.199,1,0.3c0.9,0.2,1.8,0.5,2.7,0.601
	c1.898,0.199,3.898,0.5,5.898,0.6c1.2,0.101,2.2,0,3.4-0.301c0.5-0.199,1.3-0.199,1.6-0.699"/>
<g>
	<path fill="#FDFEFF" stroke="#010101" stroke-miterlimit="10" d="M180.5,87.9c-1.3-4.2-2.4-8.5-4.3-12.4c-1-2-1.5-4.1-2.4-6.1
		c-0.6-1.4-1.4-2.6-1.9-4c-2.198,0.9-4.6,1.6-6.8,2.7c-0.398,0.2-0.6,0.1-0.8,0.5s0.4,1.7,0.5,2.1c0.3,1.1,0.6,2.3,0.9,3.4
		c1,3.8,1.6,8,2.1,11.9L180.5,87.9z"/>
	<path fill="#FDFEFF" stroke="#010101" stroke-miterlimit="10" d="M160.2,108.7c-2.2,3.2-3.7,7.2-5.302,10.7c-0.6,1.3-1,2.7-1.6,4
		c-0.3,0.7-0.8,1.2-0.8,1.9c1.1-0.2,2.8,0.7,3.8,1.2s2.1,1,3.1,1.7c1,0.7,0.802,0.6,1.7-0.5c1.102-1.2,1.9-2.3,2.7-3.8
		c1.5-2.8,3.5-5.2,4.9-8.2c0.698-1.5,2-2.9,2.6-4.4L160.2,108.7z"/>
	<path fill="none" stroke="#010101" stroke-miterlimit="10" d="M155.3,93.9c0-0.2-5.5-2.2-6-2.4c-1.5-0.6-3-1.1-4.6-1.5
		c-1-0.3-2.302-0.9-3.302-0.5c-0.8,0.3-1.398,1.3-0.898,2.1c0.7,1.3,2.5,1.5,3.8,1.8c1.8,0.3,3.6,0.9,5.3,1.6
		c1.102,0.4,2.2,0.8,3.3,1.2c0.302,0.1,1.302,0.6,1.602,0.5C155,96.6,155.1,94.5,155.3,93.9z"/>
</g>
<path fill="#FDFEFF" stroke="#010101" stroke-miterlimit="10" d="M194.1,94.8c-0.5-1.4-0.5-2.3-1.5-3.5c-0.898-0.9-1.8-1.6-3-2
	c-4.398-1.2-8.8-0.8-13.2-1.5c-3.698-0.6-7.6-0.9-11.3-1c-3.7,0-6.5,0.8-8.7,4.1c-2.8,4.2-4.3,10.2-1.5,14.6
	c1.802,2.8,4.5,3.7,7.802,4.2c3.198,0.5,6.3,1,9.5,1.5c2.898,0.4,5.898,0.7,8.8,1.1c0.898,0.1,1.898,0.5,2.898,0.3
	c1.102-0.2,2.4-0.7,3.5-1.1c5.102-1.8,8.302-5.9,8-11.4L194.1,94.8z"/>
<path fill="#FDFEFF" stroke="#010101" stroke-miterlimit="10" d="M201.7,104.8c0.6-4.1,0-9.1-4.102-11.1c-5.3-2.6-8.898,4.5-8.398,9
	c0.398,3.6,2,6.5,5.6,6.4C198,109.1,201.1,108.6,201.7,104.8z"/>
<path fill="#010101" stroke="#010101" stroke-miterlimit="10" d="M197.1,104.3c-1,0.4-2.7,0.3-3.2-0.7c-0.8-1.4,0.602-2.7,1.7-3.4
	c1.8-1.1,3.7-0.9,3.4,1.4c-0.2,1.7-1.602,2.5-3,3"/>
<g>
	<path fill="none" stroke="#010101" stroke-miterlimit="10" d="M164,91.4c3.898,0.1,7.8-0.5,11.6,0.3c3.5,0.7,7.3,2.4,11,1.9"/>
	<path fill="none" stroke="#010101" stroke-miterlimit="10" d="M162.8,94.5c1.6-0.1,3.2,0.8,4.8,0.7"/>
	<path fill="none" stroke="#010101" stroke-miterlimit="10" d="M160.8,98.3c1.6,0,3.2-0.1,4.8-0.1"/>
	<path fill="none" stroke="#010101" stroke-miterlimit="10" d="M160.7,102.7c1.5,0,3.198,1,4.698,1.3"/>
	<path fill="none" stroke="#010101" stroke-miterlimit="10" d="M181.5,97.5c0.898,0.5,2.2,0.2,3.2,0.3c0.698,0.1,1.3,0.2,1.898,0.1"
		/>
	<path fill="none" stroke="#010101" stroke-miterlimit="10" d="M181.6,101.6c1.602,0.4,3.2,0.8,4.7,1.1"/>
	<path fill="none" stroke="#010101" stroke-miterlimit="10" d="M180.7,106c1.198,0.5,2.3,0.9,3.6,0.9"/>
	<path fill="none" stroke="#010101" stroke-miterlimit="10" d="M166.4,95.4c-1.1,0.6-1.1,4.6-1.3,5.9c-0.1,1.4-0.2,3,1.4,3.4
		c2.5,0.6,5.2,0.2,7.8,0.6c2.3,0.3,4.7,0.4,6.9,0.9c0.8-1.5,0.5-3.6,1.1-5.2c0.2-0.6,1.8-2.2,1.6-2.7c-0.3-0.8-3.698-0.7-4.398-0.9
		c-2.2-0.5-4.5-0.7-6.7-1C170.7,96.2,168.6,95.3,166.4,95.4"/>
</g>
<g>
	<path fill="#FDFEFF" stroke="#010101" stroke-miterlimit="10" d="M210.4,495.201c0.102,2,0.2,4.1,0.4,6.1
		c0.2,1.799-0.1,3.602,0.4,5.299c0.6,2.104,3.1,2.604,4.8,3.701c1.898,1.299,3.398,2.9,5.5,4c4.7,2.5,9.7,5,14.1,7.9
		c1.4,0.898,2.9,2.398,4.602,2.898c2.698,0.701,6,0,8.698-0.299c6.302-0.6,12.9-0.701,19.2-0.701c1.9,0,5.5,0.701,7.2-0.299
		c2.2-1.301,0.9-5.701,0.5-7.6c-1.1-5.201,0.3-10.5-0.7-15.701c-0.6-2.898-2.2-3.6-4.398-5.299c-2.5-1.9-4.7-3.9-6.9-6
		c-1.8-1.701-4-3.301-6.2-4.5c-3.3-1.801-7-2.5-10.3-4c-1.7-0.801-3.3-1.9-5.2-2.201c-1.6-0.199-3.3,0.102-4.898,0.201
		c-2.7,0.1-5.5,0.299-8.2,0.5c-4,0.199-8,0.699-12,0.898c-2.7,0.102-7.4-1.102-7.2,2.898C210.1,487,210.2,491.099,210.4,495.201z"/>
	<path fill="#FDFEFF" stroke="#010101" stroke-miterlimit="10" d="M209.9,482.4c1.2,0.5,2.2,1.699,3.4,2.301
		c1.4,0.699,2.8,1.5,4.1,2.398c1.5,1,3,2.102,4.602,3c2,1.102,4.2,1.5,6.2,2.602c2.5,1.398,4.898,3,7.398,4.5
		c1.3,0.799,2.9,1.398,3.102,2.799c0.5,3.801,1.1,7.801,1.3,11.701c0.3,4.398,1,9,1,13.398"/>
	<path fill="#FDFEFF" stroke="#010101" stroke-miterlimit="10" d="M274,498.4c-3.5,0.801-7.7,0.4-11.3,0.4c-3.302,0-6.602,0-9.9,0
		c-4.8,0-9.8-0.801-14.5,0"/>
</g>
<path fill="#010101" stroke="#010101" stroke-miterlimit="10" d="M229,486.099c-1.2,0-2.8,0-3.5-1.1c-1.102-1.699,1.2-2.4,2.5-2.4
	c1.398-0.1,3.8,0.4,4.3,1.9c0.4,1.1-0.6,2.301-1.8,1.801L229,486.099z"/>
<path fill="#010101" stroke="#010101" stroke-miterlimit="10" d="M239.4,484.701c-2.898-3.102,4.602-3.102,6-2.5
	c0.9,0.299,2.5,1.699,2,2.799c-0.6,1.6-3.898,1-5.1,1L239.4,484.701z"/>
<path fill="none" stroke="#010101" stroke-width="2" stroke-miterlimit="10" d="M153.3,92.2c-3.3,5-16.3,7.8-20.8,3
	c-1.7-1.8-2.602-4.1-4.4-5.9c-1.8-1.8-4-2.8-6.2-3.8"/>
<path fill="none" stroke="#010101" stroke-width="2" stroke-miterlimit="10" d="M114.4,92.4c0.302,1.2,1.5,2,2.102,3.1
	c1.398,2.3,2.2,4.9,2.3,7.6c0.1,5.2-1.2,10.2-2.6,15.1c-2.802,10.1-5,20-3.102,30.6c0.4,2.1,1,4,1.7,6c1.1,3.7,1.4,7.7,2.8,11.2
	c1.102,2.8,3.2,4.8,5,7.1c1.8,2.4,3.3,5.1,4.8,7.7c1.9,3.4,3,7.2,4.9,10.5c1.1,2,2.4,2.4,4.3,3.5c1.8,1,2.3,1.7,2.8,3.5"/>
<path fill="none" stroke="#010101" stroke-width="2" stroke-miterlimit="10" d="M140.6,205.3c3.8,10.3-2.7,24.9-9.398,33.4
	c-4.302,5.5-10.9,9.3-15.2,14.9c-3.4,4.4-2.602,8.5-3.7,13.4c-1.1,4.701-4.7,5-9.2,6.5"/>
<path fill="none" stroke="#010101" stroke-width="2" stroke-miterlimit="10" d="M97.5,277.6c-2.8,2.601-5,5.2-5.4,8.899
	c-0.5,4.5-1.898,9-3.6,13.301c-1.102,2.6-1.7,4.9-0.8,7.699c0.8,2.601,1.898,4.899,1.698,7.601c-0.1,2.7-0.5,5.7-1.5,8.3
	c-0.8,1.9-2,3.4-0.8,5.4c1.102,1.8,3.602,3.9,5.102,5.5c1.698,1.8,3.1,3.699,5.198,5.1c2.302,1.5,5.802,1.2,8.302,2.5
	c3.698,1.9,8,3.2,11.3,5.7c3,2.3,3.3,6.2,4.2,9.601C123.6,366,124.9,376.9,131.5,384.3c2.3,2.6,5.8,3.1,9.398,3.6
	c4.2,0.6,8.4,0,12.602,0.2c2.1,0.101,4.3,0.399,6.2,1.101c1.6,0.6,2.898,1.799,4.698,1.899"/>
<path fill="none" stroke="#010101" stroke-width="2" stroke-miterlimit="10" d="M166,402.6c-3.4,3.8-4.9,8.3-4,12.899
	c0.5,2.399,1.5,4.301,2.3,6.6c1.1,3-0.8,5.102-1.7,7.9c-1.7,5,0.602,9.9,5.4,13c2,1.301,4.7,2,6.5,3.4c1.3,1,1.6,2.197,2.5,3.5
	c3.5,4.6,10.398,6.301,15.5,9.1c3.3,1.801,4.398,4.6,6.398,7.4c1.802,2.398,4.5,3.801,7.602,4.898c5.1,1.9,11.898,1.602,14.1,6.602
	c0.8,1.801,0.602,2.5,2.9,3.301c2.1,0.799,4.2,1.199,6.2,2.1"/>
<path fill="none" stroke="#010101" stroke-width="2" stroke-miterlimit="10" d="M244.2,482.9c-4.5-2.4-7.2-5.5-12.5-6.9
	c-4.802-1.199-9-0.4-13.7-0.799"/>
<path fill="none" stroke="#010101" stroke-width="2" stroke-miterlimit="10" d="M112.6,85c-3.7,0-8.2-0.9-11.398,1
	c-2.602,1.5-3.102,4.1-5,6.1c-1.2,1.3-4.4,2.7-6.302,1.4c-2.8-1.9-2.6-6.6-2.6-9.2c0-3,1.6-5.8,2.8-8.5c1-2.2,1.8-4.5,2.8-6.7
	c0.802-1.8,1.102-3.7,0.4-5.6"/>
<g>
	<path fill="#FDFEFF" stroke="#010101" stroke-miterlimit="10" d="M201.9,104.7c-1.8,3.1-5.898,4.5-9,2.3c-3.398-2.4-2-7.2,0.4-10
		c1-1.2,2.4-1.5,3.9-1.8C202,94.5,204,101.2,201.9,104.7z"/>
	<path fill="#FDFEFF" stroke="#010101" stroke-miterlimit="10" d="M209.8,133.5c-2.4-3.2-3-8.1-4.3-11.8
		c-1.102-3.3-2.8-6.5-4.102-9.7c-0.6-1.5-1.6-6.1-4-3.8c-0.698,0.7-0.1,1.9,0.2,2.8c0.4,1.1,0.602,2.3,0.9,3.4
		c0.8,2.6,1.2,5.2,2,7.8c0.7,2.3,1.2,4.7,1.8,7c0.3,1.4,0.5,3.1,1.1,4.4c0.102,0.3,0.4,0.6,0.5,0.8L209.8,133.5z"/>
	<path fill="#FDFEFF" stroke="#010101" stroke-miterlimit="10" d="M202.8,102.9c1.7,0.5,4.3-0.5,5.9-1.1
		c2.198-0.8,4.398-1.3,6.6-2.1c3.5-1.4,7.2-2.6,10.7-4.1c-0.5-1.6-0.4-4.6-2.5-4.5c-3.2,0.1-6.4,2.2-9.3,3.3
		c-3.602,1.4-8.7,2.8-11.4,5.8V102.9z"/>
	<path fill="#FDFEFF" stroke="#010101" stroke-miterlimit="10" d="M191.7,105.8c-1.7,1.5-4.2,2.1-6.2,3.1c-1.5,0.8-3,1.5-4.5,2.1
		c-1.7,0.7-3.8,2-5.3,0.6c-1.102-1-0.7-2.1-0.802-3.4c0-0.4-0.198-0.7-0.1-1.1c0.5-1.2,3.8-1.7,4.9-2c2.898-0.7,5.8-1.3,8.698-1.9
		c0.802-0.2,1.802-0.5,2.602-0.3L191.7,105.8z"/>
	<path fill="#FDFEFF" stroke="#010101" stroke-miterlimit="10" d="M192.9,97c-1.1-1.5-1.8-3.4-2.8-5.1c-1.1-1.8-2.6-3.5-4-5.1
		c-1.1-1.3-2.1-2.7-2.898-4.2c-0.7-1.4,0.1-1.8,1.3-2.8c3.898-2.9,5.7,3.1,7.2,5.9c1,1.8,1.5,3.8,2.198,5.7
		c0.4,1.2,0.802,2.8,1.5,3.9c0,0,0,0,0.102,0.1L192.9,97z"/>
</g>
<path fill="#FDFEFF" stroke="#010101" stroke-miterlimit="10" d="M193.3,75.7c-5.8,1.8-9.1,11.4-15,7.4c-4.4-3.1-6.5-8.6-9-13.2
	c-3-5.4-6-10.8-9.1-16.2C152,39.5,143.6,23.4,132,11.7c5.2-5.2,14.3-6,19.8-11.3c-0.2,0.2,9.7,18.1,10.7,19.8
	c4.1,7,8.7,13.6,12.898,20.5c3.5,5.8,6.602,11.8,9.7,17.8c2.7,5.4,6.8,11,8.2,16.9L193.3,75.7L193.3,75.7z"/>
<path fill="#FDFEFF" stroke="#010101" stroke-miterlimit="10" d="M217.7,134.8c-2.102,13-2.102,26.5-7.102,38.8
	c-1.5,3.8-2.8,8-1.8,12.1c1.1,4.5,5,7.6,6.7,11.9c4.6,12,1.398,23.6-5.602,34c-2.5,3.7-5.6,2.4-9.3,1.6c-3-0.7-6.8-0.7-7.5-4
	c-0.898-4.5,2.8-11,3.602-15.5c0.8-4.4,2.6-10.2-0.102-14.2c-2.1-3.1-5.5-5.3-7.398-8.6c-5.9-10,1.898-26.4,4.698-36.3
	c1.2-4,1.802-7.8,1.7-11.9c-0.1-3.2-0.398-7.8,3-9.5c3.3-1.6,8.102,0.5,11.5,0.6c2,0.1,4.9-0.6,6.602,0.8"/>
<path fill="#FDFEFF" stroke="#010101" stroke-miterlimit="10" d="M172.1,100.7c-15.2,7.5-29.7,15.8-44.7,24.1
	c-6.198,3.5-13,6.3-19.198,9.6c-1.2,0.6-6,2-6.102,3.3c-0.3,3.4,5.102,2,6.3,1.6c-1.6,1.7-3.398,3.1-5,4.7c1.2,1.4,3,0.2,4.7,0.3
	c-1.3,1.1-2.6,2.3-3.8,3.5c1.8,0.9,3.7-2.1,5.5,0c-1.1,1.8-3.4,3.1-2.9,5.4c1.802-0.6,4-1.2,5.802-1.2c-1.5,1.5-5.2,3.9-2.9,5.8
	c24.7-10.1,48-25.4,72.2-37.2c-2.4-6.4-7-13-9.5-18.9L172.1,100.7z"/>
<path fill="#FDFEFF" stroke="#010101" stroke-miterlimit="10" d="M253.1,109.7"/>
<g>
	<path fill="#FDFEFF" stroke="#010101" stroke-miterlimit="10" d="M279.8,102.6c-0.2,1.6-0.3,3.1-1,4.6c-1.2,2.3-2.9,4.3-4,6.6
		c-1.9,3.8-2.1,7.8-0.5,11.6c-2.5-2.7-4.2-6-6.5-8.8c-1.1-1.3-2.7-2-4-3.1c-1.5-1.3-3-2.8-4.4-4.2c-1.198-1.2-4.198-2.3-4-4.2
		c0.2-2.8,1.5-2.7,3.5-7.8C266.6,96,279.8,102.6,279.8,102.6z"/>
	<path fill="#FDFEFF" stroke="#010101" stroke-miterlimit="10" d="M221.3,83.8c2.1,4.1,5.1,17.6,8.6,19.3c5,2.4,15.102-3.1,20-4.3
		c9-2.2,21.9-0.8,29.9,3.9c1.6-3.8-3.9-16.8-6.3-20.4c-3.4-5-10.5-3.8-16-3.9c-6.102-0.2-12.7-0.6-18.9,0.4
		c-5.6,0.9-12.1,4.8-17.6,4.2"/>
</g>
<path fill="#FDFEFF" stroke="#010101" stroke-miterlimit="10" d="M69.4,58c2.2,2.2,3.802,5.7,5.4,8.1c1.2,1.8,2.3,3.6,3.5,5.5
	c1.8,2.8,4.3,6.7,6.8,9.1c1.102,1,2.4,1.7,2.4,0.3c0-1-1.8-3-2.602-4.1c-2.1-3-4-5.9-6-8.9c-2-3.1-4.398-6.8-7.198-9.6L69.4,58z"/>
<path fill="#FDFEFF" stroke="#010101" stroke-miterlimit="10" d="M91.9,68.5c0.5,1.6-4.3,15.4-0.6,15.3c1.5,0,1.9-2.3,1.9-3.4
	c-0.102-1.8-0.102-2.9,0.5-4.5c0.8-2.4,1.198-5,0.5-7.6L91.9,68.5z"/>
<path fill="#FDFEFF" stroke="#010101" stroke-miterlimit="10" d="M29.2,43c0,0,1.698,12.5,10,26.4c2.5,1,1.898-1.3,1.898-1.3
	S32.8,51,30.3,42.5C29.4,40.7,29.2,43,29.2,43z"/>
<path fill="#FDFEFF" stroke="#010101" stroke-miterlimit="10" d="M21.2,69.4c-0.7-1.3-5-4.1-6.302-5.6c-1.8-1.9-3-4.2-4-6.6
	c-1-2.6-1.8-5.2-2.398-7.9C8,47.2,7.4,45.1,7.2,43c-0.5-4.6,0.5-9.4,2.5-13.6c2.198-4.4,5.6-7.9,9.3-11c3.2-2.7,6.8-5.2,10.8-6.5
	c4.1-1.3,8.5-1.2,12.5,0.4c0.2,0.1,0.4,0.2,0.7,0.3c0.1-0.2,0.2-0.3,0.2-0.5l0,0C40.7,10.7,38.1,9.7,35.4,9.3
	c-5.3-0.8-9.8,0.5-14.8,2.1c-10,3.2-21.3,14.3-20,25.7c0.9,7.2,2.602,13.8,6,20.2C9.5,62.6,16,67,21.1,69.5
	C21.1,69.5,21.1,69.4,21.2,69.4z"/>
<g>
	<path fill="#FDFEFF" stroke="#010101" stroke-miterlimit="10" d="M28,36.2c-0.9,0.7-3.7-0.7-4.5-1.2c-1.4-1-2.4-2.5-3.3-3.9
		c-0.802-1.3-1.4-2.8-2-4.3c-0.602-1.4-0.9-2.6-1-4c-0.102-1.4-0.2-3.1,0.5-4.4c0.8-1.5,2.1-2.8,3.398-3.9
		c2.602-2.1,5.3-2.9,8.602-2.9c2.5,0,5.1,0.7,7.398,1.7c3.3,1.3,1.9,4.4,0.9,6.8c-0.5,1.4-1,2.7-1.5,4.1c-0.5,1.4-1,3-1.2,4.4
		c-0.3,1.9-0.6,3.5-1.6,5.2c-0.5,0.8-1,1.1-1.802,1.5c-0.1,0.1-0.3,0.1-0.398,0.2L28,36.2z"/>
	<path fill="#FDFEFF" stroke="#010101" stroke-miterlimit="10" d="M34.3,39.2c2.3-2,5.1-3.6,8.3-3.6c2.7,0,5.7,1,8,2.5
		c4.2,2.8,6.3,9.2,2.7,13.5c-3.4,4-7.5,4.3-12.2,2.4c-2.2-0.9-4-2.7-5.6-4.5c-1.2-1.3-1.5-3.1-2.5-4.3L34.3,39.2z"/>
	<path fill="#FDFEFF" stroke="#010101" stroke-miterlimit="10" d="M28.4,46.1c2.4,5.7-0.8,13.9-5.698,17.3
		c-2.5,1.7-4.2,2.4-7.102,0.6c-2.7-1.7-4-4.5-5.6-7c-2.602-4.2-1.9-8.6,1.6-12.1c3.5-3.6,8.8-4.1,13.2-2.6L28.4,46.1z"/>
	<path fill="#FDFEFF" stroke="#010101" stroke-miterlimit="10" d="M29,46.5c-2.102-0.5-3.8-2.2-4.5-4.3c-0.5-1.4,0-2.5,0.7-3.8
		c0.698-1.3,1.398-2.7,2.898-3.2c2.8-1,5.602,1.9,6,4.5c0.2,1.6,0.4,3.9-0.8,5.1C32.4,45.8,30.5,46.9,29,46.5z"/>
</g>
<path fill="#FDFEFF" stroke="#010101" stroke-miterlimit="10" d="M43.5,12.3c-0.102,0.2-0.2,0.3-0.3,0.5c4,2,6.6,5.6,8.1,9.9
	c1.7,4.8,2.4,10.1,2.7,15.1c0.3,4.7-1.3,9.2-3.7,13.1c-1.2,2-2.6,3.9-4,5.7c-1.4,1.8-2.8,3.6-4.4,5.3c-5.398,5.5-12.8,9.4-20.5,7.7
	l0,0c0.5,0.2,1.102,0.5,1.602,0.7c6.8,2.7,15,5.1,21.398,0.3c3-2.3,5.2-5.2,7.5-8.1c2.7-3.4,5.9-6.4,7.4-10.7c1.1-3.2,1-6.8,1.9-10
	c0.898-3.3,1.3-5.5,0.6-8.7c-1.4-6.5-5.1-10.8-10.2-14.9C49.3,16.2,46.5,14,43.5,12.3z"/>
<path fill="#FDFEFF" stroke="#010101" stroke-miterlimit="10" d="M72.9,64.2C67.8,61.8,62.3,60,57,57.8c-1.7-0.7-3.9-1.5-3.9-3.6
	c0-2.5,2.7-1.9,4.4-1.1c5.6,2.5,11.5,4.2,17.2,6.6c4.8,2,9.8,5.8,14.6,7.3c2.1,0.6,5.1-0.1,5.7,2.8c0.6,2.7-1.9,2.9-3.9,2.5
	C84.9,70.8,78.8,67,72.9,64.2z"/>
<path fill="#010101" stroke="#010101" stroke-miterlimit="10" d="M90.7,70c-0.102-0.1-0.302-0.2-0.2-0.6c0.6-0.2,1.2-0.1,1.2,0.6
	c-0.4,0.2-0.9,0.2-1-0.3"/>
<path fill="#FDFEFF" stroke="#010101" stroke-miterlimit="10" d="M87.4,58c3-3.3,9.7-1.1,6,3.5"/>
<path fill="#FDFEFF" stroke="#010101" stroke-miterlimit="10" d="M76,60.2c1.1-1.1,2.6-3,4-4c2.398-1.6,1.6-1.1,3.8-0.6
	c4.3,1,6.5,4.4,9.9,5.5c-0.7,1.5,2.6,6.9,1,8"/>
<path fill="#FDFEFF" stroke="#010101" stroke-miterlimit="10" d="M88.6,66.8c2.102-2.9,3.3-2.7,5.3-5.3"/>
</svg>
